<svg version="1.1" id="Layer_1" xmlns="http://www.w3.org/2000/svg" xmlns:xlink="http://www.w3.org/1999/xlink" x="0px" y="0px"
	 width="100%" viewBox="0 0 722 528" enable-background="new 0 0 722 528" xml:space="preserve">
<path fill="#F2DFBE" opacity="1.000000" stroke="none" 
	d="
M3.000000,1.000000 
	C242.948853,1.000000 482.897705,1.000000 722.923279,1.000000 
	C722.923279,176.911331 722.923279,352.822693 722.923279,529.000000 
	C483.306549,529.000000 243.612976,529.000000 3.459878,528.537354 
	C3.000231,352.383148 3.000116,176.691574 3.000000,1.000000 
M516.407104,397.994812 
	C516.611755,398.300812 516.816467,398.606842 517.798401,399.128937 
	C518.866150,399.075531 519.933899,399.022125 521.902344,399.096954 
	C524.933105,399.025421 527.963867,398.953888 531.915894,399.074066 
	C540.259644,398.976654 548.603333,398.879242 557.808228,398.870605 
	C559.231079,398.802490 560.653992,398.734375 562.932129,398.766266 
	C564.941895,398.785400 566.951660,398.804535 569.610596,399.044678 
	C571.426086,398.936981 573.241577,398.829285 575.057068,398.721588 
	C575.007385,398.295319 574.957642,397.869049 574.907898,397.442810 
	C572.871948,397.162109 570.835999,396.881409 568.757446,395.756836 
	C571.726929,383.113220 572.355591,382.619659 585.164490,383.262573 
	C586.269714,383.318024 588.145996,383.473267 588.327148,384.022888 
	C589.724609,388.262085 590.792053,392.610077 591.127930,396.896973 
	C588.971802,397.133453 586.815674,397.369934 584.659546,397.606384 
	C584.684448,398.177521 584.709412,398.748657 584.734314,399.319794 
	C587.492493,399.154022 590.250671,398.988251 593.918518,398.914093 
	C597.268127,398.900879 600.617676,398.887665 604.667480,399.078461 
	C607.115173,399.041443 609.562805,399.004395 612.924744,399.081116 
	C616.614441,399.015686 620.304199,398.950287 624.796021,398.550262 
	C624.527100,391.034821 624.258179,383.519348 624.146179,375.416138 
	C624.123901,375.012115 624.101562,374.608063 624.862305,373.957672 
	C632.597473,374.139038 634.511230,375.818909 635.592834,383.338074 
	C635.971375,385.969360 636.119324,388.671661 636.840393,391.208557 
	C638.743164,397.903320 647.183655,402.127014 652.688232,399.178558 
	C653.658020,398.659119 654.413818,397.304321 654.723267,396.184631 
	C654.863281,395.677917 653.489014,394.123566 653.113464,394.222900 
	C652.037781,394.507416 651.075806,395.337982 650.164978,396.072632 
	C649.795532,396.370605 649.674133,396.975983 648.775269,398.761658 
	C644.198486,389.050323 648.005981,375.911621 633.372620,373.250977 
	C636.395935,371.768921 637.992920,370.986084 640.249695,370.133148 
	C648.288208,365.290405 649.216614,359.972504 644.330566,352.067932 
	C653.723694,351.019501 663.143982,350.159424 672.493713,348.810272 
	C675.375366,348.394440 678.226746,347.016510 677.264099,342.707031 
	C676.868835,340.937469 677.941345,338.869965 678.193115,336.918243 
	C678.494568,334.581085 678.632446,332.222778 678.924133,328.939331 
	C683.339294,326.774963 682.380310,320.910919 681.601990,316.606262 
	C681.051819,313.563446 677.047913,310.469330 673.859314,308.729034 
	C668.298645,305.694000 662.178040,303.684875 657.330933,301.676270 
	C657.885071,292.860138 658.598328,284.548676 658.833435,276.223724 
	C658.923096,273.050385 657.129150,270.722107 653.582520,269.846161 
	C652.375244,269.547913 651.087952,267.782471 650.676575,266.431793 
	C649.859924,263.750916 649.841309,259.951355 646.163452,260.463226 
	C642.228821,261.010834 642.641235,264.601318 643.415344,267.696075 
	C643.533752,268.169495 643.599915,268.655975 643.690186,269.136414 
	C641.476562,271.236053 640.068237,273.680359 638.857239,276.218842 
	C637.423035,279.225464 636.802490,282.928680 634.638611,285.191254 
	C632.506592,287.420502 631.747070,288.934814 633.219727,291.545746 
	C634.446106,293.720245 635.496643,295.996490 636.771179,298.140778 
	C639.392517,302.551056 638.775269,304.597534 633.760559,305.889069 
	C629.102844,307.088684 624.283142,307.643921 619.588440,308.717651 
	C596.885559,313.910004 574.240051,319.360168 551.495483,324.361084 
	C536.729187,327.607849 521.827881,330.240356 506.415070,333.117004 
	C505.905548,333.347046 505.395996,333.577118 504.185822,333.809875 
	C503.121796,334.232544 502.057770,334.655182 500.267731,335.006073 
	C495.846649,335.714722 491.425598,336.423370 486.201080,337.017517 
	C483.800720,337.342834 481.400360,337.668121 478.450745,338.152039 
	C477.970032,338.460419 477.489349,338.768799 476.256714,339.006683 
	C474.835358,339.359741 473.414001,339.712799 471.139038,340.003326 
	C465.762115,340.690430 460.385223,341.377502 454.259521,342.066986 
	C452.132050,342.812958 450.004578,343.558899 447.498230,343.757416 
	C443.328522,344.576263 439.158844,345.395142 434.431732,346.138306 
	C433.930450,346.346985 433.429199,346.555695 432.276001,346.796448 
	C431.847382,346.870148 431.418732,346.943848 430.452454,346.687653 
	C428.303497,347.185669 426.154541,347.683716 423.196320,348.199860 
	C419.874023,348.967407 416.551727,349.734924 412.417023,350.341064 
	C406.426453,351.426392 400.435913,352.511749 394.425476,352.708252 
	C394.625916,352.156433 394.826385,351.604584 395.824158,351.114777 
	C397.313202,351.042023 398.802246,350.969299 400.291290,350.896545 
	C400.294159,350.335663 400.297028,349.774750 400.299896,349.213867 
	C398.514893,349.213867 396.729889,349.213867 394.170563,349.120789 
	C393.133209,349.158356 392.095856,349.195923 390.237305,349.030121 
	C388.355957,349.203674 386.474579,349.377228 384.593231,349.550812 
	C384.626770,349.966095 384.660309,350.381378 384.693848,350.796692 
	C386.754486,350.936218 388.815155,351.075745 391.013214,351.912048 
	C391.020874,352.618896 391.028534,353.325745 390.273529,354.257507 
	C384.421722,355.651886 378.569916,357.046265 372.167236,358.023193 
	C369.229340,355.079865 366.768311,350.975800 363.220093,349.517914 
	C359.634430,348.044586 354.971497,349.193176 350.780487,349.193176 
	C358.046326,353.001068 358.046326,353.001068 357.839294,360.882812 
	C354.357513,361.204224 350.875732,361.525604 347.245544,360.950684 
	C346.910126,357.079620 346.574707,353.208527 346.213409,349.038788 
	C341.794861,349.038788 337.880829,349.038788 333.833435,348.136597 
	C335.287628,336.443054 336.302063,324.674683 338.276581,313.069672 
	C344.796417,274.750244 351.826202,236.517303 358.292358,198.189102 
	C360.109894,187.415543 360.756989,176.436615 361.678772,165.529739 
	C361.794678,164.158340 360.591766,162.342285 359.472412,161.297089 
	C358.433960,160.327393 356.689514,160.113770 355.175232,159.536499 
	C355.069916,159.700516 354.569763,160.479370 353.744049,161.765198 
	C353.156128,159.461487 352.763519,157.923096 352.520294,156.970016 
	C350.089050,156.411575 348.180267,156.057022 346.323822,155.521027 
	C344.745331,155.065277 342.593658,153.447769 341.786591,153.984558 
	C337.011230,157.160797 334.349884,153.903442 330.619080,149.716797 
	C327.194458,159.558823 323.002991,168.177856 321.257874,177.266617 
	C316.153992,203.848068 311.976746,230.608673 307.529816,257.314636 
	C303.901154,279.106384 300.406891,300.920471 295.947479,322.842682 
	C291.466644,322.987396 285.726379,321.499237 282.846954,323.720154 
	C279.753448,326.106171 279.340088,331.973022 277.772278,336.326416 
	C277.434235,337.265045 277.162231,338.227356 276.857056,339.177887 
	C272.900024,351.503815 268.942444,363.829559 264.985016,376.155334 
	C264.551361,376.218292 264.117737,376.281250 263.684082,376.344208 
	C260.084412,365.558289 256.484711,354.772339 253.515091,343.530701 
	C253.965118,341.260468 254.552521,339.007690 254.842972,336.717224 
	C256.786499,321.390533 258.426941,306.021545 260.614258,290.730438 
	C266.284546,251.090240 271.954041,211.447113 278.091034,171.877594 
	C281.324249,151.030594 285.076355,130.237335 289.476959,109.608147 
	C292.118347,97.225845 293.146790,84.978081 291.816376,72.465988 
	C291.775665,72.083244 291.254425,71.751595 290.826294,71.239517 
	C289.907074,72.010849 289.079956,72.704857 288.252411,73.399254 
	C281.396973,64.975052 272.264587,68.790878 263.789948,68.733421 
	C263.395386,69.441261 262.794739,70.518799 261.987885,71.966278 
	C260.283936,70.217644 258.969788,68.869026 257.354889,67.211777 
	C232.337906,130.678650 197.301147,188.641968 164.298630,247.682022 
	C159.550522,216.576813 165.621719,184.979050 157.344055,155.851242 
	C154.259827,154.829666 152.476929,154.082153 150.619736,153.667191 
	C148.680740,153.233902 146.621658,152.716751 144.700516,152.947495 
	C139.931686,153.520309 135.226227,155.068100 130.468658,155.190857 
	C121.550636,155.420929 121.539307,155.115723 118.641930,162.907761 
	C118.293991,163.843506 118.001167,164.800125 117.695435,165.751144 
	C106.392281,200.911179 94.839775,235.993896 83.897316,271.265839 
	C78.627953,288.251129 74.509048,305.593292 69.012627,322.942078 
	C66.188728,323.095795 63.364834,323.249481 59.273132,323.472168 
	C63.527130,325.445038 66.279259,326.721375 68.503601,328.488831 
	C66.915955,333.895844 65.346878,339.308350 63.737076,344.708771 
	C59.459629,359.058289 55.856655,373.509399 58.201084,388.664978 
	C58.637844,391.488403 59.845291,394.192596 60.668476,397.666687 
	C60.854855,398.088837 61.041233,398.510956 61.481651,399.553558 
	C64.206139,401.315704 78.216103,401.222168 80.748444,399.415649 
	C80.871361,399.327911 80.927933,399.147186 81.667320,398.812012 
	C81.920334,398.209869 82.173340,397.607727 82.997475,396.759155 
	C83.928856,395.207520 84.878769,393.666656 85.787666,392.101929 
	C87.567360,389.038055 89.324188,385.960876 91.367935,383.593048 
	C93.067276,388.330750 94.766624,393.068451 96.465973,397.806152 
	C96.893707,397.759460 97.321449,397.712799 97.749184,397.666107 
	C104.155838,377.238251 110.562492,356.810394 116.969147,336.382507 
	C117.384605,336.487274 117.800056,336.592010 118.215515,336.696777 
	C118.215515,354.002594 118.220261,371.308441 118.213303,388.614288 
	C118.210274,396.149658 118.197395,396.131836 110.819466,396.946533 
	C109.986412,397.038574 109.191040,397.471710 108.378197,397.746674 
	C108.429085,398.019257 108.479965,398.291870 108.530853,398.564453 
	C118.787102,398.564453 129.043350,398.564453 139.299606,398.564453 
	C138.353424,397.289398 137.331451,396.992065 136.293091,396.914734 
	C129.029434,396.373596 129.003159,396.374298 128.997650,388.857910 
	C128.988251,376.034149 128.975296,363.210358 129.005936,350.386688 
	C129.021851,343.726135 129.094421,337.065216 129.210785,330.405670 
	C129.253052,327.987762 129.461899,325.542938 133.097580,326.744232 
	C134.739990,331.615082 138.798416,331.494354 142.754578,331.238770 
	C145.831619,331.039978 148.883698,330.454865 152.112305,330.960663 
	C152.132904,349.620789 152.157303,368.280884 152.172394,386.941010 
	C152.179092,395.240234 152.169418,395.236542 144.643051,397.546722 
	C144.516327,397.585632 144.535583,398.100067 144.373260,399.071960 
	C163.182419,399.071960 181.884125,399.071960 201.017822,399.071960 
	C201.217300,392.612274 202.185791,385.923157 199.822601,379.282715 
	C198.741302,381.107971 198.457062,382.997040 198.097488,384.871643 
	C197.279755,389.134918 195.846252,393.636963 191.175613,394.348816 
	C182.107376,395.730835 172.898590,396.190765 163.444565,397.060638 
	C163.444565,373.770203 163.444565,351.985199 164.147537,330.113892 
	C166.466080,328.472656 168.784607,326.831451 171.593521,324.788879 
	C171.778610,324.190918 171.963699,323.592987 172.823944,322.971130 
	C175.317581,320.112823 178.262054,317.533356 180.230560,314.350311 
	C191.695007,295.812286 202.984100,277.164856 214.213486,258.482941 
	C218.060791,252.082291 221.564728,245.475235 225.801224,237.938309 
	C221.249542,268.154114 216.719498,297.028870 212.605789,325.962830 
	C209.939636,344.715454 207.987610,363.545654 210.109314,382.553070 
	C211.508163,395.084900 215.277664,399.360840 226.019119,399.019104 
	C231.614899,398.990265 237.214218,399.056824 242.803314,398.848663 
	C243.867004,398.809021 244.890198,397.682770 246.255310,396.433716 
	C250.037231,391.938721 251.469955,386.786713 250.993088,380.931915 
	C250.858704,379.281769 251.714310,377.550964 252.708817,376.301361 
	C255.394501,383.484955 258.080170,390.668549 260.765869,397.852173 
	C261.152588,397.795959 261.539307,397.739716 261.926025,397.683502 
	C268.235809,377.504852 274.545593,357.326172 281.262238,335.846375 
	C281.957520,337.757751 282.228729,338.155975 282.229218,338.554504 
	C282.251587,356.528381 282.222443,374.502411 282.278809,392.476135 
	C282.288269,395.494476 280.770935,396.576569 278.026855,396.774689 
	C276.135376,396.911224 274.261749,397.294678 272.380127,397.567749 
	C272.438324,398.158356 272.496521,398.748932 272.554718,399.339539 
	C278.317444,399.339539 284.080200,399.339539 289.964996,400.012482 
	C293.064026,401.648865 296.011292,403.778809 299.302307,404.790924 
	C303.028992,405.937042 307.064545,406.076904 310.964783,406.661102 
	C315.367615,407.320557 319.863831,408.917297 324.154266,408.481354 
	C338.460022,407.027649 352.727081,405.072113 366.937927,402.853851 
	C374.696960,401.642670 382.312805,399.514160 390.557648,398.036041 
	C391.843842,398.078430 393.130005,398.120789 395.173920,398.023956 
	C398.774353,397.356323 402.374756,396.688721 406.019409,396.779816 
	C406.208557,397.770935 406.397736,398.762054 406.775146,400.739502 
	C408.083649,398.707550 408.810699,397.578491 409.506134,396.498566 
	C424.122559,402.436768 432.986084,400.166992 439.946838,389.015503 
	C446.616089,388.022400 453.285370,387.029327 460.221436,386.700073 
	C462.458374,391.130096 464.695343,395.560089 467.443207,401.001862 
	C468.801605,398.305145 469.666046,396.756897 470.378296,395.141510 
	C472.049835,391.350433 473.505615,387.455933 475.352295,383.754761 
	C476.023132,382.410278 477.759705,380.449341 478.650421,380.622253 
	C480.117950,380.907074 481.507904,382.538300 482.529053,383.902496 
	C483.498749,385.197845 483.980408,386.867218 484.629333,388.392273 
	C486.276245,392.262787 487.896545,396.144623 489.527527,400.021942 
	C490.031586,400.009338 490.535645,399.996735 491.039703,399.984161 
	C493.945587,392.896118 496.851471,385.808075 500.621094,378.768921 
	C507.664856,377.901550 514.708618,377.034180 521.827881,377.079559 
	C521.555115,383.778046 521.282349,390.476532 520.301392,397.198578 
	C519.166809,397.405701 518.032288,397.612854 516.407104,397.994812 
M401.990967,144.837830 
	C400.910522,144.706360 399.830078,144.574890 398.681061,144.435074 
	C405.099915,147.908340 411.076172,151.301956 417.232361,154.329819 
	C418.376038,154.892334 420.398987,154.319046 421.751129,153.695389 
	C428.337738,150.657578 434.834534,147.425034 441.362640,144.260513 
	C443.406830,143.269577 445.449646,142.275818 447.493073,141.283356 
	C439.005615,140.765472 431.373444,142.337524 424.662964,147.186035 
	C421.797913,149.256134 418.843811,150.752380 414.979645,149.086670 
	C411.042908,147.389648 406.835999,146.319397 401.990967,144.837830 
M384.604797,135.169067 
	C386.586243,134.270203 388.567719,133.371323 390.549164,132.472443 
	C390.441254,132.058807 390.333313,131.645157 390.225403,131.231506 
	C383.069519,131.231506 375.913635,131.231506 368.757751,131.231506 
	C370.707947,132.900604 373.295105,132.964584 374.504303,134.287811 
	C377.515747,137.583282 380.533966,136.969864 384.604797,135.169067 
M51.424053,307.094238 
	C46.707870,307.640564 41.991692,308.186890 36.363342,308.838898 
	C43.653107,313.414124 54.817513,311.954224 58.756863,305.989502 
	C56.180168,306.247253 54.160923,306.449280 51.424053,307.094238 
z"/>
<path fill="#FFFFFF" opacity="1.000000" stroke="none" 
	d="
M2.500000,1.000000 
	C3.000116,176.691574 3.000231,352.383148 3.000175,528.537354 
	C2.333335,528.666687 1.216350,528.451965 1.090969,527.976013 
	C0.803562,526.885071 1.000000,525.666687 1.000000,524.500000 
	C1.000000,351.500000 0.997462,178.500000 1.041362,5.500010 
	C1.041742,3.999926 1.666667,2.500000 2.500000,1.000000 
z"/>
<path fill="#B59F7A" opacity="1.000000" stroke="none" 
	d="
M225.103516,398.894623 
	C215.277664,399.360840 211.508163,395.084900 210.109314,382.553070 
	C207.987610,363.545654 209.939636,344.715454 212.605789,325.962830 
	C216.719498,297.028870 221.249542,268.154114 225.801224,237.938309 
	C221.564728,245.475235 218.060791,252.082291 214.213486,258.482941 
	C202.984100,277.164856 191.695007,295.812286 180.230560,314.350311 
	C178.262054,317.533356 175.317581,320.112823 172.005615,322.996704 
	C162.083160,323.022308 152.979050,323.022308 143.874924,323.022308 
	C143.829712,323.594086 143.784485,324.165863 143.739273,324.737640 
	C145.200134,325.042206 146.650955,325.532379 148.123978,325.612061 
	C151.042709,325.769989 152.390533,327.080627 151.946869,330.041443 
	C148.883698,330.454865 145.831619,331.039978 142.754578,331.238770 
	C138.798416,331.494354 134.739990,331.615082 133.439194,326.286072 
	C135.463425,325.525116 137.146042,325.222260 138.828659,324.919434 
	C138.790482,324.408783 138.752304,323.898163 138.714127,323.387543 
	C136.093353,323.175354 133.472565,322.963165 130.866257,322.337402 
	C129.300034,307.247986 127.719337,292.572083 126.138641,277.896210 
	C125.690460,277.888153 125.242279,277.880096 124.794106,277.872070 
	C124.189911,279.533508 123.523285,281.175201 122.990891,282.859344 
	C114.975876,308.213928 107.000366,333.581024 98.930458,358.918091 
	C98.359497,360.710754 97.123825,362.291687 95.867691,363.810913 
	C91.721039,353.547058 87.319481,343.615448 84.277657,333.283508 
	C81.976654,325.467865 78.329781,321.288239 69.869186,322.773865 
	C74.509048,305.593292 78.627953,288.251129 83.897316,271.265839 
	C94.839775,235.993896 106.392281,200.911179 117.695435,165.751144 
	C118.001167,164.800125 118.293991,163.843506 118.641930,162.907761 
	C121.539307,155.115723 121.550636,155.420929 130.468658,155.190857 
	C135.226227,155.068100 139.931686,153.520309 144.700516,152.947495 
	C146.621658,152.716751 148.680740,153.233902 150.619736,153.667191 
	C152.476929,154.082153 154.259827,154.829666 157.344055,155.851242 
	C165.621719,184.979050 159.550522,216.576813 164.298630,247.682022 
	C197.301147,188.641968 232.337906,130.678650 257.354889,67.211777 
	C258.969788,68.869026 260.283936,70.217644 261.987885,71.966278 
	C262.794739,70.518799 263.395386,69.441261 263.789948,68.733421 
	C272.264587,68.790878 281.396973,64.975052 288.252411,73.399254 
	C289.079956,72.704857 289.907074,72.010849 290.826294,71.239517 
	C291.254425,71.751595 291.775665,72.083244 291.816376,72.465988 
	C293.146790,84.978081 292.118347,97.225845 289.476959,109.608147 
	C285.076355,130.237335 281.324249,151.030594 278.091034,171.877594 
	C271.954041,211.447113 266.284546,251.090240 260.614258,290.730438 
	C258.426941,306.021545 256.786499,321.390533 254.842972,336.717224 
	C254.552521,339.007690 253.965118,341.260468 252.907944,343.561584 
	C250.480057,338.947571 248.201950,334.421295 246.958282,329.626709 
	C245.514282,324.059631 242.539108,322.216858 236.977448,322.905609 
	C232.914413,323.408752 228.738953,323.004089 224.613617,323.004089 
	C224.603531,323.662689 224.593460,324.321320 224.583374,324.979919 
	C226.108261,325.271881 227.623734,325.735962 229.160004,325.820038 
	C232.389450,325.996857 234.052475,327.476593 234.051147,330.799103 
	C234.043015,351.275635 234.044449,371.752228 234.092911,392.228668 
	C234.099884,395.174652 232.757248,396.243225 229.894363,396.561615 
	C228.231506,396.746552 226.696213,398.078705 225.103516,398.894623 
z"/>
<path fill="#B59F7A" opacity="1.000000" stroke="none" 
	d="
M389.993225,397.799347 
	C382.312805,399.514160 374.696960,401.642670 366.937927,402.853851 
	C352.727081,405.072113 338.460022,407.027649 324.154266,408.481354 
	C319.863831,408.917297 315.367615,407.320557 310.964783,406.661102 
	C307.064545,406.076904 303.028992,405.937042 299.302307,404.790924 
	C296.011292,403.778809 293.064026,401.648865 290.367767,399.564697 
	C294.961853,399.116913 299.153168,399.116913 303.344452,399.116913 
	C303.326141,398.509918 303.307831,397.902893 303.289520,397.295898 
	C301.858856,397.133575 300.429230,396.844208 298.997375,396.832886 
	C294.786682,396.799530 293.149872,394.522919 293.162262,390.561615 
	C293.214020,373.987274 293.232513,357.412811 293.579834,340.692108 
	C294.885834,335.766113 295.875214,330.986420 297.257141,326.078552 
	C299.358337,325.584351 301.066986,325.218384 302.775665,324.852386 
	C302.750061,324.365021 302.724457,323.877655 302.698883,323.390289 
	C300.750244,323.168427 298.801636,322.946533 296.853027,322.724670 
	C300.406891,300.920471 303.901154,279.106384 307.529816,257.314636 
	C311.976746,230.608673 316.153992,203.848068 321.257874,177.266617 
	C323.002991,168.177856 327.194458,159.558823 330.619080,149.716797 
	C334.349884,153.903442 337.011230,157.160797 341.786591,153.984558 
	C342.593658,153.447769 344.745331,155.065277 346.323822,155.521027 
	C348.180267,156.057022 350.089050,156.411575 352.520294,156.970016 
	C352.763519,157.923096 353.156128,159.461487 353.744049,161.765198 
	C354.569763,160.479370 355.069916,159.700516 355.175232,159.536499 
	C356.689514,160.113770 358.433960,160.327393 359.472412,161.297089 
	C360.591766,162.342285 361.794678,164.158340 361.678772,165.529739 
	C360.756989,176.436615 360.109894,187.415543 358.292358,198.189102 
	C351.826202,236.517303 344.796417,274.750244 338.276581,313.069672 
	C336.302063,324.674683 335.287628,336.443054 333.435547,348.634888 
	C324.652466,349.133148 316.267273,349.133148 307.882050,349.133148 
	C313.048187,351.747742 313.069000,351.747711 313.076660,357.322723 
	C313.091980,368.468201 313.023102,379.614197 313.117035,390.758911 
	C313.146942,394.305328 313.418304,397.752136 308.107758,397.881378 
	C308.827148,398.553070 309.037842,398.924225 309.256378,398.928864 
	C321.382019,399.188049 333.507904,399.449921 345.635193,399.584320 
	C346.595245,399.594971 348.378052,398.739532 348.403381,398.219696 
	C348.623962,393.686371 348.530762,389.137787 348.530762,384.593719 
	C347.027679,384.955505 346.479675,385.292542 346.446350,385.674500 
	C345.595367,395.429138 343.020721,396.911194 331.484863,396.955170 
	C329.821411,396.961487 328.150299,396.889160 326.496368,397.022461 
	C323.676239,397.249695 322.650421,396.021301 322.722504,393.240173 
	C322.856018,388.086792 322.687775,382.925781 322.811371,377.771912 
	C322.840149,376.572754 323.167389,374.864624 323.987488,374.289673 
	C327.594910,371.760986 334.322296,374.852325 335.271484,379.244812 
	C335.654480,381.017303 336.151489,382.765167 336.596649,384.524231 
	C337.070374,384.442139 337.544098,384.360016 338.017822,384.277924 
	C338.017822,380.926941 337.959961,377.574646 338.033813,374.225311 
	C338.110626,370.740387 338.314667,367.258270 338.825195,363.784637 
	C341.127197,363.531128 343.067078,363.267914 345.251831,363.174957 
	C346.129120,362.845795 346.761536,362.346405 347.393951,361.847015 
	C350.875732,361.525604 354.357513,361.204224 358.349365,361.334137 
	C358.900909,370.265137 359.035156,378.745850 358.936829,387.223907 
	C358.898926,390.491852 358.332306,393.753632 357.600861,397.016479 
	C355.626556,397.227112 354.057983,397.439514 352.489380,397.651917 
	C352.553314,398.104858 352.617249,398.557800 352.681183,399.010773 
	C354.461029,398.928406 356.240845,398.846008 358.432495,398.808228 
	C360.221527,398.808838 361.598663,398.764893 363.373413,398.816589 
	C365.308716,398.802368 366.846466,398.692535 368.384247,398.582672 
	C368.347198,398.151520 368.310150,397.720337 368.273102,397.289185 
	C366.516174,397.191132 364.759247,397.093109 362.821045,396.619385 
	C362.639801,384.438141 362.639801,372.632568 362.639801,359.609009 
	C372.153595,372.892029 381.073425,385.345673 389.993225,397.799347 
z"/>
<path fill="#B59F7A" opacity="1.000000" stroke="none" 
	d="
M447.877136,344.304871 
	C450.004578,343.558899 452.132050,342.812958 454.736694,342.417175 
	C458.110962,343.001465 461.113190,342.836639 463.879822,343.565796 
	C467.743011,344.583984 470.032349,342.948090 471.992645,340.065857 
	C473.414001,339.712799 474.835358,339.359741 476.695007,339.326294 
	C477.461945,339.898560 477.790588,340.151276 478.119263,340.403992 
	C478.412842,339.600464 478.706421,338.796967 479.000000,337.993439 
	C481.400360,337.668121 483.800720,337.342834 486.604980,337.452057 
	C487.802673,340.460236 494.360596,344.344025 496.488312,343.456482 
	C496.904755,343.282745 497.340057,342.894104 497.535034,342.492188 
	C498.725128,340.038788 499.848267,337.552887 500.993774,335.077820 
	C502.057770,334.655182 503.121796,334.232544 504.709839,334.031769 
	C505.818207,333.885132 506.402618,333.516602 506.987030,333.148071 
	C521.827881,330.240356 536.729187,327.607849 551.495483,324.361084 
	C574.240051,319.360168 596.885559,313.910004 619.588440,308.717651 
	C624.283142,307.643921 629.102844,307.088684 633.760559,305.889069 
	C638.775269,304.597534 639.392517,302.551056 636.771179,298.140778 
	C635.496643,295.996490 634.446106,293.720245 633.219727,291.545746 
	C631.747070,288.934814 632.506592,287.420502 634.638611,285.191254 
	C636.802490,282.928680 637.423035,279.225464 638.857239,276.218842 
	C640.068237,273.680359 641.476562,271.236053 643.690186,269.136414 
	C643.599915,268.655975 643.533752,268.169495 643.415344,267.696075 
	C642.641235,264.601318 642.228821,261.010834 646.163452,260.463226 
	C649.841309,259.951355 649.859924,263.750916 650.676575,266.431793 
	C651.087952,267.782471 652.375244,269.547913 653.582520,269.846161 
	C657.129150,270.722107 658.923096,273.050385 658.833435,276.223724 
	C658.598328,284.548676 657.885071,292.860138 657.330933,301.676270 
	C662.178040,303.684875 668.298645,305.694000 673.859314,308.729034 
	C677.047913,310.469330 681.051819,313.563446 681.601990,316.606262 
	C682.380310,320.910919 683.339294,326.774963 678.924133,328.939331 
	C678.632446,332.222778 678.494568,334.581085 678.193115,336.918243 
	C677.941345,338.869965 676.868835,340.937469 677.264099,342.707031 
	C678.226746,347.016510 675.375366,348.394440 672.493713,348.810272 
	C663.143982,350.159424 653.723694,351.019501 643.537476,352.030060 
	C631.972290,346.520752 620.721558,350.280487 609.699585,349.626953 
	C615.107666,351.855804 615.107666,351.855804 614.415771,358.091309 
	C612.543640,358.272888 611.073486,358.432343 609.619873,358.686829 
	C603.140869,359.821136 596.666565,360.982574 589.938721,361.858765 
	C587.811584,357.300476 585.936340,353.017639 584.061096,348.734833 
	C583.614258,348.745331 583.167480,348.755829 582.720642,348.766327 
	C580.451050,354.533081 578.181458,360.299835 575.499634,366.070129 
	C565.722351,367.713928 556.357239,369.354187 546.932190,370.551544 
	C546.872192,367.272156 546.872192,364.435699 546.872192,361.599213 
	C546.329590,361.551361 545.786987,361.503540 545.244446,361.455688 
	C544.868896,362.586060 544.361694,363.691254 544.140076,364.851013 
	C543.044617,370.584320 541.332520,371.646118 534.601868,371.340057 
	C528.976196,371.084198 531.761230,366.887299 531.077515,364.317261 
	C530.953613,363.851410 531.059937,363.324341 531.059937,362.825531 
	C531.059570,351.417450 531.059570,351.417480 542.396912,351.743347 
	C549.487976,351.947174 550.931824,353.081665 552.990723,359.831635 
	C553.393433,361.151733 554.093933,362.380981 554.657104,363.652161 
	C555.113464,363.495453 555.569824,363.338776 556.026184,363.182098 
	C555.764160,360.259491 555.145386,357.315399 555.319824,354.419067 
	C555.617676,349.471222 553.077209,348.774261 548.946411,348.959686 
	C543.308472,349.212891 537.647156,348.944794 531.876160,348.540283 
	C528.694519,346.713074 525.660767,345.580109 522.583740,348.963074 
	C519.495789,349.353821 516.827637,349.699097 513.765076,350.031311 
	C512.583496,350.011108 511.796326,350.003937 510.753265,349.951050 
	C510.329895,349.860687 510.162445,349.816071 509.857330,349.418671 
	C506.069763,349.139557 502.419861,349.213257 498.351776,349.223145 
	C495.954620,349.078949 493.975677,348.998535 491.878540,348.556335 
	C488.697723,346.700867 485.666229,345.583282 482.536713,348.963745 
	C476.083954,349.014313 470.097717,349.020325 463.898132,349.091187 
	C463.314423,349.380035 462.944061,349.604034 462.190430,349.592163 
	C457.204834,349.197998 452.602478,349.039673 447.958527,348.575317 
	C447.903656,346.947784 447.890411,345.626343 447.877136,344.304871 
M643.187012,300.437988 
	C643.673157,302.727997 644.636658,304.851440 647.359558,303.687714 
	C648.248657,303.307739 649.135681,300.299316 648.657043,299.798218 
	C646.606812,297.651642 644.046570,295.992065 641.672302,294.154907 
	C641.408752,294.423492 641.145142,294.692078 640.881592,294.960632 
	C641.600159,296.529358 642.318787,298.098083 643.187012,300.437988 
M641.880737,285.750427 
	C642.844543,286.535065 643.808350,287.319733 644.772156,288.104370 
	C645.214905,287.807739 645.657715,287.511139 646.100464,287.214508 
	C645.249756,284.264282 644.399048,281.314087 643.548279,278.363892 
	C642.867249,278.401978 642.186157,278.440094 641.505127,278.478180 
	C641.505127,280.696808 641.505127,282.915466 641.880737,285.750427 
z"/>
<path fill="#66512C" opacity="1.000000" stroke="none" 
	d="
M293.263245,340.838409 
	C293.232513,357.412811 293.214020,373.987274 293.162262,390.561615 
	C293.149872,394.522919 294.786682,396.799530 298.997375,396.832886 
	C300.429230,396.844208 301.858856,397.133575 303.289520,397.295898 
	C303.307831,397.902893 303.326141,398.509918 303.344452,399.116913 
	C299.153168,399.116913 294.961853,399.116913 290.306732,399.228210 
	C284.080200,399.339539 278.317444,399.339539 272.554718,399.339539 
	C272.496521,398.748932 272.438324,398.158356 272.380127,397.567749 
	C274.261749,397.294678 276.135376,396.911224 278.026855,396.774689 
	C280.770935,396.576569 282.288269,395.494476 282.278809,392.476135 
	C282.222443,374.502411 282.251587,356.528381 282.229218,338.554504 
	C282.228729,338.155975 281.957520,337.757751 281.262238,335.846375 
	C274.545593,357.326172 268.235809,377.504852 261.926025,397.683502 
	C261.539307,397.739716 261.152588,397.795959 260.765869,397.852173 
	C258.080170,390.668549 255.394501,383.484955 252.422119,375.696655 
	C247.786194,362.992157 243.436966,350.892334 239.087753,338.792511 
	C238.673950,338.883728 238.260132,338.974915 237.846329,339.066132 
	C237.846329,340.499023 237.846176,341.931915 237.846359,343.364807 
	C237.848312,358.517090 237.838364,373.669342 237.857178,388.821625 
	C237.866959,396.688019 237.889938,396.687988 245.932068,397.057861 
	C244.890198,397.682770 243.867004,398.809021 242.803314,398.848663 
	C237.214218,399.056824 231.614899,398.990265 225.561310,398.956848 
	C226.696213,398.078705 228.231506,396.746552 229.894363,396.561615 
	C232.757248,396.243225 234.099884,395.174652 234.092911,392.228668 
	C234.044449,371.752228 234.043015,351.275635 234.051147,330.799103 
	C234.052475,327.476593 232.389450,325.996857 229.160004,325.820038 
	C227.623734,325.735962 226.108261,325.271881 224.583374,324.979919 
	C224.593460,324.321320 224.603531,323.662689 224.613617,323.004089 
	C228.738953,323.004089 232.914413,323.408752 236.977448,322.905609 
	C242.539108,322.216858 245.514282,324.059631 246.958282,329.626709 
	C248.201950,334.421295 250.480057,338.947571 252.592926,343.789459 
	C256.484711,354.772339 260.084412,365.558289 263.684082,376.344208 
	C264.117737,376.281250 264.551361,376.218292 264.985016,376.155334 
	C268.942444,363.829559 272.900024,351.503815 276.857056,339.177887 
	C277.162231,338.227356 277.434235,337.265045 277.772278,336.326416 
	C279.340088,331.973022 279.753448,326.106171 282.846954,323.720154 
	C285.726379,321.499237 291.466644,322.987396 296.400269,322.783691 
	C298.801636,322.946533 300.750244,323.168427 302.698883,323.390289 
	C302.724457,323.877655 302.750061,324.365021 302.775665,324.852386 
	C301.066986,325.218384 299.358337,325.584351 296.885529,326.046814 
	C295.153168,327.606537 293.539948,328.990845 293.349152,330.549316 
	C292.935028,333.931824 293.247711,337.403320 293.263245,340.838409 
z"/>
<path fill="#654F2C" opacity="1.000000" stroke="none" 
	d="
M130.851791,322.750977 
	C133.472565,322.963165 136.093353,323.175354 138.714127,323.387543 
	C138.752304,323.898163 138.790482,324.408783 138.828659,324.919434 
	C137.146042,325.222260 135.463425,325.525116 133.377640,325.930847 
	C129.461899,325.542938 129.253052,327.987762 129.210785,330.405670 
	C129.094421,337.065216 129.021851,343.726135 129.005936,350.386688 
	C128.975296,363.210358 128.988251,376.034149 128.997650,388.857910 
	C129.003159,396.374298 129.029434,396.373596 136.293091,396.914734 
	C137.331451,396.992065 138.353424,397.289398 139.299606,398.564453 
	C129.043350,398.564453 118.787102,398.564453 108.530853,398.564453 
	C108.479965,398.291870 108.429085,398.019257 108.378197,397.746674 
	C109.191040,397.471710 109.986412,397.038574 110.819466,396.946533 
	C118.197395,396.131836 118.210274,396.149658 118.213303,388.614288 
	C118.220261,371.308441 118.215515,354.002594 118.215515,336.696777 
	C117.800056,336.592010 117.384605,336.487274 116.969147,336.382507 
	C110.562492,356.810394 104.155838,377.238251 97.749184,397.666107 
	C97.321449,397.712799 96.893707,397.759460 96.465973,397.806152 
	C94.766624,393.068451 93.067276,388.330750 91.211899,382.871948 
	C85.610977,367.534790 80.166092,352.918762 74.721214,338.302734 
	C73.742813,340.623108 73.740807,342.583984 73.743126,344.544861 
	C73.761635,360.180206 73.873489,375.816406 73.734589,391.450348 
	C73.700127,395.328827 75.167877,397.005981 78.935081,396.915375 
	C80.097443,396.887390 81.262527,396.972321 82.426353,397.005554 
	C82.173340,397.607727 81.920334,398.209869 80.938072,398.814941 
	C73.881760,398.856293 67.554688,398.894714 61.227615,398.933105 
	C61.041233,398.510956 60.854855,398.088837 61.155212,397.339539 
	C69.757278,396.560547 70.004143,398.784210 69.998558,388.538239 
	C69.988503,370.096039 70.002457,351.653748 69.926338,333.211792 
	C69.919159,331.472565 69.343254,329.735687 69.031387,327.997711 
	C66.279259,326.721375 63.527130,325.445038 59.273132,323.472168 
	C63.364834,323.249481 66.188728,323.095795 69.440903,322.857971 
	C78.329781,321.288239 81.976654,325.467865 84.277657,333.283508 
	C87.319481,343.615448 91.721039,353.547058 95.862953,364.199585 
	C97.388527,368.735016 98.589302,372.721558 99.790070,376.708130 
	C105.098167,363.068970 109.378273,349.658051 113.692482,336.258087 
	C115.011635,332.160797 115.279091,326.612213 118.111259,324.422485 
	C121.038811,322.158966 126.499321,323.171509 130.851791,322.750977 
z"/>
<path fill="#66502B" opacity="1.000000" stroke="none" 
	d="
M464.111511,349.026306 
	C470.097717,349.020325 476.083954,349.014313 482.982971,349.025940 
	C486.596130,349.001740 489.296417,348.959930 491.996735,348.918152 
	C493.975677,348.998535 495.954620,349.078949 498.244751,349.547211 
	C489.898987,349.995911 488.091644,357.017120 485.610657,363.038300 
	C482.524139,370.528992 489.872986,375.331512 491.094055,382.393799 
	C493.531281,381.067291 495.661011,379.635468 496.503296,377.655792 
	C499.093353,371.568542 501.299713,365.308655 503.429810,359.039307 
	C504.385132,356.227539 504.804413,353.233643 505.525757,350.064026 
	C506.711609,349.986420 508.353333,349.878937 509.995026,349.771484 
	C510.162445,349.816071 510.329895,349.860687 510.719574,350.307343 
	C507.213623,360.046265 503.485474,369.383148 499.757324,378.720032 
	C496.851471,385.808075 493.945587,392.896118 491.039703,399.984161 
	C490.535645,399.996735 490.031586,400.009338 489.527527,400.021942 
	C487.896545,396.144623 486.276245,392.262787 484.629333,388.392273 
	C483.980408,386.867218 483.498749,385.197845 482.529053,383.902496 
	C481.507904,382.538300 480.117950,380.907074 478.650421,380.622253 
	C477.759705,380.449341 476.023132,382.410278 475.352295,383.754761 
	C473.505615,387.455933 472.049835,391.350433 470.378296,395.141510 
	C469.666046,396.756897 468.801605,398.305145 467.443207,401.001862 
	C464.695343,395.560089 462.458374,391.130096 460.119324,385.995544 
	C456.457733,376.392487 452.969116,367.464661 449.305145,358.609375 
	C447.758423,354.871246 447.629211,349.680298 440.483093,350.875916 
	C440.810333,350.367279 441.137543,349.858643 441.464783,349.350006 
	C443.643219,349.193787 445.821686,349.037567 448.000122,348.881348 
	C452.602478,349.039673 457.204834,349.197998 461.869385,349.885986 
	C460.360535,350.821167 458.789459,351.226624 456.236633,351.885468 
	C460.337128,362.459534 464.278320,372.750031 468.423401,382.957794 
	C468.644287,383.501831 470.975220,383.902466 471.657379,383.422516 
	C474.654297,381.313843 476.958405,370.948792 475.335785,367.516266 
	C472.240082,360.967560 471.173737,353.170502 464.111511,349.026306 
M479.067810,354.483154 
	C480.019897,356.870117 480.971985,359.257080 482.454895,362.974823 
	C484.374664,358.494202 485.734253,355.321045 487.448242,351.320709 
	C484.603455,351.183899 482.648682,350.808960 480.817169,351.132233 
	C480.021179,351.272766 479.478546,352.848602 479.067810,354.483154 
z"/>
<path fill="#654F2B" opacity="1.000000" stroke="none" 
	d="
M152.029587,330.501038 
	C152.390533,327.080627 151.042709,325.769989 148.123978,325.612061 
	C146.650955,325.532379 145.200134,325.042206 143.739273,324.737640 
	C143.784485,324.165863 143.829712,323.594086 143.874924,323.022308 
	C152.979050,323.022308 162.083160,323.022308 171.668045,323.008667 
	C171.963699,323.592987 171.778610,324.190918 170.931946,324.961578 
	C166.959015,325.426880 162.802856,324.581238 163.444565,330.200226 
	C163.444565,351.985199 163.444565,373.770203 163.444565,397.060638 
	C172.898590,396.190765 182.107376,395.730835 191.175613,394.348816 
	C195.846252,393.636963 197.279755,389.134918 198.097488,384.871643 
	C198.457062,382.997040 198.741302,381.107971 199.822601,379.282715 
	C202.185791,385.923157 201.217300,392.612274 201.017822,399.071960 
	C181.884125,399.071960 163.182419,399.071960 144.373260,399.071960 
	C144.535583,398.100067 144.516327,397.585632 144.643051,397.546722 
	C152.169418,395.236542 152.179092,395.240234 152.172394,386.941010 
	C152.157303,368.280884 152.132904,349.620789 152.029587,330.501038 
z"/>
<path fill="#B49E78" opacity="1.000000" stroke="none" 
	d="
M447.958527,348.575287 
	C445.821686,349.037567 443.643219,349.193787 441.464783,349.350006 
	C441.137543,349.858643 440.810333,350.367279 440.483093,350.875916 
	C447.629211,349.680298 447.758423,354.871246 449.305145,358.609375 
	C452.969116,367.464661 456.457733,376.392487 459.985931,385.663635 
	C453.285370,387.029327 446.616089,388.022400 439.549133,388.668091 
	C440.808350,382.787354 438.750336,378.469299 434.361664,375.309174 
	C431.157532,373.002014 427.538971,371.274506 424.132202,369.243286 
	C421.730835,367.811432 419.123138,366.588776 417.055847,364.764679 
	C413.713837,361.815796 414.173615,357.758148 415.553253,354.164246 
	C416.892151,350.676636 420.311737,350.527527 423.610199,350.751129 
	C428.047821,351.052002 430.243927,354.053619 431.962372,357.609467 
	C432.764099,359.268341 433.415558,360.999878 434.135132,362.698456 
	C434.417572,362.597046 434.700043,362.495605 434.982513,362.394165 
	C434.982513,357.612976 434.982513,352.831787 434.986389,347.743561 
	C434.989899,347.029022 434.989502,346.621490 434.989136,346.213989 
	C439.158844,345.395142 443.328522,344.576263 447.687683,344.031128 
	C447.890411,345.626343 447.903656,346.947784 447.958527,348.575287 
z"/>
<path fill="#B49E78" opacity="1.000000" stroke="none" 
	d="
M405.975189,396.021118 
	C402.374756,396.688721 398.774353,397.356323 394.703674,397.621887 
	C394.304077,382.678894 394.374695,368.137970 394.445343,353.597076 
	C400.435913,352.511749 406.426453,351.426392 412.618164,350.670197 
	C403.840210,358.975555 404.717377,367.971863 415.109039,373.943970 
	C418.282196,375.767578 421.583160,377.367523 424.778961,379.153381 
	C429.456909,381.767456 431.887726,385.569885 430.409363,391.081970 
	C424.591919,392.417908 419.192108,393.783600 413.486969,394.980499 
	C411.344818,390.916595 409.507996,387.021484 407.671173,383.126373 
	C407.297272,383.143524 406.923370,383.160706 406.549469,383.177856 
	C406.358063,387.458954 406.166626,391.740021 405.975189,396.021118 
z"/>
<path fill="#66502B" opacity="1.000000" stroke="none" 
	d="
M338.463074,363.774933 
	C338.314667,367.258270 338.110626,370.740387 338.033813,374.225311 
	C337.959961,377.574646 338.017822,380.926941 338.017822,384.277924 
	C337.544098,384.360016 337.070374,384.442139 336.596649,384.524231 
	C336.151489,382.765167 335.654480,381.017303 335.271484,379.244812 
	C334.322296,374.852325 327.594910,371.760986 323.987488,374.289673 
	C323.167389,374.864624 322.840149,376.572754 322.811371,377.771912 
	C322.687775,382.925781 322.856018,388.086792 322.722504,393.240173 
	C322.650421,396.021301 323.676239,397.249695 326.496368,397.022461 
	C328.150299,396.889160 329.821411,396.961487 331.484863,396.955170 
	C343.020721,396.911194 345.595367,395.429138 346.446350,385.674500 
	C346.479675,385.292542 347.027679,384.955505 348.530762,384.593719 
	C348.530762,389.137787 348.623962,393.686371 348.403381,398.219696 
	C348.378052,398.739532 346.595245,399.594971 345.635193,399.584320 
	C333.507904,399.449921 321.382019,399.188049 309.256378,398.928864 
	C309.037842,398.924225 308.827148,398.553070 308.107758,397.881378 
	C313.418304,397.752136 313.146942,394.305328 313.117035,390.758911 
	C313.023102,379.614197 313.091980,368.468201 313.076660,357.322723 
	C313.069000,351.747711 313.048187,351.747742 307.882050,349.133148 
	C316.267273,349.133148 324.652466,349.133148 333.502258,349.085968 
	C337.880829,349.038788 341.794861,349.038788 346.213409,349.038788 
	C346.574707,353.208527 346.910126,357.079620 347.319763,361.398865 
	C346.761536,362.346405 346.129120,362.845795 345.248322,362.787659 
	C341.101776,351.627930 340.813751,351.387238 331.899536,351.522278 
	C330.287415,351.307312 329.117401,351.325256 327.978546,351.145538 
	C323.299225,350.407318 321.779633,352.495697 322.159027,356.996460 
	C322.477966,360.780121 322.029114,364.629852 322.371277,368.409485 
	C322.479065,369.600098 323.879333,371.411987 324.972382,371.653687 
	C331.418610,373.079315 334.759521,370.496918 335.799927,363.502625 
	C336.334564,362.662262 336.775726,362.122711 337.216919,361.583160 
	C337.632294,362.313751 338.047668,363.044342 338.463074,363.774933 
z"/>
<path fill="#654F2B" opacity="1.000000" stroke="none" 
	d="
M394.435425,353.152649 
	C394.374695,368.137970 394.304077,382.678894 394.324829,397.691467 
	C393.130005,398.120789 391.843842,398.078430 390.275452,397.917694 
	C381.073425,385.345673 372.153595,372.892029 362.639801,359.609009 
	C362.639801,372.632568 362.639801,384.438141 362.817505,396.907593 
	C362.988739,397.954620 362.982300,398.337769 362.975830,398.720947 
	C361.598663,398.764893 360.221527,398.808838 358.428650,398.518066 
	C358.010834,397.794983 358.008698,397.406586 358.006592,397.018219 
	C358.332306,393.753632 358.898926,390.491852 358.936829,387.223907 
	C359.035156,378.745850 358.900909,370.265137 358.761902,361.314514 
	C358.046326,353.001068 358.046326,353.001068 350.780487,349.193176 
	C354.971497,349.193176 359.634430,348.044586 363.220093,349.517914 
	C366.768311,350.975800 369.229340,355.079865 372.533081,358.550079 
	C378.557770,366.918091 384.216614,374.759186 389.875458,382.600311 
	C390.262360,382.453918 390.649292,382.307526 391.036194,382.161102 
	C391.036194,372.784943 391.036194,363.408752 391.036194,354.032593 
	C391.028534,353.325745 391.020874,352.618896 390.973328,351.233154 
	C390.975128,350.113983 391.016815,349.673737 391.058502,349.233459 
	C392.095856,349.195923 393.133209,349.158356 394.571075,349.473938 
	C394.990021,350.235626 395.008453,350.644196 395.026855,351.052765 
	C394.826385,351.604584 394.625916,352.156433 394.435425,353.152649 
z"/>
<path fill="#654F2C" opacity="1.000000" stroke="none" 
	d="
M514.159485,350.044373 
	C516.827637,349.699097 519.495789,349.353821 523.029663,349.028900 
	C526.595520,348.999573 529.295715,348.949860 531.995850,348.900177 
	C537.647156,348.944794 543.308472,349.212891 548.946411,348.959686 
	C553.077209,348.774261 555.617676,349.471222 555.319824,354.419067 
	C555.145386,357.315399 555.764160,360.259491 556.026184,363.182098 
	C555.569824,363.338776 555.113464,363.495453 554.657104,363.652161 
	C554.093933,362.380981 553.393433,361.151733 552.990723,359.831635 
	C550.931824,353.081665 549.487976,351.947174 542.396912,351.743347 
	C531.059570,351.417480 531.059570,351.417450 531.059937,362.825531 
	C531.059937,363.324341 530.953613,363.851410 531.077515,364.317261 
	C531.761230,366.887299 528.976196,371.084198 534.601868,371.340057 
	C541.332520,371.646118 543.044617,370.584320 544.140076,364.851013 
	C544.361694,363.691254 544.868896,362.586060 545.244446,361.455688 
	C545.786987,361.503540 546.329590,361.551361 546.872192,361.599213 
	C546.872192,364.435699 546.872192,367.272156 546.799377,371.000854 
	C546.726562,375.898102 546.726562,379.903107 546.726562,383.908142 
	C546.240662,384.292175 545.754700,384.676178 545.268799,385.060181 
	C544.673279,375.387329 540.310547,371.554199 531.079773,374.633148 
	C531.079773,381.960083 531.079773,389.388367 531.058350,397.160645 
	C531.022827,397.963837 531.008728,398.423096 530.994629,398.882355 
	C527.963867,398.953888 524.933105,399.025421 521.453613,398.733887 
	C521.006470,397.972198 521.007996,397.573608 521.009521,397.175018 
	C521.282349,390.476532 521.555115,383.778046 521.856201,376.147217 
	C521.887817,370.565399 521.893066,365.915894 521.893799,361.266418 
	C521.895081,352.385773 521.893982,352.385773 514.159485,350.044373 
z"/>
<path fill="#66502B" opacity="1.000000" stroke="none" 
	d="
M430.826996,391.111694 
	C431.887726,385.569885 429.456909,381.767456 424.778961,379.153381 
	C421.583160,377.367523 418.282196,375.767578 415.109039,373.943970 
	C404.717377,367.971863 403.840210,358.975555 413.024384,350.750885 
	C416.551727,349.734924 419.874023,348.967407 423.883057,348.386810 
	C426.378235,349.055359 428.186646,349.536957 430.227600,350.233887 
	C431.296204,349.937378 432.132324,349.425537 433.212280,348.786316 
	C433.964874,348.456146 434.473694,348.253357 434.982513,348.050598 
	C434.982513,352.831787 434.982513,357.612976 434.982513,362.394165 
	C434.700043,362.495605 434.417572,362.597046 434.135132,362.698456 
	C433.415558,360.999878 432.764099,359.268341 431.962372,357.609467 
	C430.243927,354.053619 428.047821,351.052002 423.610199,350.751129 
	C420.311737,350.527527 416.892151,350.676636 415.553253,354.164246 
	C414.173615,357.758148 413.713837,361.815796 417.055847,364.764679 
	C419.123138,366.588776 421.730835,367.811432 424.132202,369.243286 
	C427.538971,371.274506 431.157532,373.002014 434.361664,375.309174 
	C438.750336,378.469299 440.808350,382.787354 439.145660,388.709412 
	C432.986084,400.166992 424.122559,402.436768 409.506134,396.498566 
	C408.810699,397.578491 408.083649,398.707550 406.775146,400.739502 
	C406.397736,398.762054 406.208557,397.770935 405.997314,396.400452 
	C406.166626,391.740021 406.358063,387.458954 406.549469,383.177856 
	C406.923370,383.160706 407.297272,383.143524 407.671173,383.126373 
	C409.507996,387.021484 411.344818,390.916595 413.739807,395.243408 
	C422.457947,400.220886 428.088257,398.666443 430.826996,391.111694 
z"/>
<path fill="#654F2B" opacity="1.000000" stroke="none" 
	d="
M614.825256,358.112946 
	C615.107666,351.855804 615.107666,351.855804 609.699585,349.626953 
	C620.721558,350.280487 631.972290,346.520752 643.074524,352.027222 
	C649.216614,359.972504 648.288208,365.290405 639.513794,370.084534 
	C637.776672,369.210876 636.775391,368.385773 635.897583,367.188721 
	C637.748962,362.087524 638.932129,357.426788 634.164673,353.186951 
	C627.419128,349.313446 624.414429,350.341431 624.269958,356.637207 
	C624.242493,361.874359 624.271667,366.661255 624.233948,371.904785 
	C624.137817,372.975586 624.108521,373.589813 624.079224,374.204041 
	C624.101562,374.608063 624.123901,375.012115 623.804199,376.030273 
	C623.639526,384.057892 623.816711,391.471375 623.993896,398.884888 
	C620.304199,398.950287 616.614441,399.015686 612.470215,398.781372 
	C612.076660,398.160004 612.082764,397.837341 612.452881,397.405762 
	C613.586182,396.023529 614.909180,394.754242 614.919800,393.474030 
	C615.017639,381.688080 614.888367,369.900238 614.825256,358.112946 
z"/>
<path fill="#66512C" opacity="1.000000" stroke="none" 
	d="
M575.911865,366.066589 
	C578.181458,360.299835 580.451050,354.533081 582.720642,348.766327 
	C583.167480,348.755829 583.614258,348.745331 584.061096,348.734833 
	C585.936340,353.017639 587.811584,357.300476 589.922974,362.220947 
	C594.796997,374.191498 599.434814,385.524414 604.066895,397.194031 
	C604.029907,397.978668 603.998596,398.426544 603.967285,398.874451 
	C600.617676,398.887665 597.268127,398.900879 593.324585,398.634277 
	C592.474365,397.877747 592.218079,397.401031 591.961853,396.924347 
	C590.792053,392.610077 589.724609,388.262085 588.327148,384.022888 
	C588.145996,383.473267 586.269714,383.318024 585.164490,383.262573 
	C572.355591,382.619659 571.726929,383.113220 568.821045,396.454895 
	C568.910217,397.709839 568.935791,398.266785 568.961426,398.823700 
	C566.951660,398.804535 564.941895,398.785400 562.503784,398.456818 
	C562.060425,397.801727 562.045288,397.456085 562.351807,396.958252 
	C563.765259,395.209015 565.190247,393.745422 565.892639,391.992340 
	C569.337891,383.392700 572.590881,374.716034 575.911865,366.066589 
M576.996643,381.086609 
	C580.343018,381.086609 583.689392,381.086609 587.827393,381.086609 
	C585.431396,374.889618 583.434753,369.725403 581.438049,364.561188 
	C580.941101,364.633148 580.444153,364.705139 579.947205,364.777100 
	C578.136963,369.518433 576.270325,374.240234 574.609009,379.033203 
	C574.453308,379.482391 575.593262,380.380737 576.996643,381.086609 
z"/>
<path fill="#B59F7A" opacity="1.000000" stroke="none" 
	d="
M68.767494,328.243286 
	C69.343254,329.735687 69.919159,331.472565 69.926338,333.211792 
	C70.002457,351.653748 69.988503,370.096039 69.998558,388.538239 
	C70.004143,398.784210 69.757278,396.560547 61.169502,396.982117 
	C59.845291,394.192596 58.637844,391.488403 58.201084,388.664978 
	C55.856655,373.509399 59.459629,359.058289 63.737076,344.708771 
	C65.346878,339.308350 66.915955,333.895844 68.767494,328.243286 
z"/>
<path fill="#B09A75" opacity="1.000000" stroke="none" 
	d="
M82.711914,396.882355 
	C81.262527,396.972321 80.097443,396.887390 78.935081,396.915375 
	C75.167877,397.005981 73.700127,395.328827 73.734589,391.450348 
	C73.873489,375.816406 73.761635,360.180206 73.743126,344.544861 
	C73.740807,342.583984 73.742813,340.623108 74.721214,338.302734 
	C80.166092,352.918762 85.610977,367.534790 91.073166,382.520020 
	C89.324188,385.960876 87.567360,389.038055 85.787666,392.101929 
	C84.878769,393.666656 83.928856,395.207520 82.711914,396.882355 
z"/>
<path fill="#B49E78" opacity="1.000000" stroke="none" 
	d="
M246.093689,396.745789 
	C237.889938,396.687988 237.866959,396.688019 237.857178,388.821625 
	C237.838364,373.669342 237.848312,358.517090 237.846359,343.364807 
	C237.846176,341.931915 237.846329,340.499023 237.846329,339.066132 
	C238.260132,338.974915 238.673950,338.883728 239.087753,338.792511 
	C243.436966,350.892334 247.786194,362.992157 252.125641,375.474579 
	C251.714310,377.550964 250.858704,379.281769 250.993088,380.931915 
	C251.469955,386.786713 250.037231,391.938721 246.093689,396.745789 
z"/>
<path fill="#B49E78" opacity="1.000000" stroke="none" 
	d="
M513.765076,350.031311 
	C521.893982,352.385773 521.895081,352.385773 521.893799,361.266418 
	C521.893066,365.915894 521.887817,370.565399 521.818481,375.690857 
	C514.708618,377.034180 507.664856,377.901550 500.189209,378.744476 
	C503.485474,369.383148 507.213623,360.046265 510.975464,350.353088 
	C511.796326,350.003937 512.583496,350.011108 513.765076,350.031311 
z"/>
<path fill="#6A5532" opacity="1.000000" stroke="none" 
	d="
M635.774170,367.560699 
	C636.775391,368.385773 637.776672,369.210876 639.183838,370.119598 
	C637.992920,370.986084 636.395935,371.768921 633.372620,373.250977 
	C648.005981,375.911621 644.198486,389.050323 648.775269,398.761658 
	C649.674133,396.975983 649.795532,396.370605 650.164978,396.072632 
	C651.075806,395.337982 652.037781,394.507416 653.113464,394.222900 
	C653.489014,394.123566 654.863281,395.677917 654.723267,396.184631 
	C654.413818,397.304321 653.658020,398.659119 652.688232,399.178558 
	C647.183655,402.127014 638.743164,397.903320 636.840393,391.208557 
	C636.119324,388.671661 635.971375,385.969360 635.592834,383.338074 
	C634.511230,375.818909 632.597473,374.139038 624.470764,374.080872 
	C624.108521,373.589813 624.137817,372.975586 624.597778,371.955627 
	C628.610413,370.220123 632.192261,368.890411 635.774170,367.560699 
z"/>
<path fill="#B49E78" opacity="1.000000" stroke="none" 
	d="
M390.654846,354.145050 
	C391.036194,363.408752 391.036194,372.784943 391.036194,382.161102 
	C390.649292,382.307526 390.262360,382.453918 389.875458,382.600311 
	C384.216614,374.759186 378.557770,366.918091 372.808533,358.758789 
	C378.569916,357.046265 384.421722,355.651886 390.654846,354.145050 
z"/>
<path fill="#FCF7EA" opacity="1.000000" stroke="none" 
	d="
M402.369171,144.906281 
	C406.835999,146.319397 411.042908,147.389648 414.979645,149.086670 
	C418.843811,150.752380 421.797913,149.256134 424.662964,147.186035 
	C431.373444,142.337524 439.005615,140.765472 447.493073,141.283356 
	C445.449646,142.275818 443.406830,143.269577 441.362640,144.260513 
	C434.834534,147.425034 428.337738,150.657578 421.751129,153.695389 
	C420.398987,154.319046 418.376038,154.892334 417.232361,154.329819 
	C411.076172,151.301956 405.099915,147.908340 398.681061,144.435074 
	C399.830078,144.574890 400.910522,144.706360 402.369171,144.906281 
z"/>
<path fill="#6A5532" opacity="1.000000" stroke="none" 
	d="
M531.455261,398.978210 
	C531.008728,398.423096 531.022827,397.963837 531.514038,397.238617 
	C536.605652,396.890900 541.220520,396.728760 545.834595,396.748596 
	C551.056580,396.771057 553.664124,394.019257 554.474548,389.107727 
	C554.736938,387.516998 555.145752,385.950409 555.487610,384.372803 
	C555.979065,384.439148 556.470459,384.505524 556.961914,384.571869 
	C556.961914,388.742340 556.961914,392.912842 556.930054,397.365631 
	C556.914429,398.025909 556.930725,398.403900 556.947021,398.781860 
	C548.603333,398.879242 540.259644,398.976654 531.455261,398.978210 
z"/>
<path fill="#B49E78" opacity="1.000000" stroke="none" 
	d="
M500.630737,335.041931 
	C499.848267,337.552887 498.725128,340.038788 497.535034,342.492188 
	C497.340057,342.894104 496.904755,343.282745 496.488312,343.456482 
	C494.360596,344.344025 487.802673,340.460236 487.006714,337.509277 
	C491.425598,336.423370 495.846649,335.714722 500.630737,335.041931 
z"/>
<path fill="#FCF7EA" opacity="1.000000" stroke="none" 
	d="
M384.249725,135.327393 
	C380.533966,136.969864 377.515747,137.583282 374.504303,134.287811 
	C373.295105,132.964584 370.707947,132.900604 368.757751,131.231506 
	C375.913635,131.231506 383.069519,131.231506 390.225403,131.231506 
	C390.333313,131.645157 390.441254,132.058807 390.549164,132.472443 
	C388.567719,133.371323 386.586243,134.270203 384.249725,135.327393 
z"/>
<path fill="#FCF7EA" opacity="1.000000" stroke="none" 
	d="
M51.782867,306.872742 
	C54.160923,306.449280 56.180168,306.247253 58.756863,305.989502 
	C54.817513,311.954224 43.653107,313.414124 36.363342,308.838898 
	C41.991692,308.186890 46.707870,307.640564 51.782867,306.872742 
z"/>
<path fill="#806C4A" opacity="1.000000" stroke="none" 
	d="
M61.354637,399.243347 
	C67.554688,398.894714 73.881760,398.856293 80.612114,398.913849 
	C80.927933,399.147186 80.871361,399.327911 80.748444,399.415649 
	C78.216103,401.222168 64.206139,401.315704 61.354637,399.243347 
z"/>
<path fill="#6A5532" opacity="1.000000" stroke="none" 
	d="
M624.394958,398.717590 
	C623.816711,391.471375 623.639526,384.057892 623.725769,376.324158 
	C624.258179,383.519348 624.527100,391.034821 624.394958,398.717590 
z"/>
<path fill="#B49E78" opacity="1.000000" stroke="none" 
	d="
M471.565857,340.034607 
	C470.032349,342.948090 467.743011,344.583984 463.879822,343.565796 
	C461.113190,342.836639 458.110962,343.001465 455.111084,342.416016 
	C460.385223,341.377502 465.762115,340.690430 471.565857,340.034607 
z"/>
<path fill="#BEAA86" opacity="1.000000" stroke="none" 
	d="
M163.796051,330.157043 
	C162.802856,324.581238 166.959015,325.426880 170.686768,325.162262 
	C168.784607,326.831451 166.466080,328.472656 163.796051,330.157043 
z"/>
<path fill="#806C4A" opacity="1.000000" stroke="none" 
	d="
M591.544922,396.910645 
	C592.218079,397.401031 592.474365,397.877747 592.869751,398.588440 
	C590.250671,398.988251 587.492493,399.154022 584.734314,399.319794 
	C584.709412,398.748657 584.684448,398.177521 584.659546,397.606384 
	C586.815674,397.369934 588.971802,397.133453 591.544922,396.910645 
z"/>
<path fill="#806C4A" opacity="1.000000" stroke="none" 
	d="
M569.286011,398.934204 
	C568.935791,398.266785 568.910217,397.709839 568.842285,396.876831 
	C570.835999,396.881409 572.871948,397.162109 574.907898,397.442810 
	C574.957642,397.869049 575.007385,398.295319 575.057068,398.721588 
	C573.241577,398.829285 571.426086,398.936981 569.286011,398.934204 
z"/>
<path fill="#806C4A" opacity="1.000000" stroke="none" 
	d="
M604.317383,398.976440 
	C603.998596,398.426544 604.029907,397.978668 604.509827,397.219025 
	C607.316956,397.109406 609.675415,397.311523 612.033936,397.513611 
	C612.082764,397.837341 612.076660,398.160004 612.013062,398.724487 
	C609.562805,399.004395 607.115173,399.041443 604.317383,398.976440 
z"/>
<path fill="#B09A75" opacity="1.000000" stroke="none" 
	d="
M429.995087,350.018555 
	C428.186646,349.536957 426.378235,349.055359 424.287689,348.377747 
	C426.154541,347.683716 428.303497,347.185669 430.590240,347.143311 
	C430.483704,348.405487 430.239410,349.212006 429.995087,350.018555 
z"/>
<path fill="#806C4A" opacity="1.000000" stroke="none" 
	d="
M390.647888,349.131805 
	C391.016815,349.673737 390.975128,350.113983 390.904602,350.884766 
	C388.815155,351.075745 386.754486,350.936218 384.693848,350.796692 
	C384.660309,350.381378 384.626770,349.966095 384.593231,349.550812 
	C386.474579,349.377228 388.355957,349.203674 390.647888,349.131805 
z"/>
<path fill="#806C4A" opacity="1.000000" stroke="none" 
	d="
M395.425537,351.083771 
	C395.008453,350.644196 394.990021,350.235626 394.958252,349.520447 
	C396.729889,349.213867 398.514893,349.213867 400.299896,349.213867 
	C400.297028,349.774750 400.294159,350.335663 400.291290,350.896545 
	C398.802246,350.969299 397.313202,351.042023 395.425537,351.083771 
z"/>
<path fill="#B49E78" opacity="1.000000" stroke="none" 
	d="
M430.227600,350.233887 
	C430.239410,349.212006 430.483704,348.405487 430.859070,347.308258 
	C431.418732,346.943848 431.847382,346.870148 432.620178,347.140320 
	C432.965698,347.960724 432.967072,348.437225 432.968475,348.913696 
	C432.132324,349.425537 431.296204,349.937378 430.227600,350.233887 
z"/>
<path fill="#806C4A" opacity="1.000000" stroke="none" 
	d="
M557.377625,398.826233 
	C556.930725,398.403900 556.914429,398.025909 557.346680,397.454651 
	C559.206848,397.211029 560.618530,397.160736 562.030212,397.110443 
	C562.045288,397.456085 562.060425,397.801727 562.076172,398.406799 
	C560.653992,398.734375 559.231079,398.802490 557.377625,398.826233 
z"/>
<path fill="#6A5532" opacity="1.000000" stroke="none" 
	d="
M520.655457,397.186798 
	C521.007996,397.573608 521.006470,397.972198 521.003296,398.669769 
	C519.933899,399.022125 518.866150,399.075531 517.390991,398.746368 
	C516.954895,398.182556 516.926331,398.001282 516.897705,397.820007 
	C518.032288,397.612854 519.166809,397.405701 520.655457,397.186798 
z"/>
<path fill="#B49E78" opacity="1.000000" stroke="none" 
	d="
M478.725372,338.072754 
	C478.706421,338.796967 478.412842,339.600464 478.119263,340.403992 
	C477.790588,340.151276 477.461945,339.898560 477.070984,339.361511 
	C477.489349,338.768799 477.970032,338.460419 478.725372,338.072754 
z"/>
<path fill="#B09A75" opacity="1.000000" stroke="none" 
	d="
M433.212280,348.786316 
	C432.967072,348.437225 432.965698,347.960724 432.946136,347.124298 
	C433.429199,346.555695 433.930450,346.346985 434.710449,346.176147 
	C434.989502,346.621490 434.989899,347.029022 434.986389,347.743530 
	C434.473694,348.253357 433.964874,348.456146 433.212280,348.786316 
z"/>
<path fill="#B49E78" opacity="1.000000" stroke="none" 
	d="
M506.701050,333.132568 
	C506.402618,333.516602 505.818207,333.885132 505.060150,334.030426 
	C505.395996,333.577118 505.905548,333.347046 506.701050,333.132568 
z"/>
<path fill="#806C4A" opacity="1.000000" stroke="none" 
	d="
M516.652405,397.907410 
	C516.926331,398.001282 516.954895,398.182556 517.002319,398.638306 
	C516.816467,398.606842 516.611755,398.300812 516.652405,397.907410 
z"/>
<path fill="#EFDCBA" opacity="1.000000" stroke="none" 
	d="
M130.866257,322.337402 
	C126.499321,323.171509 121.038811,322.158966 118.111259,324.422485 
	C115.279091,326.612213 115.011635,332.160797 113.692482,336.258087 
	C109.378273,349.658051 105.098167,363.068970 99.790070,376.708130 
	C98.589302,372.721558 97.388527,368.735016 96.192497,364.359741 
	C97.123825,362.291687 98.359497,360.710754 98.930458,358.918091 
	C107.000366,333.581024 114.975876,308.213928 122.990891,282.859344 
	C123.523285,281.175201 124.189911,279.533508 124.794106,277.872070 
	C125.242279,277.880096 125.690460,277.888153 126.138641,277.896210 
	C127.719337,292.572083 129.300034,307.247986 130.866257,322.337402 
z"/>
<path fill="#EFDCBA" opacity="1.000000" stroke="none" 
	d="
M338.825195,363.784637 
	C338.047668,363.044342 337.632294,362.313751 337.216919,361.583160 
	C336.775726,362.122711 336.334564,362.662262 335.396240,363.577576 
	C331.950775,364.547913 330.481201,363.632812 331.055786,360.370361 
	C331.564575,357.481628 331.928223,354.567322 332.355957,351.664307 
	C340.813751,351.387238 341.101776,351.627930 345.003479,362.617371 
	C343.067078,363.267914 341.127197,363.531128 338.825195,363.784637 
z"/>
<path fill="#EAD8B5" opacity="1.000000" stroke="none" 
	d="
M293.579834,340.692108 
	C293.247711,337.403320 292.935028,333.931824 293.349152,330.549316 
	C293.539948,328.990845 295.153168,327.606537 296.492981,326.174988 
	C295.875214,330.986420 294.885834,335.766113 293.579834,340.692108 
z"/>
<path fill="#6A5532" opacity="1.000000" stroke="none" 
	d="
M363.373413,398.816589 
	C362.982300,398.337769 362.988739,397.954620 362.998749,397.283264 
	C364.759247,397.093109 366.516174,397.191132 368.273102,397.289185 
	C368.310150,397.720337 368.347198,398.151520 368.384247,398.582672 
	C366.846466,398.692535 365.308716,398.802368 363.373413,398.816589 
z"/>
<path fill="#6A5532" opacity="1.000000" stroke="none" 
	d="
M357.600830,397.016479 
	C358.008698,397.406586 358.010834,397.794983 358.016785,398.473511 
	C356.240845,398.846008 354.461029,398.928406 352.681183,399.010773 
	C352.617249,398.557800 352.553314,398.104858 352.489380,397.651917 
	C354.057983,397.439514 355.626556,397.227112 357.600830,397.016479 
z"/>
<path fill="#EFDCBA" opacity="1.000000" stroke="none" 
	d="
M562.351807,396.958252 
	C560.618530,397.160736 559.206848,397.211029 557.378540,397.172302 
	C556.961914,392.912842 556.961914,388.742340 556.961914,384.571869 
	C556.470459,384.505524 555.979065,384.439148 555.487610,384.372803 
	C555.145752,385.950409 554.736938,387.516998 554.474548,389.107727 
	C553.664124,394.019257 551.056580,396.771057 545.834595,396.748596 
	C541.220520,396.728760 536.605652,396.890900 531.535461,396.894653 
	C531.079773,389.388367 531.079773,381.960083 531.079773,374.633148 
	C540.310547,371.554199 544.673279,375.387329 545.268799,385.060181 
	C545.754700,384.676178 546.240662,384.292175 546.726562,383.908142 
	C546.726562,379.903107 546.726562,375.898102 546.859375,371.443756 
	C556.357239,369.354187 565.722351,367.713928 575.499634,366.070129 
	C572.590881,374.716034 569.337891,383.392700 565.892639,391.992340 
	C565.190247,393.745422 563.765259,395.209015 562.351807,396.958252 
z"/>
<path fill="#EFDCBA" opacity="1.000000" stroke="none" 
	d="
M612.452881,397.405762 
	C609.675415,397.311523 607.316956,397.109406 604.515503,396.882324 
	C599.434814,385.524414 594.796997,374.191498 590.174927,362.496399 
	C596.666565,360.982574 603.140869,359.821136 609.619873,358.686829 
	C611.073486,358.432343 612.543640,358.272888 614.415771,358.091309 
	C614.888367,369.900238 615.017639,381.688080 614.919800,393.474030 
	C614.909180,394.754242 613.586182,396.023529 612.452881,397.405762 
z"/>
<path fill="#B49E78" opacity="1.000000" stroke="none" 
	d="
M509.857330,349.418671 
	C508.353333,349.878937 506.711609,349.986420 505.525757,350.064026 
	C504.804413,353.233643 504.385132,356.227539 503.429810,359.039307 
	C501.299713,365.308655 499.093353,371.568542 496.503296,377.655792 
	C495.661011,379.635468 493.531281,381.067291 491.094055,382.393799 
	C489.872986,375.331512 482.524139,370.528992 485.610657,363.038300 
	C488.091644,357.017120 489.898987,349.995911 498.662964,349.611023 
	C502.419861,349.213257 506.069763,349.139557 509.857330,349.418671 
z"/>
<path fill="#B49E78" opacity="1.000000" stroke="none" 
	d="
M463.898132,349.091187 
	C471.173737,353.170502 472.240082,360.967560 475.335785,367.516266 
	C476.958405,370.948792 474.654297,381.313843 471.657379,383.422516 
	C470.975220,383.902466 468.644287,383.501831 468.423401,382.957794 
	C464.278320,372.750031 460.337128,362.459534 456.236633,351.885468 
	C458.789459,351.226624 460.360535,350.821167 462.252625,350.121857 
	C462.944061,349.604034 463.314423,349.380035 463.898132,349.091187 
z"/>
<path fill="#EAD8B5" opacity="1.000000" stroke="none" 
	d="
M643.112183,300.052368 
	C642.318787,298.098083 641.600159,296.529358 640.881592,294.960632 
	C641.145142,294.692078 641.408752,294.423492 641.672302,294.154907 
	C644.046570,295.992065 646.606812,297.651642 648.657043,299.798218 
	C649.135681,300.299316 648.248657,303.307739 647.359558,303.687714 
	C644.636658,304.851440 643.673157,302.727997 643.112183,300.052368 
z"/>
<path fill="#EAD8B5" opacity="1.000000" stroke="none" 
	d="
M641.692932,285.442261 
	C641.505127,282.915466 641.505127,280.696808 641.505127,278.478180 
	C642.186157,278.440094 642.867249,278.401978 643.548279,278.363892 
	C644.399048,281.314087 645.249756,284.264282 646.100464,287.214508 
	C645.657715,287.511139 645.214905,287.807739 644.772156,288.104370 
	C643.808350,287.319733 642.844543,286.535065 641.692932,285.442261 
z"/>
<path fill="#B49E78" opacity="1.000000" stroke="none" 
	d="
M531.876160,348.540222 
	C529.295715,348.949860 526.595520,348.999573 523.449463,348.983459 
	C525.660767,345.580109 528.694519,346.713074 531.876160,348.540222 
z"/>
<path fill="#B49E78" opacity="1.000000" stroke="none" 
	d="
M491.878540,348.556335 
	C489.296417,348.959930 486.596130,349.001740 483.449524,348.981384 
	C485.666229,345.583282 488.697723,346.700867 491.878540,348.556335 
z"/>
<path fill="#B09A75" opacity="1.000000" stroke="none" 
	d="
M478.944336,354.127869 
	C479.478546,352.848602 480.021179,351.272766 480.817169,351.132233 
	C482.648682,350.808960 484.603455,351.183899 487.448242,351.320709 
	C485.734253,355.321045 484.374664,358.494202 482.454895,362.974823 
	C480.971985,359.257080 480.019897,356.870117 478.944336,354.127869 
z"/>
<path fill="#EAD8B5" opacity="1.000000" stroke="none" 
	d="
M430.409363,391.081970 
	C428.088257,398.666443 422.457947,400.220886 414.045166,395.412201 
	C419.192108,393.783600 424.591919,392.417908 430.409363,391.081970 
z"/>
<path fill="#B09A75" opacity="1.000000" stroke="none" 
	d="
M331.899536,351.522278 
	C331.928223,354.567322 331.564575,357.481628 331.055786,360.370361 
	C330.481201,363.632812 331.950775,364.547913 335.302765,363.878357 
	C334.759521,370.496918 331.418610,373.079315 324.972382,371.653687 
	C323.879333,371.411987 322.479065,369.600098 322.371277,368.409485 
	C322.029114,364.629852 322.477966,360.780121 322.159027,356.996460 
	C321.779633,352.495697 323.299225,350.407318 327.978546,351.145538 
	C329.117401,351.325256 330.287415,351.307312 331.899536,351.522278 
z"/>
<path fill="#EFDCBA" opacity="1.000000" stroke="none" 
	d="
M635.897583,367.188721 
	C632.192261,368.890411 628.610413,370.220123 624.664673,371.499023 
	C624.271667,366.661255 624.242493,361.874359 624.641479,356.551086 
	C628.162354,355.173218 631.255066,354.331696 634.347717,353.490173 
	C638.932129,357.426788 637.748962,362.087524 635.897583,367.188721 
z"/>
<path fill="#B59F7A" opacity="1.000000" stroke="none" 
	d="
M634.164673,353.186951 
	C631.255066,354.331696 628.162354,355.173218 624.698120,356.100861 
	C624.414429,350.341431 627.419128,349.313446 634.164673,353.186951 
z"/>
<path fill="#EAD8B5" opacity="1.000000" stroke="none" 
	d="
M576.564148,381.078583 
	C575.593262,380.380737 574.453308,379.482391 574.609009,379.033203 
	C576.270325,374.240234 578.136963,369.518433 579.947205,364.777100 
	C580.444153,364.705139 580.941101,364.633148 581.438049,364.561188 
	C583.434753,369.725403 585.431396,374.889618 587.827393,381.086609 
	C583.689392,381.086609 580.343018,381.086609 576.564148,381.078583 
z"/>
</svg>