<?xml version="1.0" standalone="no"?>
<!DOCTYPE svg PUBLIC "-//W3C//DTD SVG 20010904//EN"
 "http://www.w3.org/TR/2001/REC-SVG-20010904/DTD/svg10.dtd">
<svg version="1.0" xmlns="http://www.w3.org/2000/svg"
 width="4655.000000pt" height="4655.000000pt" viewBox="0 0 4655.000000 4655.000000"
 preserveAspectRatio="xMidYMid meet">

<g transform="translate(0.000000,4655.000000) scale(0.100000,-0.100000)"
fill="#000000" stroke="none">
<path d="M0 23275 l0 -23275 23275 0 23275 0 0 23275 0 23275 -23275 0 -23275
0 0 -23275z m22962 12855 c51 -5 210 -10 353 -10 439 0 1015 -31 1405 -76 252
-28 360 -42 430 -53 36 -6 99 -15 140 -21 41 -6 100 -15 130 -20 30 -5 89 -14
130 -20 41 -6 104 -18 140 -25 36 -7 94 -19 130 -25 134 -23 207 -38 320 -64
30 -8 82 -19 115 -26 33 -6 76 -16 95 -20 19 -5 103 -25 185 -45 83 -19 166
-40 185 -45 19 -5 69 -19 110 -31 41 -11 100 -27 130 -35 30 -9 89 -26 130
-39 41 -12 95 -28 120 -35 25 -7 54 -16 65 -20 11 -4 135 -45 275 -91 140 -45
262 -86 270 -90 8 -4 49 -19 90 -34 41 -15 84 -30 95 -35 11 -4 65 -25 120
-45 55 -20 119 -45 142 -56 24 -10 46 -19 49 -19 3 0 22 -7 42 -16 21 -9 46
-19 57 -24 28 -11 62 -25 125 -53 30 -13 69 -30 85 -37 78 -33 208 -91 280
-125 44 -20 121 -55 170 -78 92 -42 501 -248 565 -284 19 -11 71 -40 115 -64
44 -24 89 -49 100 -56 11 -7 27 -15 35 -20 26 -12 251 -143 380 -221 248 -150
672 -430 876 -579 102 -74 412 -309 444 -336 8 -7 33 -26 55 -42 155 -117 637
-535 880 -764 273 -258 733 -738 920 -959 17 -20 57 -68 91 -106 54 -64 145
-175 299 -366 158 -197 388 -512 596 -815 187 -273 447 -699 659 -1080 108
-195 358 -690 443 -880 25 -55 57 -126 71 -157 14 -31 26 -59 26 -62 0 -3 13
-33 29 -68 16 -35 36 -82 45 -105 8 -23 25 -64 37 -90 11 -26 25 -57 29 -68 4
-11 15 -36 23 -55 9 -20 36 -92 61 -160 25 -69 50 -134 55 -145 13 -27 92
-249 126 -350 14 -44 30 -89 35 -100 4 -11 29 -87 55 -170 26 -82 50 -161 55
-175 9 -27 75 -253 90 -310 5 -19 20 -73 34 -120 13 -47 27 -98 30 -115 4 -16
11 -46 16 -65 5 -19 16 -64 25 -100 8 -36 20 -82 25 -102 17 -64 27 -109 49
-213 12 -55 28 -129 36 -165 9 -36 19 -87 24 -115 11 -63 46 -255 66 -360 9
-44 20 -109 25 -145 5 -36 14 -94 19 -130 6 -36 15 -105 21 -155 6 -49 15
-106 20 -125 6 -19 10 -52 10 -74 0 -21 4 -66 10 -100 11 -70 25 -206 40 -386
6 -69 15 -172 21 -230 22 -244 34 -605 34 -1055 0 -584 -10 -782 -65 -1375
-27 -289 -45 -446 -55 -480 -3 -8 -10 -55 -16 -105 -6 -49 -15 -115 -19 -145
-5 -30 -13 -86 -19 -125 -6 -38 -17 -106 -26 -150 -8 -44 -20 -109 -26 -145
-6 -36 -15 -85 -20 -110 -4 -25 -13 -67 -18 -95 -9 -46 -29 -140 -51 -240 -4
-22 -13 -62 -18 -90 -6 -27 -22 -97 -36 -155 -40 -162 -47 -192 -53 -233 -3
-20 -9 -40 -14 -43 -5 -3 -9 -14 -9 -24 0 -11 -6 -39 -13 -62 -8 -24 -19 -68
-26 -98 -7 -30 -16 -66 -20 -80 -5 -14 -13 -41 -18 -60 -12 -41 -28 -93 -84
-280 -23 -74 -49 -162 -59 -195 -10 -33 -30 -94 -44 -135 -15 -41 -49 -142
-77 -225 -28 -82 -54 -159 -59 -170 -5 -11 -25 -65 -45 -120 -20 -55 -41 -109
-46 -120 -4 -11 -25 -63 -44 -115 -20 -52 -47 -119 -61 -148 -13 -29 -24 -55
-24 -57 0 -7 -142 -338 -185 -430 -20 -44 -46 -100 -57 -125 -44 -97 -292
-591 -348 -695 -33 -60 -63 -117 -67 -125 -4 -8 -26 -48 -50 -88 -24 -41 -43
-75 -43 -77 0 -9 -156 -270 -284 -475 -233 -374 -530 -804 -753 -1090 -6 -8
-42 -54 -80 -102 -37 -47 -88 -112 -113 -144 -42 -54 -98 -122 -138 -169 -10
-11 -40 -47 -67 -80 -28 -33 -52 -62 -55 -65 -3 -3 -48 -54 -100 -115 -52 -60
-111 -127 -130 -149 -19 -21 -46 -50 -59 -65 -391 -432 -995 -1004 -1436
-1361 -44 -35 -82 -67 -85 -70 -3 -3 -45 -37 -95 -75 -49 -38 -92 -71 -95 -75
-3 -3 -39 -31 -80 -62 -80 -60 -189 -142 -205 -156 -14 -11 -236 -170 -298
-213 -454 -311 -957 -623 -1292 -799 -38 -21 -140 -74 -225 -120 -85 -45 -218
-113 -295 -150 -240 -116 -354 -170 -359 -170 -2 0 -43 -18 -90 -40 -47 -22
-88 -40 -90 -40 -3 0 -33 -13 -68 -29 -81 -37 -359 -151 -369 -151 -5 0 -32
-11 -61 -24 -135 -62 -692 -257 -948 -333 -30 -8 -64 -19 -75 -23 -11 -4 -38
-13 -60 -19 -22 -6 -74 -20 -115 -32 -41 -11 -91 -25 -110 -31 -19 -5 -51 -13
-70 -18 -19 -4 -78 -20 -130 -34 -52 -15 -108 -29 -125 -32 -16 -3 -41 -9 -55
-14 -14 -4 -52 -13 -85 -20 -55 -12 -110 -25 -205 -50 -19 -5 -120 -25 -225
-45 -104 -19 -204 -40 -221 -45 -17 -6 -42 -10 -57 -10 -15 0 -46 -5 -69 -10
-53 -13 -260 -49 -348 -60 -36 -5 -100 -14 -142 -20 -156 -21 -235 -30 -343
-40 -60 -6 -117 -13 -125 -16 -8 -3 -67 -10 -130 -15 -904 -75 -1646 -74
-2510 1 -63 6 -133 12 -155 15 -22 3 -96 12 -165 20 -114 14 -178 22 -310 41
-25 3 -72 9 -105 14 -33 4 -112 17 -175 28 -63 12 -146 26 -185 32 -38 6 -86
15 -105 20 -19 5 -73 16 -120 25 -47 9 -103 21 -125 25 -22 5 -56 12 -75 15
-72 12 -128 24 -230 49 -58 15 -123 30 -145 35 -113 26 -302 75 -317 82 -10 5
-27 9 -37 9 -11 0 -30 4 -43 9 -13 5 -50 17 -83 26 -33 9 -71 20 -85 25 -14 4
-45 13 -70 20 -102 29 -206 62 -222 71 -10 5 -27 9 -38 9 -11 0 -28 4 -38 9
-9 5 -69 26 -132 47 -63 20 -156 52 -205 70 -50 19 -96 34 -103 34 -7 0 -20 4
-30 9 -9 6 -62 26 -117 46 -102 37 -114 42 -175 68 -19 8 -73 29 -120 46 -47
18 -93 37 -102 41 -9 5 -54 25 -100 44 -98 40 -241 101 -283 121 -243 111
-301 138 -460 217 -236 117 -455 233 -635 335 -19 11 -109 64 -200 118 -91 54
-174 103 -185 109 -21 11 -165 102 -359 227 -211 136 -578 397 -842 600 -39
30 -88 67 -110 84 -35 27 -273 220 -334 272 -128 108 -335 286 -375 323 -27
26 -86 80 -130 121 -131 121 -634 626 -741 744 -54 60 -124 136 -155 170 -31
33 -83 92 -115 130 -32 39 -61 72 -64 75 -24 23 -303 363 -406 495 -157 203
-351 469 -452 620 -36 55 -69 102 -72 105 -3 3 -39 57 -80 120 -41 63 -78 116
-82 118 -5 2 -8 8 -8 14 0 6 -11 26 -25 44 -14 18 -25 35 -25 37 0 3 -31 55
-70 116 -38 60 -70 115 -70 120 0 6 -4 11 -10 11 -5 0 -10 4 -10 10 0 5 -20
42 -44 82 -67 112 -154 265 -199 348 -22 41 -43 80 -47 85 -8 10 -60 107 -139
260 -20 39 -39 71 -43 73 -5 2 -8 9 -8 15 0 6 -42 96 -94 201 -107 218 -136
281 -136 295 0 6 -4 11 -10 11 -5 0 -10 6 -10 13 0 7 -8 31 -19 53 -10 21 -28
60 -40 87 -11 26 -30 67 -41 91 -11 24 -40 95 -66 157 -25 63 -54 132 -64 154
-31 71 -87 216 -145 375 -31 85 -60 164 -65 175 -27 66 -130 372 -170 505 -12
41 -28 93 -36 115 -16 47 -89 300 -115 400 -10 39 -30 115 -44 170 -15 55 -31
118 -35 140 -5 22 -25 108 -44 190 -20 83 -41 173 -46 202 -5 28 -15 80 -23
115 -24 103 -48 227 -92 483 -9 50 -20 115 -26 145 -13 78 -44 297 -59 420 -5
41 -16 129 -24 195 -81 623 -110 1635 -66 2342 20 323 34 502 51 628 5 39 14
117 19 175 19 184 29 261 54 430 44 293 89 549 126 725 5 22 12 54 15 70 4 17
16 73 27 125 11 52 23 106 25 120 9 48 73 315 83 346 6 17 10 40 10 52 0 12 5
22 10 22 6 0 10 11 10 25 0 14 10 60 21 103 31 112 38 138 47 175 14 51 53
180 63 205 5 13 9 33 9 45 0 13 4 27 9 33 5 5 13 25 19 44 32 109 135 428 143
442 5 10 9 23 9 29 0 6 6 25 14 42 37 85 56 137 56 154 0 11 4 23 9 29 4 5 16
34 26 64 18 55 27 80 51 135 7 17 18 45 24 63 7 17 16 32 20 32 4 0 10 18 14
40 3 23 11 49 16 58 22 42 70 153 70 165 0 6 7 21 15 31 8 11 15 28 15 38 0
10 5 18 10 18 6 0 10 8 10 18 0 10 4 22 8 28 5 5 17 29 26 54 31 82 41 100 53
100 15 0 17 -11 5 -25 -4 -6 -18 -37 -31 -70 -12 -33 -38 -94 -58 -135 -19
-41 -37 -86 -40 -99 -2 -13 -10 -35 -17 -50 -13 -24 -53 -126 -78 -196 -6 -16
-17 -43 -24 -60 -7 -16 -22 -59 -34 -95 -12 -36 -28 -78 -35 -95 -25 -58 -73
-191 -114 -320 -23 -71 -46 -139 -51 -150 -7 -17 -52 -164 -91 -295 -6 -19
-14 -44 -19 -55 -5 -11 -20 -67 -34 -125 -15 -58 -31 -114 -35 -125 -10 -22
-28 -87 -41 -150 -5 -22 -13 -56 -18 -75 -39 -137 -48 -173 -73 -290 -9 -46
-10 -49 -22 -85 -3 -11 -9 -33 -11 -50 -3 -16 -12 -61 -20 -100 -9 -38 -24
-113 -35 -165 -11 -52 -22 -108 -26 -125 -10 -48 -35 -184 -49 -270 -8 -44
-19 -103 -24 -132 -6 -28 -16 -87 -21 -130 -6 -43 -17 -123 -25 -178 -40 -271
-74 -581 -96 -875 -32 -433 -44 -1013 -31 -1535 4 -163 7 -219 30 -560 25
-387 95 -966 161 -1335 9 -50 23 -132 40 -229 6 -36 13 -68 16 -73 3 -4 9 -31
14 -60 9 -53 12 -66 31 -168 15 -83 69 -309 90 -376 5 -17 9 -39 9 -50 0 -10
6 -39 14 -64 8 -25 19 -63 25 -85 20 -80 113 -421 127 -465 8 -25 22 -70 31
-100 9 -30 19 -64 23 -75 4 -11 40 -121 81 -245 40 -124 76 -232 80 -240 3 -8
14 -37 24 -65 41 -121 78 -222 89 -250 7 -16 23 -57 36 -90 12 -33 29 -74 36
-92 8 -17 14 -34 14 -37 0 -7 36 -90 51 -118 5 -10 9 -22 9 -28 0 -5 13 -38
29 -72 16 -35 45 -103 66 -153 81 -196 199 -447 375 -795 5 -11 14 -28 18 -37
8 -16 72 -138 154 -293 16 -30 33 -59 37 -65 5 -5 28 -46 51 -90 24 -44 74
-131 112 -194 37 -63 68 -116 68 -118 0 -2 15 -25 33 -51 17 -26 43 -67 56
-92 14 -25 34 -58 46 -75 12 -16 67 -100 121 -185 54 -85 120 -185 146 -221
26 -37 48 -71 48 -77 0 -6 3 -12 8 -14 4 -2 36 -43 71 -93 70 -97 241 -334
253 -350 5 -5 50 -64 101 -130 197 -256 406 -509 632 -764 262 -297 745 -783
989 -996 13 -11 59 -52 102 -91 73 -66 174 -154 299 -259 240 -204 641 -513
860 -664 82 -57 500 -335 521 -347 10 -6 77 -48 147 -93 71 -44 131 -81 133
-81 2 0 33 -17 67 -39 77 -48 297 -175 397 -229 41 -22 107 -57 145 -77 198
-107 598 -305 790 -390 33 -15 88 -40 123 -56 35 -16 65 -29 68 -29 2 0 23 -9
47 -19 64 -29 171 -74 287 -120 118 -47 147 -59 172 -72 10 -5 23 -9 29 -9 6
0 25 -6 42 -14 18 -8 66 -26 107 -41 214 -77 363 -129 435 -151 44 -14 89 -29
100 -34 21 -10 207 -66 261 -80 18 -4 36 -10 41 -13 5 -3 45 -15 88 -27 44
-12 95 -26 113 -31 17 -5 47 -13 65 -18 17 -5 59 -17 92 -26 65 -18 118 -31
180 -44 22 -5 74 -18 115 -28 41 -11 100 -25 130 -32 97 -21 144 -32 180 -41
49 -13 234 -50 300 -60 30 -5 78 -14 105 -19 80 -16 225 -42 295 -52 36 -5 97
-13 135 -18 39 -6 117 -17 175 -26 136 -20 251 -34 375 -45 55 -5 147 -14 205
-19 142 -13 350 -29 550 -41 215 -13 1089 -13 1295 0 209 13 414 29 545 41 58
5 150 14 205 19 143 13 254 26 380 46 61 9 137 20 170 25 33 4 76 10 95 14 19
3 67 10 105 16 39 6 104 17 145 24 41 8 91 16 110 20 113 19 231 44 418 85 23
6 61 14 85 19 23 5 65 14 92 19 28 6 75 18 105 26 61 17 60 16 185 46 50 12
110 28 135 35 25 7 63 17 85 24 187 51 499 144 540 161 11 5 88 30 170 56 83
26 157 51 165 55 8 5 42 17 75 28 214 71 652 245 900 356 17 8 80 36 140 63
298 135 511 240 895 443 36 19 67 37 68 42 2 4 8 7 13 7 5 0 57 28 117 61 59
34 121 70 139 80 17 10 50 29 72 43 22 15 45 26 51 26 5 0 10 5 10 10 0 6 4
10 9 10 18 0 384 227 389 242 2 4 8 8 13 8 9 0 89 49 99 61 3 3 32 23 65 44
61 38 248 167 340 235 237 173 535 399 614 465 77 65 113 94 157 130 80 65
273 232 364 314 46 42 105 94 129 116 164 145 572 549 773 765 416 447 832
958 1175 1443 109 154 373 545 373 552 0 2 22 37 49 78 47 71 230 373 283 467
14 25 35 63 48 85 73 129 112 200 155 280 26 50 61 115 78 145 61 110 258 512
327 665 12 28 31 68 41 89 11 22 19 46 19 53 0 7 4 13 9 13 5 0 11 10 14 23 3
12 34 90 70 172 36 83 71 164 77 180 7 17 18 44 25 60 7 17 39 98 70 180 31
83 60 159 65 170 4 11 11 29 15 40 53 146 81 225 106 300 16 50 34 98 39 107
6 10 10 25 10 33 0 8 4 23 9 33 9 17 66 195 91 282 7 25 16 56 20 70 5 14 16
52 25 85 9 33 21 68 26 77 5 10 9 27 9 37 0 11 4 30 9 43 5 13 16 50 25 83 16
57 21 77 44 170 6 22 18 65 26 95 18 62 34 130 76 325 5 28 14 64 19 80 8 28
15 59 41 200 6 33 15 76 20 95 9 37 46 236 60 330 15 95 29 182 45 280 15 92
27 185 45 340 4 41 15 129 24 195 31 244 47 464 68 955 26 638 -2 1484 -68
2020 -9 69 -19 159 -24 200 -12 111 -28 223 -45 330 -9 52 -20 124 -25 160
-10 62 -15 96 -38 235 -6 33 -15 80 -20 105 -6 25 -16 72 -22 105 -6 33 -15
78 -20 100 -5 22 -16 78 -25 125 -9 47 -21 95 -26 108 -5 13 -9 34 -9 47 0 13
-4 34 -9 47 -5 13 -13 46 -19 73 -16 74 -42 186 -52 220 -5 17 -14 50 -20 75
-21 83 -32 125 -45 170 -7 25 -18 64 -24 88 -28 107 -35 131 -56 197 -12 39
-27 88 -33 110 -37 130 -181 567 -227 690 -15 39 -30 81 -35 95 -9 29 -124
327 -147 380 -19 44 -21 49 -84 200 -28 69 -65 153 -80 188 -16 34 -29 64 -29
67 0 16 -275 585 -358 740 -27 50 -77 144 -111 210 -35 66 -71 131 -80 145 -9
14 -26 43 -36 65 -11 22 -22 42 -25 45 -3 3 -16 25 -29 50 -75 139 -273 459
-450 725 -81 122 -355 515 -386 553 -7 9 -46 60 -85 112 -39 52 -76 102 -83
110 -7 8 -40 51 -74 95 -76 98 -72 93 -271 333 -276 332 -453 524 -806 877
-323 322 -406 401 -643 608 -194 169 -240 208 -538 447 -157 126 -541 410
-554 410 -5 0 -11 3 -13 8 -10 24 -520 360 -803 529 -192 115 -341 201 -425
245 -47 25 -126 68 -176 95 -118 64 -608 310 -699 350 -38 18 -95 43 -125 56
-83 38 -323 139 -430 182 -52 21 -113 45 -135 55 -38 16 -71 29 -285 107 -52
19 -103 39 -112 44 -10 5 -25 9 -33 9 -8 0 -23 5 -33 10 -24 14 -439 150 -457
150 -9 0 -23 5 -33 10 -20 12 -464 141 -507 147 -16 2 -39 8 -50 12 -20 8
-167 47 -235 61 -19 5 -57 13 -85 20 -27 6 -68 15 -90 20 -22 4 -71 16 -110
25 -38 9 -92 21 -120 26 -27 5 -70 13 -95 18 -179 36 -221 44 -265 52 -70 12
-159 27 -235 38 -36 5 -110 17 -165 26 -115 18 -222 32 -350 45 -49 5 -106 11
-125 14 -104 16 -509 49 -775 63 -243 14 -908 10 -1020 -6 -192 -26 -186 -26
-222 9 -38 37 -38 40 -17 81 17 34 68 61 101 54 12 -3 63 -9 115 -15z m763
-1346 c209 -8 432 -19 495 -24 159 -12 328 -28 359 -34 14 -3 64 -10 111 -16
232 -26 402 -51 580 -85 47 -9 110 -21 140 -26 76 -15 203 -42 325 -70 22 -5
56 -12 75 -15 19 -3 44 -9 55 -14 11 -5 34 -11 50 -14 17 -2 75 -16 130 -31
55 -15 111 -29 125 -32 14 -2 34 -8 45 -13 11 -5 31 -11 45 -13 28 -5 165 -45
195 -57 11 -4 40 -13 65 -20 62 -18 460 -148 485 -160 11 -5 45 -18 76 -29 72
-25 429 -167 489 -193 25 -11 54 -24 65 -29 239 -102 654 -302 830 -399 28
-15 86 -46 130 -70 44 -24 97 -54 117 -67 21 -12 40 -23 42 -23 3 0 64 -36
137 -80 72 -44 133 -80 135 -80 11 0 458 -293 569 -373 39 -29 78 -56 87 -62
106 -65 626 -472 828 -649 168 -147 181 -159 334 -301 309 -287 650 -643 896
-935 30 -36 57 -67 61 -70 8 -7 250 -307 298 -370 412 -538 784 -1111 1056
-1625 32 -60 61 -114 65 -120 10 -13 209 -412 248 -495 16 -36 40 -87 52 -115
37 -82 69 -152 94 -208 112 -247 297 -735 398 -1047 27 -85 53 -164 58 -175 4
-11 18 -54 30 -95 12 -41 29 -95 36 -120 15 -47 23 -75 44 -150 38 -137 42
-150 70 -257 26 -99 73 -293 81 -330 5 -24 13 -62 18 -85 5 -24 16 -77 26
-118 10 -41 21 -93 25 -115 5 -22 13 -62 18 -90 6 -27 15 -75 20 -105 6 -30
18 -95 28 -145 9 -49 20 -115 25 -145 4 -30 12 -86 18 -125 15 -104 27 -190
40 -285 7 -47 16 -113 21 -146 6 -34 10 -78 10 -97 0 -20 4 -67 10 -104 5 -38
14 -126 20 -198 6 -71 18 -222 27 -335 24 -290 24 -1363 0 -1650 -9 -107 -21
-253 -27 -325 -6 -71 -13 -150 -16 -175 -3 -25 -9 -83 -14 -130 -15 -151 -30
-275 -35 -290 -2 -8 -9 -53 -15 -100 -22 -178 -33 -250 -76 -480 -14 -80 -30
-167 -35 -195 -18 -100 -54 -273 -79 -380 -5 -22 -21 -92 -36 -155 -15 -63
-33 -140 -41 -170 -8 -30 -19 -71 -23 -90 -4 -19 -15 -62 -25 -95 -9 -33 -24
-91 -35 -130 -10 -38 -35 -124 -55 -190 -20 -66 -40 -133 -45 -150 -18 -68
-95 -303 -150 -460 -52 -147 -138 -385 -161 -442 -6 -15 -15 -38 -20 -50 -5
-13 -13 -33 -19 -45 -5 -13 -23 -59 -41 -103 -17 -44 -37 -93 -44 -110 -35
-79 -56 -127 -66 -152 -59 -158 -426 -904 -576 -1170 -44 -78 -83 -148 -86
-157 -7 -18 -62 -22 -87 -6 -13 8 -13 12 1 37 9 15 31 55 49 88 18 33 42 76
53 95 104 180 467 906 467 933 0 3 20 47 44 98 24 52 76 175 116 274 40 99 78
194 85 210 28 68 131 346 157 420 5 17 14 39 19 50 12 27 118 352 164 500 20
66 41 131 45 145 11 36 37 125 56 195 9 33 20 76 26 95 5 19 13 51 18 70 8 37
64 261 80 320 10 39 22 89 45 195 9 39 20 88 25 110 5 22 11 51 13 65 3 14 14
70 25 125 11 55 25 132 32 170 6 39 16 86 20 105 5 19 11 53 14 75 3 22 12 83
21 135 18 109 33 217 45 310 19 156 30 247 35 270 35 181 84 1049 84 1480 0
354 -31 974 -63 1265 -3 28 -12 115 -21 195 -9 80 -20 167 -25 193 -6 27 -10
63 -10 80 0 17 -5 56 -10 86 -6 31 -21 128 -35 216 -14 88 -29 183 -34 210 -6
28 -14 75 -20 105 -6 30 -18 93 -26 140 -9 47 -20 101 -25 120 -5 19 -14 62
-21 95 -15 75 -57 258 -69 305 -16 59 -71 283 -77 310 -2 14 -8 34 -13 45 -4
11 -20 65 -35 120 -14 55 -30 111 -34 125 -5 14 -13 41 -19 60 -60 200 -150
478 -163 502 -5 10 -9 25 -9 33 0 8 -4 23 -9 33 -5 9 -21 51 -36 92 -31 88
-180 472 -200 515 -7 17 -30 71 -50 120 -41 99 -59 140 -115 260 -20 44 -50
109 -65 145 -32 72 -302 609 -314 625 -5 5 -25 41 -45 78 -20 37 -46 84 -58
105 -11 20 -32 57 -46 81 -87 155 -252 423 -417 676 -249 382 -705 973 -996
1290 -25 28 -66 73 -90 100 -80 91 -192 208 -364 380 -670 671 -1376 1224
-2154 1687 -75 45 -153 92 -173 104 -21 13 -40 24 -43 24 -3 0 -22 10 -43 23
-37 24 -122 71 -242 135 -81 44 -423 215 -470 235 -19 9 -75 34 -125 57 -237
110 -600 257 -825 335 -58 20 -114 40 -125 44 -30 12 -143 51 -200 68 -27 8
-59 19 -70 23 -20 7 -171 54 -230 71 -87 25 -215 61 -250 70 -22 6 -53 14 -70
19 -16 4 -79 20 -140 35 -60 14 -126 30 -145 35 -84 21 -214 49 -380 81 -45 9
-58 12 -275 48 -66 11 -139 25 -163 31 -23 5 -59 10 -78 10 -20 0 -53 4 -73 9
-57 15 -314 46 -496 61 -156 13 -355 28 -535 39 -194 13 -780 13 -960 1 -74
-5 -184 -12 -245 -15 -60 -3 -138 -11 -173 -17 -50 -8 -69 -8 -88 2 -57 31 -9
70 86 70 36 0 130 5 210 10 144 11 503 26 675 28 50 1 261 -5 470 -14z m-778
-1222 c16 -21 17 -49 2 -54 -12 -4 -13 -23 -6 -117 5 -68 0 -88 -24 -94 -23
-6 -25 -30 -4 -47 22 -18 18 -30 -10 -30 -14 0 -25 -4 -25 -10 0 -5 6 -10 14
-10 9 0 16 -20 21 -62 8 -72 17 -249 17 -323 -1 -28 4 -53 11 -57 9 -6 7 -11
-5 -18 -9 -6 -15 -16 -13 -23 8 -21 12 -158 5 -162 -12 -7 -22 -136 -12 -149
8 -10 9 -36 3 -123 0 -14 -8 -23 -18 -24 -17 -1 -17 -2 0 -6 10 -3 22 -16 28
-29 13 -35 11 -44 -7 -44 -13 0 -15 -7 -10 -36 4 -19 3 -41 -2 -47 -14 -17
-30 -132 -38 -262 -3 -60 -12 -135 -20 -165 -14 -56 -44 -93 -68 -84 -7 3 -16
-2 -19 -10 -4 -9 -13 -16 -22 -16 -9 0 -27 -7 -40 -16 -23 -15 -25 -15 -25 0
0 23 -31 20 -37 -4 -4 -13 -14 -20 -32 -21 -14 0 -116 -2 -226 -4 -133 -3
-227 -10 -280 -21 -44 -9 -100 -17 -125 -18 -25 -1 -55 -8 -67 -14 -12 -7 -31
-12 -42 -12 -12 0 -29 -4 -39 -9 -9 -5 -69 -25 -132 -45 -245 -75 -342 -106
-362 -117 -10 -5 -23 -9 -29 -9 -22 0 -324 -112 -340 -126 -8 -8 -23 -14 -32
-14 -9 0 -17 -4 -17 -10 0 -5 -5 -10 -10 -10 -11 0 -81 -44 -158 -101 -24 -17
-49 -32 -56 -33 -16 -2 -69 -41 -105 -77 -14 -14 -34 -29 -43 -32 -10 -4 -18
-13 -18 -21 0 -9 -11 -23 -25 -32 -14 -9 -23 -20 -20 -24 8 -12 -22 -45 -42
-45 -11 0 -19 -9 -21 -24 -2 -13 -12 -26 -23 -28 -10 -3 -16 -10 -12 -16 3 -5
-5 -18 -18 -28 -23 -17 -23 -18 -6 -37 13 -14 15 -25 9 -43 -5 -13 -17 -63
-27 -111 -13 -68 -15 -99 -7 -140 10 -54 72 -239 83 -248 7 -6 59 -116 59
-125 0 -4 11 -21 25 -39 14 -18 25 -37 25 -43 0 -5 18 -35 40 -67 22 -31 40
-63 40 -70 0 -7 9 -25 20 -39 11 -14 20 -30 20 -36 0 -6 13 -20 29 -32 16 -12
27 -28 24 -35 -6 -15 13 -37 40 -47 9 -3 17 -15 17 -26 0 -10 7 -21 15 -25 16
-6 21 -36 7 -36 -5 0 -33 27 -63 61 -30 33 -69 76 -86 96 -18 20 -33 39 -33
43 0 4 -21 22 -47 39 -27 17 -77 65 -113 106 -47 54 -70 73 -82 69 -13 -4 -18
0 -18 14 0 11 -7 22 -15 26 -8 3 -15 15 -15 26 0 11 -4 20 -10 20 -5 0 -10 9
-10 19 0 11 -4 23 -10 26 -5 3 -10 19 -10 35 0 16 -5 32 -11 36 -7 4 -9 23 -6
48 3 22 3 35 0 29 -12 -31 -21 -6 -27 75 -4 48 -7 94 -6 102 1 8 3 49 4 90 2
81 43 217 70 232 7 4 17 19 20 33 3 13 15 29 26 35 11 6 20 19 20 30 0 23 16
35 24 18 4 -7 4 3 2 23 -2 20 2 47 9 60 8 13 20 38 28 55 8 17 29 41 46 53 17
12 31 31 31 42 0 10 9 28 21 40 11 11 22 30 23 43 1 12 6 27 10 34 4 7 2 12
-3 12 -19 0 -12 26 14 50 14 13 25 27 25 32 0 14 95 148 166 235 15 18 34 44
43 57 9 13 37 52 64 85 26 34 47 72 47 84 0 16 26 49 82 103 45 43 97 99 116
124 19 25 57 67 84 95 27 27 51 61 54 75 3 14 7 35 10 47 2 12 12 30 22 40
104 103 172 185 172 206 0 18 14 35 50 63 27 21 52 45 55 54 3 9 25 37 50 63
25 27 45 51 45 56 0 4 19 18 41 31 23 12 65 46 94 74 89 88 159 150 200 181
52 38 204 192 213 215 12 33 155 150 174 144 20 -6 43 8 102 64 23 21 75 62
116 91 41 30 82 61 91 70 36 36 96 87 120 103 48 31 122 31 146 0z m93 -199
c0 -15 2 -15 9 -4 8 13 15 12 50 -3 28 -13 51 -16 75 -12 26 5 36 3 36 -6 0
-18 59 -80 70 -73 4 3 10 -2 14 -10 3 -8 13 -15 21 -15 13 0 16 -8 13 -32 -3
-29 0 -33 25 -36 16 -2 27 -9 27 -18 0 -8 7 -17 15 -20 8 -3 17 -16 21 -27 4
-12 22 -36 40 -54 19 -17 34 -41 34 -52 0 -24 0 -24 -34 -11 -17 6 -27 6 -32
-1 -11 -19 18 -38 64 -41 46 -3 48 -5 71 -53 22 -46 52 -82 83 -102 11 -7 39
-47 96 -138 21 -34 46 -90 44 -98 -2 -5 1 -6 6 -3 5 3 21 -7 35 -22 57 -61 67
-72 67 -77 0 -11 92 -125 101 -125 5 0 9 -7 9 -17 0 -16 37 -70 70 -101 10 -9
28 -36 40 -60 12 -23 33 -51 47 -61 21 -17 22 -22 11 -40 -7 -11 -18 -23 -25
-25 -19 -8 -43 4 -43 21 0 9 -6 13 -13 10 -8 -3 -22 6 -32 19 -13 18 -27 24
-55 24 -21 0 -69 12 -106 26 -108 41 -133 47 -150 33 -18 -15 -18 -49 1 -73 8
-11 15 -14 15 -8 0 7 19 -2 42 -18 42 -31 93 -105 82 -121 -11 -19 -51 -9 -62
15 -17 38 -132 69 -132 36 0 -5 -10 -6 -22 -2 -22 5 -22 4 -5 -15 9 -11 17
-23 17 -27 0 -4 18 -33 40 -63 22 -31 40 -53 40 -48 0 4 9 0 20 -10 27 -24 25
-42 -4 -47 -15 -3 -30 2 -39 13 -15 17 -48 17 -72 -1 -13 -10 -55 6 -55 20 0
5 -8 10 -19 10 -10 0 -24 6 -30 14 -7 8 -26 18 -42 21 -16 4 -31 11 -34 16 -4
5 -14 9 -23 9 -9 0 -28 12 -41 25 -25 27 -47 32 -54 13 -2 -7 16 -24 41 -38
25 -14 47 -30 49 -35 5 -15 -66 -31 -107 -25 -31 5 -33 7 -12 14 24 8 30 25
10 27 -7 1 -25 0 -40 -1 -16 -1 -28 3 -28 9 0 18 -57 13 -64 -6 -6 -14 -8 -14
-21 3 -10 15 -16 16 -26 7 -6 -6 -17 -9 -24 -7 -7 3 -16 1 -19 -5 -4 -6 -12
-8 -19 -6 -7 2 -26 6 -44 9 -23 3 -30 1 -27 -9 7 -18 -32 -40 -42 -24 -4 7 1
16 10 21 13 7 15 13 6 23 -8 9 -9 29 -5 54 4 23 2 48 -4 60 -6 11 -8 22 -3 25
10 6 7 329 -3 346 -4 6 -2 17 3 22 6 6 8 18 3 27 -4 9 -5 50 -1 91 3 41 2 95
-2 119 -6 33 -4 50 7 67 21 32 20 90 -2 103 -13 7 -14 12 -6 23 7 8 11 70 11
165 0 84 3 161 7 172 3 11 -1 25 -10 34 -19 19 -19 36 -1 43 8 3 12 12 9 20
-3 7 2 17 11 20 13 5 14 9 5 20 -9 11 -9 17 0 28 8 10 9 16 1 21 -13 8 -13 45
0 45 6 0 10 -8 10 -17z m591 -218 c35 -12 54 -28 84 -71 62 -86 96 -124 127
-140 31 -16 62 -59 136 -185 17 -31 32 -63 32 -70 0 -8 20 -45 45 -84 24 -38
58 -99 75 -135 49 -103 71 -143 99 -177 55 -68 70 -91 121 -188 29 -55 60
-108 69 -118 8 -10 14 -31 13 -45 -2 -20 3 -30 20 -37 29 -13 34 -45 13 -84
-14 -29 -14 -34 5 -71 11 -21 20 -51 20 -65 0 -18 7 -28 24 -35 13 -5 32 -21
43 -35 10 -15 29 -39 43 -55 14 -16 33 -40 43 -54 10 -14 26 -26 37 -26 46 0
64 -23 34 -45 -14 -10 -13 -14 15 -38 17 -14 31 -30 31 -35 0 -5 7 -15 15 -22
20 -16 75 -116 75 -136 0 -9 6 -28 13 -42 41 -82 63 -122 93 -168 19 -28 34
-56 34 -62 0 -24 55 -109 96 -150 24 -23 44 -49 44 -57 0 -8 10 -25 21 -36 35
-35 89 -138 89 -170 0 -33 -29 -54 -63 -43 -12 4 -56 30 -97 59 -41 29 -86 55
-100 59 -68 18 -100 30 -100 38 0 4 -7 8 -15 8 -8 0 -19 10 -26 23 -6 12 -21
30 -33 39 -19 15 -19 17 -3 23 24 10 21 42 -5 51 -29 9 -138 85 -138 96 0 18
36 21 79 5 25 -9 50 -12 54 -8 12 12 -10 51 -45 81 -32 27 -56 100 -33 100 18
0 23 40 11 77 -10 27 -66 85 -81 84 -25 -3 -36 4 -56 34 -13 19 -34 40 -46 46
-13 7 -23 17 -23 23 0 6 -20 34 -44 61 -24 28 -55 75 -69 105 -26 55 -68 90
-106 90 -10 0 -26 9 -35 19 -17 18 -16 21 18 55 41 41 42 44 19 62 -16 12 -13
13 26 14 38 0 42 2 31 16 -11 13 -10 16 8 20 l21 6 -24 41 c-12 23 -37 67 -54
97 -18 30 -37 67 -42 83 -6 15 -15 27 -20 27 -5 0 -9 7 -9 16 0 9 -8 18 -19
21 -18 5 -41 42 -41 67 0 8 -7 19 -15 26 -8 7 -13 16 -10 20 2 4 -9 20 -25 35
-17 16 -30 36 -30 44 0 9 -18 40 -41 70 -35 46 -39 57 -30 77 8 19 7 22 -4 17
-11 -3 -15 2 -15 19 0 13 -13 39 -28 58 -16 19 -40 64 -55 100 -24 62 -67 107
-89 94 -4 -3 -9 19 -10 48 -1 29 -2 60 -3 68 0 9 -11 26 -23 38 -12 12 -22 28
-22 36 0 7 -21 35 -47 62 -51 54 -103 128 -103 147 0 7 -11 28 -25 47 -22 30
-31 50 -22 50 2 0 24 -7 48 -15z m334 -1261 c9 -9 14 -23 11 -30 -3 -8 -1 -14
3 -14 5 0 11 4 13 10 3 8 67 -49 132 -120 32 -35 28 -49 -9 -32 -14 7 -35 12
-47 12 -11 0 -26 8 -33 17 -12 15 -15 14 -38 -12 -24 -29 -25 -29 -51 -11 -32
20 -31 50 2 54 31 5 28 15 -8 29 -22 8 -30 18 -30 37 0 13 5 28 11 32 9 5 10
-1 5 -20 -4 -15 -2 -26 4 -26 16 0 24 51 11 72 -14 22 2 24 24 2z m-705 -54
c0 -5 -5 -10 -11 -10 -5 0 -7 5 -4 10 3 6 8 10 11 10 2 0 4 -4 4 -10z m567 4
c-3 -3 -12 -4 -19 -1 -8 3 -5 6 6 6 11 1 17 -2 13 -5z m463 -14 c0 -5 -2 -10
-4 -10 -3 0 -8 5 -11 10 -3 6 -1 10 4 10 6 0 11 -4 11 -10z m-810 -10 c0 -5
-4 -10 -10 -10 -5 0 -10 5 -10 10 0 6 5 10 10 10 6 0 10 -4 10 -10z m-370 -78
c86 -41 148 -60 259 -79 21 -3 35 -12 38 -23 6 -22 32 -30 95 -30 36 0 50 -4
58 -19 7 -14 7 -20 -2 -23 -6 -2 -8 -10 -4 -16 5 -9 13 -9 26 -2 27 15 38 12
36 -7 -1 -15 7 -18 48 -18 47 0 70 -15 47 -30 -21 -12 -11 -27 14 -22 18 3 29
-1 36 -14 5 -11 14 -19 20 -19 18 0 99 -40 99 -50 0 -16 41 -22 69 -10 25 10
36 7 95 -24 37 -20 75 -36 85 -36 9 0 26 -7 37 -15 10 -8 26 -15 35 -15 9 0
19 -6 22 -13 3 -7 52 -37 110 -66 86 -43 157 -95 157 -114 0 -9 -79 8 -105 24
-89 52 -313 159 -335 159 -14 0 -54 16 -90 35 -35 19 -69 35 -75 35 -6 0 -16
5 -23 12 -6 6 -19 13 -27 14 -14 2 -89 34 -127 55 -10 5 -27 9 -38 9 -11 0
-20 4 -20 9 0 5 -10 13 -22 16 -13 4 -42 15 -65 26 -24 10 -52 19 -63 19 -11
0 -23 7 -26 15 -4 8 -14 15 -24 15 -11 0 -21 4 -24 9 -4 5 -29 15 -57 22 -28
7 -55 21 -60 31 -6 11 -21 18 -39 18 -20 0 -33 7 -41 21 -9 17 -17 20 -46 14
-29 -5 -35 -4 -30 9 4 10 1 13 -9 9 -8 -3 -40 2 -71 12 -42 13 -57 15 -63 5
-5 -8 -9 -6 -15 7 -12 27 -5 76 12 95 15 17 17 17 37 -5 12 -13 41 -33 66 -45z
m1048 -69 c-5 -26 -38 -29 -38 -4 0 15 6 21 21 21 14 0 19 -5 17 -17z m96
-138 c8 -8 21 -15 28 -15 43 0 84 -73 47 -83 -19 -5 -163 96 -152 107 12 12
62 6 77 -9z m-784 -155 c0 -5 -4 -10 -10 -10 -5 0 -10 5 -10 10 0 6 5 10 10
10 6 0 10 -4 10 -10z m1160 -310 c0 -5 16 -16 35 -24 35 -15 42 -29 26 -54
-12 -20 -42 -17 -84 8 -45 27 -61 52 -45 68 15 15 68 16 68 2z m-4554 -1062
c40 -27 50 -39 52 -67 2 -19 10 -44 18 -57 22 -33 14 -85 -14 -95 -20 -7 -25
-5 -29 12 -3 11 -11 18 -19 15 -7 -3 -16 -1 -19 4 -4 6 -13 10 -22 10 -13 0
-14 -8 -9 -41 6 -38 5 -41 -14 -36 -11 3 -23 1 -26 -5 -3 -5 -23 -9 -43 -7
-74 4 -111 -1 -111 -15 0 -8 -15 -15 -40 -19 -23 -3 -65 -22 -101 -46 -63 -42
-101 -47 -113 -15 -4 12 -10 12 -26 4 -11 -6 -19 -14 -16 -18 2 -4 -13 -8 -34
-9 -27 -2 -43 3 -56 18 -17 19 -18 19 -47 -12 -21 -24 -31 -29 -37 -19 -6 9
-12 8 -28 -8 -11 -11 -23 -18 -26 -15 -3 3 -13 2 -23 -2 -10 -5 -24 -7 -31 -6
-8 1 -24 -5 -37 -13 -14 -9 -37 -16 -52 -16 -15 0 -50 -12 -78 -25 -27 -14
-60 -25 -71 -25 -12 0 -27 -7 -34 -15 -7 -8 -23 -15 -36 -15 -12 0 -26 -4 -29
-10 -3 -5 -15 -10 -26 -10 -11 0 -22 -6 -25 -14 -3 -8 -17 -17 -32 -21 -14 -3
-44 -20 -66 -36 -22 -16 -45 -29 -51 -29 -6 0 -24 -13 -40 -30 -16 -16 -36
-30 -44 -30 -9 0 -21 -10 -26 -22 -6 -13 -26 -31 -46 -41 -20 -9 -66 -50 -103
-90 -115 -124 -149 -157 -162 -157 -7 0 -21 -13 -30 -29 -14 -23 -23 -28 -43
-24 -33 6 -36 10 -22 26 9 12 5 17 -19 27 -34 14 -38 45 -5 45 11 0 18 5 15
10 -3 6 -8 9 -12 7 -16 -5 -7 22 37 114 36 73 53 99 83 118 20 13 54 40 75 60
21 20 47 36 60 36 13 0 41 13 63 30 21 16 46 30 55 30 8 0 29 15 45 33 16 19
42 37 57 41 15 3 27 12 27 19 0 6 5 19 10 27 8 12 12 12 18 2 9 -14 80 28 138
83 33 32 51 38 142 51 27 4 42 12 42 21 0 8 4 12 9 9 5 -3 23 2 41 10 18 9 45
18 62 19 16 1 34 7 41 14 6 6 16 11 23 11 6 0 16 6 22 13 6 7 46 24 89 36 43
13 121 36 173 52 129 38 245 69 262 69 8 0 27 13 42 29 18 18 42 31 64 34 21
3 55 12 77 20 58 23 77 21 131 -15z m9341 -178 c105 -34 150 -71 106 -87 -10
-4 -20 -10 -23 -13 -8 -11 -60 -21 -60 -13 0 7 -61 9 -85 3 -17 -5 -27 -6 -95
-14 -97 -11 -232 28 -190 54 10 7 0 8 -32 6 -30 -3 -48 -1 -48 6 0 6 -6 5 -16
-2 -12 -11 -17 -11 -29 1 -11 12 -11 20 3 52 l17 38 185 -3 c168 -2 192 -5
267 -28z m-17497 -70 c0 -5 -5 -10 -11 -10 -5 0 -7 5 -4 10 3 6 8 10 11 10 2
0 4 -4 4 -10z m17769 -65 c28 -19 54 -35 59 -35 5 0 15 -11 22 -25 7 -14 17
-25 22 -25 4 0 8 -7 8 -15 0 -20 -24 -19 -55 1 -14 9 -32 14 -40 10 -9 -3 -15
0 -15 10 0 8 -4 13 -9 10 -4 -3 -35 3 -67 14 -128 41 -160 50 -182 50 -13 0
-21 4 -18 8 3 5 29 6 59 2 47 -5 53 -4 50 11 -4 14 5 17 55 18 53 1 65 -3 111
-34z m-17847 -47 c-7 -7 -12 -8 -12 -2 0 14 12 26 19 19 2 -3 -1 -11 -7 -17z
m8467 -58 c40 -41 61 -92 42 -98 -12 -4 -4 -81 10 -96 6 -6 9 -5 9 2 0 7 5 12
11 12 7 0 9 -10 5 -25 -9 -34 4 -111 15 -93 7 10 9 9 9 -4 0 -10 9 -22 20 -28
11 -6 20 -21 20 -35 0 -40 16 -70 61 -111 73 -67 260 -246 326 -311 34 -35 67
-63 73 -63 6 0 15 -12 20 -26 7 -18 15 -24 26 -20 9 3 12 2 9 -4 -4 -6 -3 -19
0 -30 5 -16 15 -20 46 -20 34 0 39 -3 38 -22 -1 -19 -2 -19 -6 -5 -4 15 -11
17 -44 12 -35 -6 -39 -5 -39 15 0 16 -4 20 -19 15 -11 -3 -22 -1 -26 5 -10 16
-45 12 -45 -5 0 -8 -9 -15 -19 -15 -18 0 -20 -6 -17 -53 1 -34 10 -65 23 -83
11 -16 23 -38 26 -49 3 -11 13 -40 22 -64 12 -33 13 -46 4 -57 -9 -11 -9 -14
0 -14 20 0 54 -37 41 -45 -9 -5 -67 45 -70 60 0 3 -13 26 -28 52 -35 60 -92
124 -103 117 -18 -11 -9 -66 16 -96 14 -16 25 -37 25 -47 0 -9 7 -26 15 -37 8
-10 15 -29 15 -40 0 -12 7 -27 15 -34 9 -7 13 -15 10 -18 -3 -3 0 -11 5 -17
19 -23 2 -43 -33 -36 -25 5 -37 18 -63 66 -18 33 -33 67 -34 75 0 8 -14 33
-30 54 -17 22 -30 45 -30 52 0 18 -50 104 -61 104 -5 0 -18 19 -28 43 -21 48
-56 81 -77 73 -8 -3 -14 -1 -14 5 0 5 -6 9 -12 8 -55 -7 -64 0 -103 77 -20 42
-41 88 -44 102 -11 40 -33 41 -31 1 3 -57 2 -65 -12 -51 -18 18 -36 14 -44
-10 -4 -15 -1 -25 10 -34 11 -8 15 -20 11 -36 -4 -16 1 -32 13 -49 16 -20 19
-36 16 -81 -3 -40 0 -59 11 -68 8 -7 17 -28 20 -49 6 -40 30 -125 52 -185 7
-21 11 -46 8 -57 -3 -10 1 -30 11 -43 9 -14 14 -33 10 -41 -10 -26 -25 -16
-24 16 1 17 -3 34 -8 37 -19 14 -84 161 -84 191 0 41 -80 201 -100 201 -6 0
-8 -4 -5 -10 3 -5 1 -10 -5 -10 -7 0 -9 -23 -8 -63 3 -62 1 -70 -44 -159 -5
-11 -4 -18 2 -18 6 0 10 -28 10 -64 0 -72 6 -96 24 -96 13 0 66 -95 66 -117 0
-6 6 -13 13 -16 9 -3 9 -7 -1 -20 -11 -13 -10 -17 4 -25 12 -7 15 -17 11 -33
-4 -14 0 -30 9 -40 13 -15 13 -17 -7 -22 -17 -5 -20 -2 -16 14 3 12 0 19 -9
19 -8 0 -14 7 -14 15 0 8 -5 15 -10 15 -6 0 -8 11 -4 25 5 21 3 25 -15 25 -15
0 -23 10 -33 42 l-12 42 -8 -39 c-5 -21 -16 -47 -24 -56 -12 -13 -13 -22 -5
-38 6 -11 11 -29 11 -40 0 -12 5 -21 10 -21 6 0 10 -31 10 -73 0 -70 21 -179
39 -201 5 -6 12 -33 16 -61 7 -49 7 -50 -11 -30 -27 29 -54 91 -54 125 0 23
-4 30 -20 30 -14 0 -20 7 -20 23 -1 20 -1 21 -11 4 -8 -13 -8 -27 -1 -45 6
-15 13 -48 17 -74 3 -26 10 -50 14 -53 5 -2 12 -22 15 -42 7 -36 28 -105 67
-218 30 -88 42 -119 76 -192 18 -40 33 -77 33 -83 0 -21 -16 -9 -29 22 -9 19
-16 27 -19 19 -5 -16 -41 55 -42 82 0 11 -9 21 -20 24 -11 3 -20 10 -19 17 3
26 -2 36 -20 36 -13 0 -23 14 -36 55 -10 34 -21 52 -28 48 -6 -4 -8 0 -4 11 4
10 -3 32 -19 56 -15 22 -24 46 -20 55 3 9 0 15 -8 15 -9 0 -12 8 -9 25 5 24
-15 55 -36 55 -6 0 -11 7 -11 15 0 8 -12 17 -27 21 -49 10 -53 13 -53 33 0 11
-7 40 -15 63 -15 45 -24 118 -29 224 -1 41 -8 67 -18 78 -9 9 -19 16 -21 16
-2 0 -7 -33 -10 -72 -5 -74 4 -134 30 -199 12 -29 12 -44 3 -79 -10 -38 -10
-46 4 -56 9 -6 16 -17 16 -23 0 -7 10 -23 23 -37 21 -23 25 -49 17 -114 0 -3
-8 7 -18 23 -10 15 -21 25 -24 22 -8 -8 -20 44 -13 54 3 5 -2 12 -11 15 -8 3
-13 9 -10 14 2 4 1 14 -4 22 -8 12 -13 13 -29 3 -20 -13 -38 -2 -27 16 3 5 -1
12 -10 15 -8 3 -14 11 -13 18 1 7 -3 26 -10 42 -6 15 -10 33 -9 40 5 30 -15
55 -55 68 -39 12 -43 17 -63 75 -12 34 -19 64 -16 67 3 3 -3 8 -12 12 -9 3
-16 16 -16 29 0 27 -44 80 -59 71 -6 -4 -11 -17 -11 -29 -1 -20 -3 -19 -30 11
-17 18 -30 43 -30 56 0 12 -11 36 -25 52 -14 16 -23 35 -20 42 2 6 -2 12 -9
12 -7 0 -19 7 -26 15 -10 13 -9 19 6 36 17 19 17 20 -4 26 -12 3 -22 11 -22
19 0 7 -6 11 -14 8 -10 -4 -12 2 -8 21 2 15 11 29 18 32 20 7 44 -15 44 -40 0
-16 3 -18 12 -9 14 14 42 16 33 2 -3 -5 -2 -10 3 -10 14 0 19 19 17 63 -1 20
2 37 7 37 4 0 8 -10 8 -22 0 -20 1 -21 16 -6 15 14 14 18 -2 43 -15 22 -15 30
-5 47 7 11 14 45 17 76 3 31 10 62 16 69 6 7 8 13 5 13 -3 0 -13 3 -23 7 -12
4 -15 3 -10 -5 12 -19 -15 -14 -30 6 -18 23 -17 42 1 42 8 0 15 -4 15 -10 0
-5 5 -10 11 -10 8 0 9 13 5 39 -3 22 -2 50 3 63 5 13 12 63 16 110 7 85 7 87
-14 81 -15 -4 -21 -1 -21 11 0 10 -6 13 -15 10 -24 -10 -45 15 -45 52 0 19 4
34 8 34 14 0 31 46 22 60 -11 18 -37 -2 -43 -33 -2 -12 -5 -3 -6 21 0 23 4 42
9 42 6 0 24 14 42 30 33 32 54 38 60 18 6 -17 28 0 28 23 0 11 -7 19 -17 20
-17 1 -17 2 0 6 16 4 21 24 20 86 0 9 4 17 9 17 4 0 8 9 8 20 0 13 -7 20 -20
20 -10 0 -24 -9 -30 -20 -8 -14 -8 -20 0 -20 19 0 6 -45 -14 -48 -15 -3 -18 0
-13 20 4 13 2 30 -4 38 -8 12 -9 11 -7 -5 2 -16 -4 -21 -31 -23 -36 -4 -83
-45 -75 -67 3 -7 -6 -22 -20 -33 -14 -11 -26 -25 -26 -31 0 -6 -6 -11 -13 -11
-7 0 -18 -9 -25 -20 -7 -12 -24 -25 -37 -30 -14 -5 -29 -21 -35 -34 -5 -13
-18 -30 -29 -38 -16 -12 -20 -24 -18 -69 2 -49 0 -54 -20 -54 -11 0 -24 -3
-28 -7 -4 -4 -15 -3 -25 2 -14 7 -16 20 -14 62 2 29 1 47 -2 41 -3 -7 -12 -13
-20 -13 -8 0 -14 -7 -14 -15 0 -9 -13 -21 -29 -28 -36 -15 -84 -71 -79 -94 3
-20 56 -31 67 -15 10 15 51 25 51 12 0 -7 -9 -14 -20 -17 -11 -3 -20 -9 -20
-14 0 -5 -8 -9 -17 -9 -13 0 -14 -3 -5 -12 7 -7 12 -16 12 -20 0 -12 -38 -10
-45 2 -10 17 -33 11 -55 -12 -20 -22 -97 -37 -84 -17 3 5 -4 9 -15 9 -11 0
-25 -9 -31 -20 -6 -11 -21 -31 -34 -45 -13 -14 -26 -38 -29 -53 -2 -15 -14
-63 -26 -107 -21 -80 -29 -219 -13 -229 5 -3 9 -21 10 -40 l1 -35 -44 21 c-35
17 -50 32 -66 68 -55 117 -114 236 -124 250 -30 38 -19 109 20 123 8 4 15 13
15 22 0 11 6 14 23 10 15 -4 31 0 46 12 18 15 22 30 25 93 3 62 0 80 -16 103
-13 18 -18 36 -14 52 4 14 0 41 -9 61 -13 32 -13 37 3 53 17 18 128 91 138 91
3 0 24 13 47 28 53 36 103 56 121 49 8 -3 20 1 28 10 7 9 28 22 46 30 17 7 32
17 32 22 0 5 17 16 38 26 20 9 53 24 72 34 62 33 187 51 140 21 -10 -6 -11
-10 -3 -10 24 0 1 -28 -28 -34 -29 -5 -30 -7 -14 -23 16 -15 19 -15 51 2 19
10 34 24 34 32 0 17 15 17 34 -2 8 -8 22 -15 30 -15 30 0 16 -20 -24 -36 -22
-9 -40 -22 -40 -30 0 -10 -12 -14 -40 -14 -22 0 -40 -4 -40 -10 0 -5 20 -10
44 -10 56 0 112 34 120 73 6 28 6 28 71 22 62 -5 89 6 43 18 -37 10 -21 16 73
26 4 1 9 10 12 21 3 13 14 20 29 20 33 0 50 14 42 33 -8 23 8 21 34 -3 12 -12
22 -16 22 -10 0 5 7 10 15 10 8 0 15 -5 15 -10 0 -6 11 -15 25 -20 21 -8 30
-6 47 10 12 11 28 20 36 20 8 0 12 6 9 13 -4 10 2 13 16 10 23 -3 49 15 84 60
17 22 20 34 13 57 -9 30 3 43 14 15 3 -8 12 -15 20 -15 16 0 31 -31 18 -39 -7
-4 -14 -41 -8 -41 1 0 30 9 66 20 93 28 120 26 150 -12 14 -17 35 -42 48 -54
12 -13 22 -31 22 -41 0 -10 11 -31 24 -48 20 -25 26 -27 39 -17 24 21 31 85
12 121 -8 17 -20 31 -25 31 -6 0 -10 7 -10 16 0 8 -11 32 -25 52 -35 51 -32
62 15 62 34 0 46 -6 79 -40z m-734 4 c-9 -9 -18 -14 -21 -11 -9 9 6 27 22 27
13 0 13 -2 -1 -16z m145 -12 c0 -15 -25 -62 -32 -62 -10 0 -10 54 -1 63 9 10
33 9 33 -1z m-7927 -22 c-3 -11 -10 -23 -16 -27 -7 -4 -8 0 -4 11 4 10 7 22 7
27 0 5 4 9 9 9 5 0 7 -9 4 -20z m18091 -9 c17 -18 16 -19 -3 -26 -19 -6 -61
20 -61 37 0 16 47 7 64 -11z m-10339 -1 c-3 -5 -11 -10 -16 -10 -6 0 -7 5 -4
10 3 6 11 10 16 10 6 0 7 -4 4 -10z m-7795 -45 c0 -8 -4 -15 -10 -15 -5 0 -7
7 -4 15 4 8 8 15 10 15 2 0 4 -7 4 -15z m13561 -12 c0 -27 1 -27 9 -5 11 27
22 28 43 4 18 -20 13 -62 -10 -75 -7 -4 -13 -14 -13 -22 0 -8 -13 -29 -29 -47
-15 -18 -41 -53 -56 -78 -36 -58 -112 -143 -136 -152 -11 -4 -24 -18 -30 -31
-7 -15 -35 -36 -70 -53 -33 -15 -65 -34 -71 -41 -6 -7 -20 -13 -32 -13 -12 0
-39 -9 -61 -20 -22 -11 -47 -20 -57 -20 -10 0 -32 -9 -50 -20 -18 -11 -42 -20
-54 -20 -21 0 -145 -40 -199 -65 -75 -34 -110 -45 -122 -41 -7 3 -15 1 -18 -4
-4 -6 -23 -10 -44 -10 -51 0 -141 -30 -141 -47 0 -14 -18 -17 -101 -14 -40 1
-58 -3 -62 -12 -4 -10 -20 -12 -57 -9 -57 4 -156 -11 -233 -35 -43 -13 -84
-15 -267 -12 -60 1 -120 -11 -120 -23 0 -7 -16 -8 -43 -5 -29 4 -54 1 -82 -12
-22 -10 -68 -23 -102 -31 -35 -7 -60 -16 -58 -20 3 -5 -4 -6 -15 -3 -13 4 -26
-1 -35 -13 -13 -17 -14 -17 -15 -2 0 11 10 20 27 24 26 7 35 13 67 41 7 6 31
14 52 18 21 3 56 13 76 22 32 13 36 19 32 42 -2 14 0 33 5 41 8 12 15 12 45 2
37 -14 56 -10 56 12 0 8 10 11 30 8 18 -3 30 0 30 7 0 6 7 11 15 11 8 0 15 5
15 10 0 6 9 10 20 10 10 0 23 7 28 16 7 13 13 14 28 6 15 -8 24 -6 41 10 12
11 33 21 47 21 14 0 33 8 42 18 9 11 25 19 35 19 10 0 21 5 24 10 4 7 11 7 18
2 40 -31 107 -13 107 29 0 17 6 19 45 15 24 -2 51 -9 60 -16 13 -10 17 -8 28
16 7 16 18 30 26 32 7 1 28 14 46 27 34 26 60 32 70 15 11 -18 56 -11 62 9 3
11 17 21 34 25 18 3 33 14 38 27 l8 22 21 -21 c31 -31 46 -27 68 16 20 36 21
37 80 38 79 1 134 13 134 30 0 8 5 14 10 14 6 0 10 7 10 16 0 11 6 14 20 9 13
-4 31 0 45 9 16 11 25 12 25 5 0 -7 8 -9 23 -4 12 3 41 11 65 16 24 5 56 18
72 29 15 11 35 20 44 20 9 0 29 11 44 25 15 14 35 25 44 25 10 0 18 5 18 11 0
5 5 7 11 3 8 -4 8 -9 0 -17 -23 -23 -10 -29 13 -7 14 12 32 20 40 17 9 -4 18
-2 21 3 10 16 25 11 18 -5 -3 -9 2 -22 13 -30 25 -19 44 -19 44 0 0 8 -4 15
-10 15 -5 0 -10 7 -10 15 0 8 5 15 11 15 16 0 38 31 39 52 0 9 13 25 30 34 16
10 34 30 39 46 7 18 20 30 43 37 48 14 48 14 49 -16z m-5601 -3 c0 -5 -4 -10
-9 -10 -6 0 -13 5 -16 10 -3 6 1 10 9 10 9 0 16 -4 16 -10z m1126 -76 c-6 -16
-8 -16 -23 -2 -9 10 -13 23 -9 34 6 16 8 16 23 2 9 -10 13 -23 9 -34z m4284
-24 c0 -5 -7 -10 -16 -10 -8 0 -12 5 -9 10 3 6 10 10 16 10 5 0 9 -4 9 -10z
m-13430 -4 c0 -3 -4 -8 -10 -11 -5 -3 -10 -1 -10 4 0 6 5 11 10 11 6 0 10 -2
10 -4z m13390 -16 c0 -5 -5 -10 -11 -10 -5 0 -7 5 -4 10 3 6 8 10 11 10 2 0 4
-4 4 -10z m-4160 -50 c0 -5 -4 -10 -9 -10 -13 0 -41 41 -35 51 6 10 44 -26 44
-41z m-9279 -17 c-10 -17 -10 -16 -11 3 0 23 13 41 18 25 2 -6 -1 -18 -7 -28z
m-30 -34 c-5 -13 -10 -19 -10 -12 -1 15 10 45 15 40 3 -2 0 -15 -5 -28z m9440
-23 c17 -3 43 -19 57 -36 15 -16 32 -30 39 -30 15 0 63 -50 63 -66 0 -6 21
-25 48 -43 83 -55 115 -81 202 -162 108 -100 122 -109 168 -114 20 -1 40 -3
45 -4 12 -2 8 -41 -5 -45 -7 -2 -26 -8 -43 -13 -27 -8 -37 -4 -99 39 -38 26
-97 74 -130 106 -34 31 -79 70 -101 87 -66 48 -165 134 -252 219 l-83 80 28
11 c23 10 27 9 30 -6 2 -10 16 -19 33 -23z m-9457 -28 c-16 -28 -27 -38 -36
-32 -5 3 -2 14 8 25 19 21 39 26 28 7z m7786 -42 c0 -3 -4 -8 -10 -11 -5 -3
-10 -1 -10 4 0 6 5 11 10 11 6 0 10 -2 10 -4z m-7842 -51 c-12 -27 -34 -35
-24 -9 3 9 6 20 6 25 0 5 7 9 15 9 12 0 13 -4 3 -25z m-28 -42 c0 -5 -5 -15
-10 -23 -8 -12 -10 -11 -10 8 0 12 5 22 10 22 6 0 10 -3 10 -7z m13856 -31
c16 -11 24 -38 13 -49 -16 -16 2 -63 30 -77 35 -19 81 -65 111 -113 13 -22 41
-48 62 -58 21 -10 38 -22 38 -27 0 -4 6 -8 13 -8 7 0 26 -13 42 -30 27 -28 29
-29 42 -11 15 23 7 51 -14 51 -10 0 -14 7 -10 20 3 13 0 20 -9 20 -8 0 -14 7
-14 15 0 27 38 16 64 -18 15 -19 26 -37 26 -42 0 -4 16 -30 35 -56 19 -27 35
-56 35 -63 0 -8 5 -18 10 -21 6 -3 10 -14 10 -24 0 -10 11 -40 25 -67 14 -27
24 -61 23 -75 -1 -15 3 -33 9 -40 6 -8 13 -25 15 -39 1 -14 6 -27 9 -30 9 -7
69 -137 69 -149 0 -6 14 -33 30 -61 17 -28 30 -55 30 -59 0 -5 16 -33 36 -62
20 -30 51 -85 69 -122 19 -37 38 -74 44 -81 7 -8 14 -29 16 -47 2 -19 15 -59
29 -89 13 -30 34 -89 47 -130 12 -41 26 -79 31 -84 4 -6 8 -19 8 -30 0 -36 24
-86 44 -92 12 -4 24 -12 28 -18 11 -17 9 -86 -2 -86 -5 0 -10 -5 -10 -11 0 -5
4 -8 9 -5 14 9 21 -42 17 -122 -4 -72 1 -84 32 -88 8 -2 15 -4 16 -6 1 -2 23
-28 49 -59 26 -31 47 -62 47 -70 0 -18 68 -62 86 -55 13 5 46 -32 126 -142 14
-20 29 -50 32 -66 4 -16 13 -37 20 -45 17 -19 23 -80 10 -102 -5 -9 -24 -24
-42 -33 l-33 -17 -10 31 c-7 19 -20 32 -35 36 -14 4 -31 20 -40 40 -9 19 -23
34 -31 34 -23 0 -74 40 -67 52 4 6 1 9 -5 7 -7 -3 -12 -8 -12 -12 1 -4 1 -13
1 -19 0 -7 16 -30 35 -51 19 -21 35 -42 35 -46 0 -5 15 -12 33 -18 27 -8 32
-13 31 -38 -3 -53 -10 -81 -27 -105 -9 -14 -17 -30 -17 -37 0 -7 -4 -13 -9
-13 -5 0 -11 -10 -15 -22 -4 -18 -8 -20 -18 -10 -6 6 -19 12 -28 12 -18 0
-110 -84 -110 -100 0 -6 -34 -44 -75 -85 -41 -40 -75 -78 -75 -84 0 -6 -7 -7
-17 -4 -11 4 -14 3 -9 -5 4 -6 -2 -20 -14 -32 -11 -11 -20 -24 -20 -29 0 -5
-8 -12 -19 -16 -10 -3 -27 -21 -37 -40 -10 -19 -22 -35 -26 -35 -11 0 -1 115
12 140 6 11 17 20 25 20 9 0 15 10 15 25 0 13 14 47 30 75 17 28 30 55 30 60
0 6 5 10 10 10 6 0 10 8 10 19 0 10 7 24 15 31 8 7 15 18 15 24 0 6 16 31 35
55 19 24 35 51 35 60 0 28 -39 123 -59 145 -18 19 -19 32 -15 165 5 155 -1
180 -50 203 -13 5 -29 21 -35 34 -9 21 -8 24 12 24 47 0 64 12 77 51 16 47 5
79 -35 105 -20 13 -29 14 -38 5 -24 -24 -35 -11 -35 39 0 28 -4 56 -9 63 -5 6
-15 39 -22 71 -7 33 -21 79 -31 102 -10 23 -16 45 -13 48 3 3 -2 23 -11 45 -9
23 -23 95 -31 161 -9 66 -22 134 -29 151 -11 26 -14 28 -26 15 -10 -13 -10
-19 0 -32 11 -12 11 -18 -2 -30 -13 -13 -16 -11 -31 23 -22 52 -36 137 -32
201 1 29 -2 55 -6 58 -5 3 -6 16 -3 30 3 13 2 24 -4 24 -5 0 -12 9 -15 20 -7
26 -27 26 -27 -1 0 -41 -17 -57 -59 -55 -43 2 -70 24 -93 77 -7 16 -19 29 -25
29 -7 0 -13 4 -13 9 0 4 -12 8 -27 8 -16 0 -35 3 -45 7 -21 9 -93 -54 -112
-98 -7 -17 -38 -62 -69 -99 -70 -85 -160 -220 -195 -295 -53 -110 -56 -112
-130 -112 -80 0 -102 15 -102 72 0 21 9 57 21 79 20 41 20 41 1 55 -11 7 -25
26 -31 42 -11 25 -9 36 10 78 12 27 44 79 71 116 27 37 54 84 60 104 13 50 45
97 117 174 80 86 80 110 -4 110 -28 0 -41 -8 -77 -51 -46 -54 -84 -79 -119
-79 -25 0 -89 -63 -89 -89 0 -17 -35 -62 -112 -146 -21 -22 -38 -43 -38 -47 0
-3 -11 -19 -24 -35 -13 -15 -37 -53 -53 -83 -88 -163 -204 -365 -218 -380 -8
-9 -15 -20 -15 -24 0 -4 -9 -19 -20 -33 -21 -27 -28 -83 -10 -83 16 0 12 -56
-11 -155 -11 -49 -25 -117 -31 -150 -5 -33 -14 -65 -19 -71 -5 -6 -10 -46 -13
-90 -2 -43 -9 -108 -16 -144 -15 -79 -79 -289 -101 -332 -5 -10 -9 -28 -9 -40
0 -12 -4 -35 -10 -52 -8 -26 -34 -133 -57 -236 -9 -37 -42 -80 -62 -80 -10 0
-28 -12 -42 -26 -33 -36 -125 -104 -141 -104 -7 0 -29 -10 -48 -21 -44 -27
-236 -99 -264 -99 -12 0 -26 -8 -33 -18 -6 -10 -53 -40 -104 -67 -52 -26 -107
-58 -124 -70 -16 -13 -48 -32 -70 -44 -44 -23 -46 -25 -154 -94 -101 -65 -128
-79 -154 -75 -16 2 -21 -2 -19 -14 2 -13 -4 -18 -23 -18 -14 0 -25 5 -25 10 0
6 -6 10 -14 10 -18 0 -59 88 -52 113 7 27 -10 57 -32 57 -28 0 -44 21 -30 37
9 12 7 13 -15 8 -23 -6 -27 -4 -28 16 -1 17 -3 19 -6 7 -4 -18 -24 -24 -36
-11 -4 3 -2 13 5 20 9 11 9 16 -1 22 -11 7 -14 22 -9 64 1 10 12 26 25 34 19
13 23 24 23 68 0 35 5 57 15 65 8 7 15 18 15 24 0 6 11 27 24 47 43 63 97 172
94 189 -2 9 4 25 12 35 16 20 16 100 0 120 -9 11 -16 11 -35 1 -27 -14 -76
-70 -79 -89 -1 -8 -18 -28 -37 -45 -20 -17 -49 -60 -65 -95 -19 -43 -40 -72
-62 -86 -18 -12 -30 -26 -27 -31 3 -6 -10 -17 -29 -27 -21 -10 -39 -27 -45
-45 -6 -15 -16 -28 -22 -28 -14 0 -75 -66 -116 -125 -16 -22 -35 -44 -43 -49
-8 -5 -25 -20 -37 -32 -46 -46 -94 -53 -108 -16 -14 36 -16 150 -5 212 6 36
16 103 20 150 10 96 25 208 40 292 6 32 11 100 11 150 1 51 6 106 12 123 l11
29 7 -24 c5 -19 7 -13 8 22 1 26 7 67 15 90 8 24 16 80 18 126 5 81 4 82 -19
82 -27 0 -31 18 -5 27 9 4 20 11 23 16 4 5 5 84 3 176 -4 146 -6 169 -24 193
-11 15 -20 32 -20 38 0 5 -4 10 -10 10 -14 0 -13 73 1 87 8 8 7 21 -2 47 -11
29 -11 43 0 71 7 19 13 49 13 66 1 23 7 33 26 40 14 5 26 8 28 6 8 -7 33 -120
29 -127 -3 -5 0 -10 6 -12 6 -2 11 -57 13 -148 1 -80 6 -153 11 -163 4 -11 8
-52 9 -93 1 -41 4 -74 9 -74 4 0 7 -5 7 -11 0 -6 9 -23 19 -38 14 -19 22 -52
26 -102 4 -41 13 -96 22 -123 9 -27 15 -75 15 -107 -1 -43 4 -61 19 -77 10
-12 19 -25 19 -30 0 -5 11 -29 25 -53 14 -24 28 -52 31 -61 4 -10 15 -18 25
-18 23 0 24 13 3 31 -15 12 -14 15 5 30 12 10 20 28 20 45 -1 42 11 85 32 116
11 14 19 32 19 39 0 10 3 10 12 1 17 -17 48 -15 48 2 0 8 -4 17 -9 21 -10 5 4
59 20 80 4 6 7 21 6 35 0 14 10 67 22 119 13 51 25 109 27 130 2 20 5 47 6 61
2 14 -1 36 -7 50 -12 29 -13 109 -1 128 4 7 4 22 0 34 -6 21 -6 21 -20 -3
l-13 -24 -9 25 c-6 15 -6 30 -1 36 5 6 7 18 3 27 -4 10 1 16 16 19 19 3 22 11
26 78 11 158 12 205 3 216 -10 12 25 162 47 207 8 15 33 39 55 53 22 14 54 38
71 55 17 16 35 29 39 29 5 0 9 7 9 16 0 10 6 14 15 10 8 -3 15 -2 15 2 0 10
81 47 94 44 5 -2 19 7 32 19 14 13 29 19 40 15 9 -3 23 -1 30 5 11 9 18 8 29
-1 23 -19 19 -26 -25 -44 -22 -9 -40 -21 -40 -26 0 -17 -70 -74 -93 -75 -11
-1 -29 -14 -39 -28 -11 -15 -26 -27 -34 -27 -7 0 -21 -12 -31 -26 -9 -14 -27
-30 -40 -35 -13 -5 -23 -16 -23 -26 0 -10 -14 -32 -30 -50 -17 -18 -30 -39
-30 -47 0 -9 -5 -16 -10 -16 -6 0 -5 -6 2 -14 11 -11 15 -11 26 5 7 11 24 19
38 19 13 0 24 5 24 12 0 20 32 48 57 48 25 0 31 15 11 24 -10 5 -10 7 0 12 6
3 12 14 12 25 0 13 7 19 23 19 13 0 32 9 42 20 10 11 23 20 30 20 7 0 20 9 30
20 14 16 31 20 77 20 l58 0 0 40 c0 39 1 40 34 40 30 0 33 3 29 21 -5 19 -4
20 14 8 11 -7 29 -9 39 -5 11 4 57 9 104 12 64 3 92 9 112 24 15 11 34 20 42
20 22 0 66 22 66 32 0 5 5 6 12 2 6 -4 16 -1 22 7 12 16 48 34 86 45 14 4 37
17 52 29 15 13 41 29 58 36 16 8 30 17 30 21 0 3 18 9 40 13 22 4 40 10 40 15
0 11 55 32 75 28 11 -2 24 8 35 27 13 24 32 35 91 55 41 14 79 30 86 36 6 6
32 17 58 24 53 15 92 55 74 76 -9 11 -7 15 7 20 11 4 60 48 109 98 56 57 111
103 145 121 30 15 80 47 111 71 31 23 67 45 80 49 34 11 100 58 148 105 22 22
47 40 56 40 8 0 15 7 15 15 0 16 18 20 36 7z m-13886 -11 c0 -18 -63 -136 -67
-125 -2 6 8 33 22 59 14 26 25 54 25 61 0 8 5 14 10 14 6 0 10 -4 10 -9z
m6950 -45 c0 -3 -4 -8 -10 -11 -5 -3 -10 -1 -10 4 0 6 5 11 10 11 6 0 10 -2
10 -4z m-407 -96 c-1 -18 -6 -35 -11 -39 -5 -3 -12 -19 -15 -36 -12 -69 -87
-217 -177 -350 -27 -39 -67 -111 -137 -245 -33 -62 -34 -69 -28 -140 15 -206
17 -323 5 -378 -11 -54 -10 -61 11 -101 12 -24 30 -46 40 -48 9 -3 20 -12 23
-21 3 -10 14 -30 24 -47 15 -26 53 -119 82 -205 5 -14 14 -52 20 -85 7 -33 18
-70 26 -82 8 -12 14 -29 14 -37 0 -8 6 -17 13 -20 10 -5 10 -7 0 -12 -7 -3
-13 -12 -13 -20 0 -21 -18 -17 -38 8 -9 12 -29 33 -43 47 -24 24 -36 44 -74
121 -7 14 -30 34 -51 45 -33 17 -38 25 -36 48 3 22 -1 27 -17 27 -24 0 -24 2
-10 -38 5 -16 18 -32 28 -35 14 -3 17 -11 14 -29 -3 -18 4 -35 26 -60 17 -20
31 -40 31 -46 0 -6 6 -13 13 -15 6 -3 3 -6 -8 -6 -29 -1 -64 33 -132 129 -78
112 -89 140 -72 183 7 17 21 43 31 56 16 21 17 27 4 45 -7 12 -17 37 -21 56
-4 19 -16 46 -26 59 -11 13 -24 42 -29 65 -6 22 -14 48 -17 56 -3 8 -5 42 -4
75 0 33 -3 78 -7 100 -9 49 -10 48 -106 -104 -79 -126 -109 -150 -147 -115
-10 9 -19 27 -19 38 0 22 27 104 39 121 4 5 14 30 22 55 30 96 120 251 172
295 35 30 50 37 87 37 3 1 19 -2 35 -5 29 -5 35 -1 77 56 50 68 123 205 134
252 6 28 16 47 81 163 28 51 104 167 125 193 32 39 64 33 61 -11z m-6641 -52
c-3 -13 -9 -26 -14 -29 -5 -3 -10 -16 -13 -29 -2 -12 -7 -25 -10 -28 -8 -9 -6
25 4 50 5 13 12 31 15 41 8 25 25 21 18 -5z m7668 -21 c0 -4 -6 -2 -14 5 -8 7
-12 17 -9 22 5 8 23 -12 23 -27z m-100 -7 c0 -5 -7 -10 -15 -10 -8 0 -15 5
-15 10 0 6 7 10 15 10 8 0 15 -4 15 -10z m70 -29 c0 -6 -4 -13 -10 -16 -5 -3
-10 1 -10 9 0 9 5 16 10 16 6 0 10 -4 10 -9z m-7701 -70 c-8 -17 -17 -31 -20
-31 -4 0 -9 -10 -12 -22 -4 -12 -9 -19 -13 -15 -8 8 15 67 26 67 4 0 10 10 13
22 4 12 9 19 13 16 3 -4 0 -21 -7 -37z m6829 -100 c20 -25 26 -60 13 -87 -6
-14 -11 -34 -11 -46 0 -23 42 -117 74 -162 13 -20 19 -43 17 -73 -2 -37 1 -43
19 -43 15 0 20 -6 20 -25 0 -13 11 -88 24 -167 44 -261 66 -531 47 -566 -10
-18 -9 -23 4 -28 16 -7 21 -34 5 -34 -5 0 -14 9 -20 20 -7 13 -18 19 -28 16
-22 -7 -46 37 -62 114 -7 30 -22 74 -35 96 -15 28 -19 47 -13 57 5 9 4 18 -2
22 -14 9 -30 -38 -23 -66 5 -17 3 -21 -9 -17 -8 4 -19 3 -25 0 -16 -11 -25
-50 -13 -57 5 -3 10 -26 10 -51 0 -27 6 -52 15 -60 8 -9 16 -30 16 -47 2 -38
5 -61 14 -104 5 -21 4 -33 -3 -33 -5 0 -13 -11 -16 -25 -6 -22 -9 -24 -27 -14
-11 6 -25 24 -31 40 -6 16 -17 29 -27 29 -20 0 -41 51 -34 81 5 19 3 21 -19
16 -14 -4 -32 -1 -41 6 -26 18 -57 115 -57 174 0 54 -30 137 -70 193 -28 40
-51 165 -44 239 6 55 5 61 -20 86 -32 32 -30 57 8 102 13 15 31 54 40 85 9 31
21 60 26 63 6 3 10 23 10 44 0 21 6 44 14 50 21 17 47 100 40 127 -8 33 36 60
98 57 26 -1 50 2 54 8 8 13 46 1 62 -20z m-6883 -10 c-7 -23 -25 -29 -25 -8 0
14 21 39 28 33 2 -3 1 -14 -3 -25z m9225 -15 c0 -13 3 -33 7 -43 3 -11 -3 -7
-16 10 -13 15 -20 34 -17 42 9 24 26 17 26 -9z m1400 -15 c12 -30 7 -51 -11
-51 -5 0 -13 8 -16 18 -4 9 -10 20 -15 23 -12 8 1 39 17 39 7 0 18 -13 25 -29z
m-10655 -16 c-3 -8 -7 -22 -10 -31 -3 -8 -9 -13 -15 -9 -6 4 -5 15 2 30 12 27
30 35 23 10z m8144 -82 c1 -7 -3 -13 -9 -13 -5 0 -10 15 -9 33 0 27 2 29 9 12
5 -11 9 -26 9 -32z m-8177 10 c-5 -10 -12 -25 -15 -33 -3 -8 -6 0 -6 18 -1 22
4 32 14 32 12 0 13 -5 7 -17z m7237 -80 c8 -18 18 -33 23 -33 5 0 6 -5 3 -10
-4 -6 0 -21 9 -34 8 -13 25 -55 37 -92 12 -38 25 -73 29 -79 4 -5 10 -28 13
-50 9 -64 19 -99 33 -116 18 -20 30 -79 16 -79 -6 0 -13 -13 -17 -30 -4 -16
-8 -30 -10 -30 -3 0 -22 9 -43 20 -26 14 -45 34 -61 67 -36 72 -61 145 -61
174 0 15 -7 32 -15 39 -9 7 -13 21 -10 31 4 13 1 19 -9 19 -9 0 -16 8 -16 18
0 10 -7 28 -16 40 -22 32 -10 62 27 62 24 0 29 4 29 23 0 13 5 28 11 34 8 8 8
17 0 31 -6 11 -11 31 -11 44 0 22 0 22 13 3 7 -11 19 -35 26 -52z m-7287 -27
c-11 -22 -37 -78 -59 -123 -36 -78 -53 -100 -53 -68 0 20 22 65 32 65 4 0 8 7
8 15 0 8 4 23 9 33 6 9 25 49 43 87 21 47 33 64 36 51 2 -10 -5 -37 -16 -60z
m8238 54 c0 -5 -7 -10 -16 -10 -8 0 -12 5 -9 10 3 6 10 10 16 10 5 0 9 -4 9
-10z m-630 -279 c0 -17 -4 -33 -10 -36 -5 -3 -10 -26 -10 -51 0 -50 -9 -56
-27 -17 -18 38 -16 61 8 99 25 42 39 43 39 5z m-7728 -26 c-2 -14 -6 -25 -8
-25 -2 0 -4 11 -4 25 0 14 4 25 9 25 4 0 6 -11 3 -25z m-31 -53 c-6 -2 -11
-17 -11 -33 0 -16 -4 -29 -10 -29 -5 0 -10 -6 -10 -14 0 -21 -43 -92 -48 -78
-2 6 9 37 23 69 15 32 34 74 43 93 13 29 17 31 20 15 2 -10 -1 -21 -7 -23z
m9412 -5 c-9 -15 -21 4 -15 25 5 21 6 21 12 2 4 -10 5 -22 3 -27z m-123 -237
c0 -5 -8 -10 -17 -10 -15 0 -16 2 -3 10 19 12 20 12 20 0z m-1600 -97 c0 -7
-4 -13 -8 -13 -16 0 -30 22 -25 41 5 18 6 19 19 2 7 -10 14 -24 14 -30z m108
2 c-3 -3 -9 2 -12 12 -6 14 -5 15 5 6 7 -7 10 -15 7 -18z m4322 5 c0 -5 -2
-10 -4 -10 -3 0 -8 5 -11 10 -3 6 -1 10 4 10 6 0 11 -4 11 -10z m-4290 -90 c0
-11 3 -20 8 -20 4 0 16 -28 26 -62 11 -35 25 -70 32 -78 12 -15 17 -40 15 -70
-2 -29 -27 13 -45 75 -10 33 -20 67 -23 75 -4 8 -5 20 -4 26 0 6 -6 17 -14 24
-17 14 -20 50 -5 50 6 0 10 -9 10 -20z m7081 0 c5 0 9 -7 9 -15 0 -8 7 -15 15
-15 25 0 44 -42 44 -99 -1 -29 3 -56 9 -60 5 -3 12 -45 16 -92 7 -84 0 -128
-41 -260 -5 -17 -47 -21 -70 -6 -13 8 -83 -22 -83 -35 0 -14 -54 -78 -65 -78
-12 -1 -65 -46 -65 -56 0 -4 -7 -16 -17 -26 -19 -21 -48 -23 -86 -5 -21 9 -27
19 -27 43 0 17 6 37 14 43 8 7 18 26 22 44 6 31 44 117 110 252 19 39 34 79
34 90 0 11 7 33 15 49 8 15 15 38 15 50 0 42 31 114 51 119 10 3 22 13 26 24
9 24 35 44 51 38 8 -3 18 -5 23 -5z m-8726 -18 c28 -20 38 -63 32 -134 -7 -75
-6 -76 41 -151 21 -33 29 -37 64 -37 32 0 51 -8 92 -41 66 -52 185 -189 186
-212 0 -31 27 -71 71 -107 23 -19 48 -49 56 -67 8 -21 20 -33 32 -33 12 0 23
-11 30 -30 5 -16 8 -30 5 -30 -3 0 11 -16 32 -35 20 -19 32 -35 25 -35 -6 0
-11 -11 -11 -25 0 -37 -37 -69 -81 -69 -21 -1 -41 -4 -45 -9 -4 -4 -16 1 -27
10 -11 10 -18 14 -15 8 11 -19 -114 -10 -152 10 -19 11 -39 20 -45 21 -5 0
-17 4 -25 7 -8 3 -28 7 -45 9 -31 3 -45 24 -91 133 -9 22 -23 54 -31 70 -8 17
-18 50 -21 75 -7 42 -9 45 -45 51 -20 3 -46 14 -57 24 -11 10 -23 15 -26 12
-14 -13 -9 -241 4 -266 19 -32 20 -134 3 -155 -10 -12 -11 -19 -2 -30 8 -10 5
-19 -14 -40 -24 -26 -24 -27 -8 -69 9 -23 22 -49 30 -58 7 -8 13 -22 13 -31 0
-8 3 -18 7 -22 12 -11 33 -80 33 -107 0 -17 8 -29 24 -37 15 -7 27 -23 31 -44
4 -18 11 -37 15 -43 9 -12 47 -78 67 -117 8 -16 19 -28 24 -28 5 0 9 -6 9 -14
0 -7 10 -24 23 -37 14 -15 24 -39 26 -64 1 -22 7 -44 12 -49 5 -6 9 -14 9 -20
0 -6 -5 -5 -12 2 -7 7 -21 12 -31 12 -16 0 -18 -5 -13 -26 7 -26 6 -26 -26
-20 -18 3 -36 13 -41 22 -5 9 -18 23 -29 33 -11 9 -28 34 -38 57 -10 22 -41
65 -69 95 -28 30 -51 57 -51 61 0 4 -19 20 -41 35 -23 16 -53 36 -68 45 -14
10 -37 18 -50 18 -14 0 -43 9 -66 20 -78 38 -123 170 -81 235 9 14 21 25 27
25 16 0 -1 70 -22 91 -11 11 -19 32 -19 48 0 17 -14 46 -35 74 -28 36 -35 55
-35 89 0 56 25 126 53 149 30 25 83 25 99 -1 18 -28 28 -25 28 8 0 15 6 34 13
41 10 12 9 13 -7 7 -18 -6 -19 -2 -13 66 6 71 31 159 60 216 8 15 22 56 32 92
9 36 24 88 32 115 8 28 18 68 22 90 4 22 14 53 22 70 20 42 76 68 104 47z
m5245 -37 c0 -8 -4 -15 -10 -15 -5 0 -7 7 -4 15 4 8 8 15 10 15 2 0 4 -7 4
-15z m6384 -150 c22 -42 45 -77 56 -80 12 -4 24 -22 30 -44 6 -22 24 -51 43
-67 18 -16 36 -37 40 -46 3 -10 11 -18 17 -18 5 0 10 -9 10 -20 0 -10 8 -24
18 -29 10 -6 30 -26 43 -45 13 -20 30 -36 36 -36 16 0 47 -46 39 -59 -9 -13 4
-41 19 -41 7 0 15 -14 19 -31 3 -17 9 -28 14 -25 4 2 14 1 22 -4 12 -7 12 -13
0 -34 -7 -14 -11 -28 -9 -30 7 -8 88 -10 95 -4 3 4 21 -2 40 -13 19 -10 41
-19 49 -19 8 0 15 -6 15 -13 0 -8 21 -29 47 -48 35 -25 43 -35 30 -37 -19 -4
-23 -27 -5 -38 6 -4 17 1 24 11 16 22 22 19 68 -33 28 -30 36 -46 28 -55 -14
-17 2 -54 27 -62 12 -3 23 -18 27 -33 3 -15 7 -35 9 -45 2 -9 -4 -21 -12 -26
-12 -6 -13 -12 -3 -30 9 -17 9 -26 -1 -37 -6 -8 -8 -15 -3 -15 5 -1 -4 -4 -21
-8 -28 -6 -32 -3 -54 42 -14 29 -34 53 -48 58 -13 5 -22 13 -18 18 3 5 1 13
-5 16 -6 4 -8 15 -5 26 4 13 1 21 -12 26 -10 4 -24 13 -31 20 -7 6 -20 9 -29
6 -16 -6 -16 6 1 48 8 18 -24 59 -47 59 -14 0 -30 32 -28 55 1 11 -65 35 -96
35 -22 1 -53 23 -53 39 0 7 -7 10 -18 7 -12 -4 -29 3 -46 19 -15 14 -35 25
-45 25 -10 0 -24 7 -31 15 -7 8 -9 15 -4 15 16 0 -47 44 -78 55 -17 5 -36 19
-42 30 -6 11 -17 24 -23 28 -7 4 -13 17 -13 27 0 11 -7 20 -15 20 -8 0 -15 9
-15 19 0 11 -9 22 -20 26 -22 7 -80 73 -80 92 0 6 -13 20 -29 29 -26 15 -29
22 -26 55 5 50 20 77 47 81 27 4 40 58 14 58 -8 0 -16 -6 -19 -12 -10 -26 -35
17 -40 70 -6 53 -6 54 26 67 18 8 33 14 33 15 1 0 18 -34 38 -75z m-9877 -97
c-3 -7 -5 -2 -5 12 0 14 2 19 5 13 2 -7 2 -19 0 -25z m-560 -150 c-3 -7 -5 -2
-5 12 0 14 2 19 5 13 2 -7 2 -19 0 -25z m-6070 -60 c-3 -8 -6 -5 -6 6 -1 11 2
17 5 13 3 -3 4 -12 1 -19z m10096 6 c3 -4 2 -16 -4 -26 -13 -24 -35 -9 -26 16
7 17 19 21 30 10z m-10123 -93 c0 -6 -4 -13 -10 -16 -5 -3 -10 1 -10 9 0 9 5
16 10 16 6 0 10 -4 10 -9z m-45 -103 c-2 -7 -10 -26 -16 -43 -7 -16 -13 -37
-15 -45 -2 -8 -7 -23 -12 -35 -32 -69 -37 -82 -51 -135 -5 -19 -9 -30 -10 -25
-1 6 -21 -48 -45 -119 -25 -71 -50 -134 -57 -140 -9 -8 -10 -6 -5 9 5 11 15
43 24 70 9 28 21 53 27 57 5 4 7 8 3 8 -8 0 32 123 42 130 4 3 13 21 18 40 25
82 89 240 97 240 2 0 2 -6 0 -12z m4436 -471 c22 -16 58 -84 65 -122 3 -16 1
-50 -5 -75 -9 -41 -8 -48 20 -91 16 -25 29 -53 29 -62 0 -10 4 -17 9 -17 10 0
28 -25 125 -170 60 -90 244 -272 305 -302 52 -25 126 -93 139 -128 5 -14 7
-53 4 -87 -5 -69 -19 -89 -70 -99 -25 -5 -32 -3 -32 10 0 19 -16 22 -23 4 -3
-10 -7 -10 -19 -1 -8 7 -18 10 -22 5 -4 -4 -12 1 -17 11 -6 9 -19 17 -30 17
-10 0 -36 9 -56 20 -21 11 -45 20 -54 20 -9 0 -27 8 -40 18 -13 9 -49 30 -79
45 -80 42 -174 131 -209 200 -19 37 -46 71 -74 92 -37 28 -48 45 -62 92 -9 32
-21 66 -26 75 -5 10 -9 39 -9 65 0 55 -25 195 -40 223 -24 46 -1 177 45 246
13 20 24 24 63 24 26 0 54 -6 63 -13z m-4652 -119 c-7 -13 -14 -18 -16 -11 -3
7 2 19 9 27 18 20 22 12 7 -16z m-28 -59 c-5 -13 -10 -19 -10 -12 -1 15 10 45
15 40 3 -2 0 -15 -5 -28z m-16 -71 c-4 -18 -13 -46 -20 -63 -6 -16 -20 -55
-29 -85 -10 -30 -20 -62 -23 -70 -3 -8 -7 -22 -9 -30 -6 -30 -26 -96 -40 -129
-8 -18 -17 -53 -21 -77 -3 -24 -9 -41 -13 -39 -5 3 -6 15 -3 28 13 66 27 113
36 125 5 7 8 15 5 18 -3 3 7 44 23 91 16 47 29 92 29 100 0 7 5 13 10 13 6 0
10 7 10 15 0 12 7 37 35 123 9 26 16 10 10 -20z m15010 -225 c19 -25 40 -62
46 -82 13 -44 89 -153 89 -128 0 9 -5 26 -12 37 -18 28 -1 37 22 12 11 -12 20
-24 20 -27 0 -3 22 -38 49 -78 111 -165 113 -168 106 -217 -5 -42 -11 -90 -14
-116 0 -7 -17 -24 -37 -39 -30 -23 -40 -26 -59 -17 -14 6 -23 19 -23 34 -1 74
-49 188 -79 188 -7 0 -13 7 -13 16 0 9 -9 18 -20 21 -11 3 -20 12 -20 19 0 8
-6 17 -14 20 -16 6 -56 76 -62 109 -21 119 -30 154 -46 177 -18 25 -26 117
-12 131 12 11 43 -12 79 -60z m-10689 -34 c18 -30 27 -59 31 -107 4 -63 9 -76
69 -179 11 -18 25 -33 32 -33 8 0 10 -8 6 -24 -8 -31 44 -143 87 -188 41 -42
100 -80 152 -97 21 -7 41 -19 44 -27 3 -8 11 -14 18 -14 21 0 45 -29 45 -54 0
-26 -30 -58 -57 -61 -10 -1 -26 -5 -36 -9 -46 -21 -326 107 -393 179 -17 19
-36 35 -40 35 -17 0 -101 95 -114 128 -9 24 -10 39 -2 60 21 53 32 143 21 164
-15 27 -14 133 1 189 16 58 36 79 76 79 29 0 38 -6 60 -41z m-4507 -350 c-12
-43 -26 -79 -31 -79 -12 0 -10 12 9 75 9 30 21 55 26 55 4 0 6 9 2 20 -3 11
-3 25 2 32 18 30 14 -28 -8 -103z m17041 -59 c1 -19 1 -77 1 -129 0 -51 4
-101 9 -110 4 -9 8 -23 8 -31 -3 -46 3 -70 17 -70 8 0 15 7 15 15 0 8 5 15 10
15 6 0 10 -13 10 -29 0 -29 -19 -55 -21 -29 -1 15 -17 -30 -18 -53 -1 -9 10
-27 24 -41 33 -33 41 -59 51 -153 4 -44 9 -82 10 -85 0 -3 5 -19 9 -37 4 -17
13 -34 21 -37 19 -7 18 -35 -1 -42 -8 -4 -15 -12 -15 -20 0 -17 17 -19 22 -2
3 7 14 9 32 4 23 -6 26 -9 15 -22 -10 -12 -8 -18 9 -30 12 -8 22 -24 22 -36 0
-11 12 -31 26 -44 18 -17 23 -30 19 -44 -7 -22 10 -28 19 -7 3 6 3 -3 0 -20
-4 -26 -2 -33 10 -33 9 0 16 -8 16 -20 0 -12 7 -34 15 -50 8 -16 11 -30 6 -32
-10 -3 7 -82 22 -106 5 -7 4 -19 -4 -28 -6 -8 -9 -18 -5 -21 4 -4 12 -1 17 7
8 12 9 11 5 -5 -2 -11 -7 -42 -11 -68 -4 -30 -11 -47 -18 -44 -15 5 -25 52
-31 143 -2 39 -9 80 -14 90 -25 45 -42 88 -42 105 0 23 -39 99 -51 99 -5 0 -9
7 -9 15 0 8 -17 23 -39 34 l-38 20 -2 -222 c-1 -122 -3 -256 -4 -297 l-2 -75
-40 3 c-22 2 -44 7 -50 12 -5 4 -19 6 -30 4 -36 -7 -67 5 -61 23 4 9 0 23 -7
32 -8 9 -19 32 -25 51 -17 56 -35 275 -25 296 5 11 10 84 11 164 2 132 4 146
22 159 26 18 27 61 2 55 -12 -4 -22 5 -33 30 -9 20 -14 38 -11 40 9 10 11 71
2 110 -6 27 -5 47 3 60 17 31 17 77 0 102 -12 19 -12 38 -2 130 7 60 13 125
14 144 4 70 16 100 46 115 16 9 29 20 29 25 0 5 5 21 11 37 l12 28 8 -30 c5
-16 9 -46 9 -65z m1018 76 c-7 -8 -15 -12 -17 -11 -5 6 10 25 20 25 5 0 4 -6
-3 -14z m-170 -66 c-7 -17 -16 -30 -20 -30 -13 0 -9 18 7 34 8 8 15 23 16 33
0 10 3 13 6 5 2 -6 -1 -26 -9 -42z m160 34 c15 9 6 -137 -11 -180 -9 -23 -14
-59 -12 -82 2 -23 1 -41 -3 -41 -33 5 -41 -4 -52 -58 -7 -32 -19 -63 -28 -69
-9 -7 -13 -19 -9 -32 3 -12 1 -25 -5 -28 -5 -3 -6 -19 -3 -36 6 -24 2 -34 -22
-55 -18 -16 -24 -27 -15 -30 18 -7 15 -31 -7 -42 -20 -11 -43 -59 -45 -94 -1
-17 -6 -21 -23 -19 -28 4 -41 -18 -19 -34 16 -11 14 -15 -19 -49 -34 -33 -41
-36 -75 -30 -31 5 -40 3 -49 -12 -10 -18 -12 -16 -15 9 0 7 -14 19 -31 27 -39
19 -54 39 -54 76 -1 75 -13 125 -30 125 -26 0 -41 20 -41 55 0 17 -7 40 -15
52 -12 17 -13 27 -4 47 10 22 9 29 -6 46 -11 12 -19 37 -20 65 0 25 -6 50 -13
57 -7 7 -12 19 -12 27 0 8 3 11 7 8 3 -4 12 -2 20 5 20 16 88 -8 103 -38 16
-30 44 -42 38 -16 -3 10 1 27 8 37 8 10 14 27 14 37 0 18 8 20 80 21 14 0 32
-2 40 -4 8 -2 14 1 13 7 -1 6 9 22 23 34 24 23 24 23 39 4 14 -18 14 -18 15 9
0 15 -4 27 -8 27 -4 0 -6 16 -4 35 3 25 0 35 -9 36 -8 0 -5 4 6 8 11 4 42 6
68 4 43 -3 55 1 98 33 31 22 49 43 49 56 0 17 3 18 15 8 8 -6 18 -9 23 -6z
m-18091 -106 c-3 -8 -6 -5 -6 6 -1 11 2 17 5 13 3 -3 4 -12 1 -19z m11083 -18
c0 -5 -2 -10 -4 -10 -3 0 -8 5 -11 10 -3 6 -1 10 4 10 6 0 11 -4 11 -10z
m-11114 -127 c-15 -65 -31 -127 -36 -138 -8 -21 -12 -40 -62 -270 -58 -274
-62 -294 -114 -585 -48 -270 -102 -658 -124 -890 -6 -63 -15 -153 -21 -200 -5
-47 -14 -152 -19 -235 -6 -82 -12 -170 -15 -195 -3 -25 -10 -220 -16 -433 -9
-296 -9 -463 1 -705 13 -369 47 -834 79 -1112 5 -47 15 -130 21 -185 6 -55 14
-103 16 -106 2 -4 9 -45 14 -91 5 -45 12 -99 15 -118 28 -182 52 -327 66 -390
5 -25 21 -101 34 -170 14 -69 32 -156 40 -195 9 -38 20 -90 25 -115 4 -25 20
-92 35 -150 15 -58 30 -121 35 -140 5 -19 12 -48 16 -65 3 -16 20 -77 36 -135
44 -157 49 -172 57 -210 5 -19 17 -62 28 -95 11 -33 26 -80 33 -105 7 -25 16
-54 20 -65 4 -11 30 -90 58 -175 58 -177 146 -431 172 -495 4 -11 20 -51 35
-90 15 -38 33 -83 40 -100 8 -16 25 -60 39 -98 14 -37 32 -82 40 -100 7 -17
33 -77 56 -132 53 -124 72 -168 121 -273 22 -46 39 -86 39 -88 0 -2 57 -119
126 -260 81 -165 123 -259 117 -265 -6 -6 -22 -7 -36 -3 -23 5 -44 41 -156
268 -124 252 -171 351 -171 360 0 3 -16 39 -35 80 -19 42 -35 78 -35 81 0 3
-16 43 -36 88 -53 119 -60 136 -83 197 -12 30 -27 66 -33 80 -12 29 -21 51
-38 100 -7 19 -19 49 -26 65 -15 36 -62 170 -111 315 -20 58 -39 114 -44 125
-4 11 -15 45 -25 75 -9 30 -20 64 -24 75 -4 11 -20 61 -34 110 -15 50 -31 98
-36 107 -6 10 -10 27 -10 37 0 11 -4 30 -9 43 -5 13 -14 41 -20 63 -6 22 -22
81 -36 130 -15 50 -31 107 -36 128 -23 92 -31 125 -44 172 -8 28 -17 64 -20
80 -3 17 -10 48 -16 70 -5 22 -14 60 -19 85 -5 25 -17 77 -26 115 -19 84 -33
149 -40 190 -3 17 -9 48 -14 70 -16 68 -69 367 -89 495 -75 485 -101 720 -143
1290 -17 234 -17 1268 0 1480 49 611 71 817 117 1125 15 94 30 197 35 230 17
116 30 185 50 276 11 51 20 105 20 119 0 15 3 30 7 33 3 4 8 22 9 39 2 18 8
51 13 73 6 22 22 99 37 170 14 72 30 139 34 150 5 11 12 40 16 65 3 25 12 56
19 70 13 25 41 136 50 198 3 19 14 60 25 93 11 32 20 66 20 75 0 10 3 14 6 11
4 -4 -5 -60 -20 -124z m18280 46 c13 -27 14 -40 4 -98 -7 -36 -16 -77 -22 -91
-5 -13 -13 -76 -18 -140 -4 -63 -15 -135 -24 -159 -9 -24 -16 -54 -16 -67 0
-33 -19 -111 -40 -164 -23 -55 -50 -144 -50 -161 0 -21 -32 -49 -56 -49 -31 0
-54 36 -54 87 0 23 -4 44 -9 47 -5 3 -14 26 -20 52 -13 52 -6 89 38 184 6 13
38 113 72 226 5 17 9 42 9 57 0 18 11 34 34 52 44 34 44 35 75 184 16 78 48
95 77 40z m-7251 11 c-3 -5 -10 -10 -16 -10 -5 0 -9 5 -9 10 0 6 7 10 16 10 8
0 12 -4 9 -10z m-6743 -261 c21 -11 68 -107 68 -139 0 -10 5 -22 10 -25 8 -5
8 -11 0 -20 -11 -14 -4 -45 11 -45 5 0 12 7 15 15 8 20 33 19 41 -2 4 -10 10
-20 13 -23 4 -3 11 -19 17 -36 10 -29 10 -31 -13 -26 -30 6 -31 -14 -4 -62 14
-22 17 -37 10 -41 -6 -4 -1 -19 15 -39 14 -18 25 -43 25 -55 0 -18 -4 -20 -24
-15 -23 5 -23 4 -16 -33 3 -22 10 -45 14 -52 4 -6 1 -23 -8 -36 -9 -13 -13
-31 -10 -39 6 -15 -18 -17 -32 -3 -4 4 -12 7 -17 7 -6 0 -7 -3 -4 -6 3 -4 2
-16 -4 -26 -8 -14 -8 -23 0 -31 6 -6 11 -25 11 -43 0 -27 -4 -32 -22 -31 -13
1 -34 -3 -46 -7 -21 -7 -23 -6 -17 14 6 20 5 22 -26 15 -27 -6 -31 -5 -26 9 4
9 2 16 -2 16 -5 0 -11 -5 -13 -12 -3 -7 -27 10 -59 40 -30 28 -68 65 -85 81
-36 34 -44 65 -44 165 0 71 24 177 54 238 9 17 16 35 16 40 0 22 77 175 98
196 27 25 27 26 54 11z m9806 -334 c13 -2 29 -9 37 -15 8 -7 20 -8 27 -3 16
10 220 23 408 26 l145 2 0 -27 c-1 -16 -1 -29 0 -29 0 -1 81 -6 180 -10 382
-17 644 -52 731 -96 48 -25 84 -31 119 -20 25 7 42 7 58 0 12 -6 41 -16 64
-22 23 -6 48 -17 55 -24 7 -7 21 -16 32 -20 13 -5 15 -11 8 -20 -6 -6 -11 -16
-11 -22 0 -5 -9 -11 -20 -13 -11 -2 -25 -11 -33 -20 -7 -8 -8 -13 -2 -9 7 4
28 -5 49 -18 29 -20 44 -24 71 -19 19 3 36 10 39 14 3 4 24 4 47 -1 23 -6 44
-6 47 -2 3 4 26 9 50 11 85 7 119 -19 64 -49 -24 -13 -133 -16 -269 -7 -36 3
-46 -2 -73 -31 -17 -18 -31 -38 -31 -45 0 -6 -6 -4 -13 5 -15 20 -99 32 -147
21 -19 -4 -60 -5 -90 0 -46 6 -176 11 -230 8 -8 -1 -40 3 -70 7 -46 7 -55 11
-60 33 -3 14 -17 30 -30 37 -31 16 -154 17 -181 2 -15 -7 -24 -7 -34 1 -8 7
-39 13 -69 14 -39 1 -64 8 -85 24 -23 17 -54 25 -123 32 -127 13 -175 24 -198
45 -17 16 -46 18 -252 20 -128 1 -244 -2 -258 -7 -14 -5 -35 -21 -47 -36 -21
-25 -27 -26 -93 -24 -40 1 -81 -3 -93 -9 -11 -7 -64 -13 -116 -14 -128 -4
-151 -9 -171 -35 -12 -16 -23 -21 -35 -16 -13 4 -16 2 -11 -9 4 -12 0 -14 -19
-9 -14 4 -32 1 -40 -6 -8 -7 -26 -10 -39 -6 -13 3 -36 -1 -52 -9 -16 -8 -37
-15 -47 -15 -10 0 -29 -11 -42 -24 -22 -23 -26 -23 -35 -8 -9 16 -11 16 -25
-2 -8 -11 -15 -16 -15 -12 0 5 -6 4 -12 -1 -7 -6 -35 -13 -62 -17 -45 -6 -65
-18 -66 -38 0 -5 7 -8 15 -8 8 0 15 -4 15 -10 0 -5 -9 -10 -21 -10 -12 0 -35
-6 -52 -14 -130 -57 -233 -104 -342 -156 -165 -79 -202 -93 -231 -86 -17 5
-24 12 -20 21 3 8 1 17 -4 20 -20 13 -10 63 16 84 15 12 34 35 43 53 10 20 34
43 62 58 26 14 65 37 88 53 22 15 49 27 58 27 10 0 27 7 37 15 11 8 27 15 37
15 9 0 58 20 108 45 78 39 91 49 91 70 0 20 10 29 57 51 32 14 78 32 103 40
25 8 54 19 65 23 75 32 125 51 135 51 13 0 70 23 110 45 13 7 28 27 32 43 7
27 13 31 70 40 35 6 109 14 166 17 57 3 115 10 128 16 14 5 55 9 92 10 37 1
78 5 92 9 14 5 41 7 60 4 19 -3 45 -7 58 -9z m-9571 -21 c-3 -3 -12 -4 -19 -1
-8 3 -5 6 6 6 11 1 17 -2 13 -5z m11666 -202 c-4 -15 -15 -19 -61 -19 -31 0
-49 2 -39 4 9 2 17 8 17 13 0 8 25 14 72 19 11 1 15 -5 11 -17z m-6773 -22 c0
-5 -5 -10 -11 -10 -5 0 -7 5 -4 10 3 6 8 10 11 10 2 0 4 -4 4 -10z m6603 -7
c-7 -2 -21 -2 -30 0 -10 3 -4 5 12 5 17 0 24 -2 18 -5z m433 -92 c-3 -27 -9
-59 -15 -70 -6 -11 -11 -31 -11 -45 0 -14 -5 -28 -11 -32 -8 -4 -8 -9 -1 -13
6 -3 12 -20 15 -36 3 -22 9 -30 23 -30 16 0 19 7 19 45 0 51 16 87 35 75 15
-9 5 -110 -15 -140 -25 -40 -8 -287 24 -360 5 -11 14 -51 21 -90 10 -60 10
-74 -4 -100 -21 -40 -20 -58 4 -73 11 -7 20 -20 20 -30 0 -9 7 -26 15 -36 19
-25 19 -36 1 -36 -7 0 -21 -12 -31 -26 -13 -21 -14 -31 -6 -56 6 -17 11 -46
11 -64 0 -30 -3 -34 -26 -34 -32 0 -64 17 -64 34 0 8 -23 37 -50 66 -49 52
-52 53 -85 43 -42 -13 -57 8 -18 26 13 6 23 17 20 24 -2 6 2 17 10 22 11 8 9
18 -11 55 -13 25 -31 46 -39 48 -25 5 -8 30 24 37 34 8 38 30 10 59 -12 12
-23 44 -27 75 -6 49 -5 54 10 48 14 -6 16 -3 10 15 -7 24 -57 78 -71 78 -14 0
-43 39 -43 59 0 13 10 20 32 25 68 13 78 55 22 88 -29 17 -33 23 -21 30 9 4
26 4 39 -1 18 -7 30 -4 52 14 23 19 28 29 25 61 -4 52 10 111 27 118 20 8 17
19 -12 51 -40 43 -17 95 51 117 42 13 45 10 41 -41z m-12342 -267 c20 -8 20
-21 1 -58 -16 -31 -8 -45 23 -46 8 0 0 -13 -16 -30 -34 -34 -42 -37 -42 -15 0
8 -4 16 -10 16 -5 1 -14 2 -19 3 -31 4 -42 55 -22 104 11 25 19 32 41 32 16 0
35 -3 44 -6z m13206 -174 c24 -19 24 -20 4 -20 -12 0 -32 9 -45 20 -23 18 -23
19 -4 19 11 1 31 -8 45 -19z m-13162 -27 c-16 -10 -28 -21 -28 -25 0 -5 -13
-8 -30 -8 -16 0 -30 5 -30 10 0 6 6 10 14 10 8 0 16 6 19 13 3 7 22 14 43 15
l39 2 -27 -17z m13288 -13 c8 0 14 -5 14 -12 0 -6 8 -20 18 -31 9 -11 13 -18
7 -16 -47 22 -71 35 -75 40 -3 3 -14 11 -25 18 -18 11 -16 12 14 7 18 -3 40
-6 47 -6z m-1557 -394 c-12 -10 -59 -15 -59 -6 0 5 14 10 32 10 17 0 29 -2 27
-4z m291 -117 c0 -33 -16 -36 -34 -6 -8 13 -7 20 4 27 24 16 30 12 30 -21z
m73 -2 c-3 -5 -10 -4 -15 1 -6 6 -7 16 -3 22 6 9 9 9 16 -1 4 -7 5 -17 2 -22z
m-12368 3 c-3 -5 -10 -10 -16 -10 -5 0 -9 5 -9 10 0 6 7 10 16 10 8 0 12 -4 9
-10z m3558 -3 c20 0 24 -3 17 -12 -16 -19 2 -27 21 -9 19 17 67 16 196 -4 100
-16 109 -35 21 -46 -81 -9 -183 -43 -294 -97 -56 -27 -107 -49 -114 -49 -8 0
-10 -8 -6 -26 9 -36 -2 -64 -25 -64 -10 0 -19 -5 -19 -10 0 -16 29 -23 44 -11
10 8 16 8 26 -4 12 -14 30 -25 113 -67 46 -23 49 -43 6 -34 -18 3 -42 0 -58
-8 -59 -30 -90 -35 -127 -20 -43 18 -76 14 -128 -15 -23 -13 -51 -21 -70 -19
-25 2 -32 8 -34 31 -2 17 -9 27 -20 27 -16 1 -16 2 1 14 9 7 17 18 17 25 0 6
7 11 15 11 8 0 15 7 15 15 0 19 36 39 45 25 5 -8 11 -7 21 1 17 14 19 39 3 39
-7 0 -9 9 -6 22 4 12 2 28 -4 34 -12 15 1 44 42 92 16 18 29 39 29 46 0 8 13
28 29 45 24 26 37 31 73 31 24 0 49 5 55 11 21 21 58 37 73 31 8 -3 27 -5 43
-5z m-3507 -29 c-3 -18 -7 -39 -8 -46 -1 -6 -25 -30 -55 -52 -44 -34 -56 -39
-73 -30 -26 14 -25 19 5 60 14 19 25 40 25 47 0 7 7 10 15 7 8 -4 15 -1 15 5
0 6 9 11 20 11 11 0 23 7 26 15 4 8 13 15 21 15 12 0 14 -7 9 -32z m12306 -37
c-4 -29 -3 -29 39 -28 33 1 45 -3 47 -15 2 -12 -6 -16 -39 -16 -24 -1 -51 4
-61 9 -14 7 -18 6 -18 -6 0 -8 -4 -15 -10 -15 -5 0 -10 7 -10 16 0 9 -9 18
-20 21 -30 8 -21 37 13 41 15 2 27 8 27 13 0 5 8 9 18 9 15 0 18 -6 14 -29z
m-4232 -45 c0 -3 -4 -8 -10 -11 -5 -3 -10 -1 -10 4 0 6 5 11 10 11 6 0 10 -2
10 -4z m-99 -119 c-16 -16 -26 0 -10 19 9 11 15 12 17 4 2 -6 -1 -17 -7 -23z
m-8368 -87 c51 -5 180 -14 287 -20 340 -18 462 -37 640 -97 130 -45 162 -65
158 -102 -2 -17 -13 -30 -30 -39 -16 -7 -28 -16 -28 -20 1 -17 17 -29 37 -28
12 0 21 -3 20 -9 -3 -13 -35 -8 -142 21 -103 27 -129 32 -240 40 -44 3 -105
11 -135 17 -50 11 -130 14 -296 9 -45 -2 -67 -7 -84 -22 -21 -18 -25 -18 -40
-5 -9 8 -34 14 -60 13 -49 -1 -146 7 -255 21 -38 4 -74 5 -80 1 -5 -4 -26 -11
-45 -15 -19 -4 -41 -11 -50 -15 -8 -5 -35 -14 -60 -21 -62 -18 -334 -126 -378
-150 -19 -11 -49 -21 -66 -21 -17 0 -39 -7 -48 -16 -16 -14 -18 -13 -18 4 0
11 -6 26 -12 33 -11 10 -10 14 5 22 11 7 17 22 17 48 0 45 29 86 108 151 120
98 273 167 437 198 69 13 248 14 358 2z m8287 6 c0 -3 -4 -8 -10 -11 -5 -3
-10 -1 -10 4 0 6 5 11 10 11 6 0 10 -2 10 -4z m4833 -50 c4 -10 0 -12 -14 -9
-10 3 -16 9 -13 14 8 13 21 11 27 -5z m-8493 -26 c0 -5 -10 -10 -22 -10 -19 0
-20 2 -8 10 19 13 30 13 30 0z m-4620 -274 c26 -13 60 -23 74 -23 14 0 39 -12
56 -27 17 -14 35 -26 40 -26 5 0 15 -7 24 -15 12 -12 19 -13 33 -4 14 8 30 6
73 -11 30 -12 69 -27 87 -34 18 -7 40 -19 50 -27 27 -23 71 -39 105 -39 17 0
28 -3 25 -7 -4 -3 0 -15 10 -25 9 -10 12 -18 7 -18 -12 0 -104 30 -126 41 -10
5 -38 9 -63 9 -25 0 -45 4 -45 9 0 5 -9 7 -20 4 -11 -3 -20 -7 -20 -9 0 -10
84 -79 96 -79 7 0 20 -9 28 -20 11 -16 17 -17 29 -7 12 10 20 7 47 -19 23 -23
34 -29 42 -21 8 8 15 9 25 1 18 -15 16 -39 -2 -39 -9 0 -18 -7 -22 -16 -7 -18
-63 -10 -76 12 -6 11 -13 12 -30 3 -14 -8 -22 -8 -25 -1 -1 5 -11 8 -22 5 -10
-3 -29 2 -41 10 -11 9 -28 13 -35 10 -23 -9 -16 -23 11 -23 14 0 28 -7 31 -15
4 -8 12 -15 19 -15 8 0 26 -10 42 -23 15 -13 44 -29 63 -37 19 -7 46 -21 60
-30 14 -10 43 -23 65 -30 22 -7 45 -17 52 -22 6 -5 44 -26 85 -47 92 -46 121
-66 117 -80 -3 -7 -18 -4 -44 8 -22 10 -96 40 -165 67 -122 48 -127 49 -220
46 -55 -1 -106 2 -122 9 -30 12 -38 29 -14 29 28 0 5 39 -28 46 -17 3 -35 10
-41 14 -5 4 -25 10 -42 13 -18 4 -53 16 -77 27 -25 11 -51 20 -59 20 -8 0 -26
9 -40 20 -14 11 -31 20 -37 20 -7 0 -24 8 -38 18 -15 11 -49 30 -76 43 -27 13
-54 32 -60 42 -15 24 -21 22 -45 -17 -20 -32 -23 -67 -8 -82 4 -4 7 -20 7 -36
0 -15 5 -28 10 -28 6 0 10 -9 10 -19 0 -11 -6 -18 -15 -17 -24 3 -37 22 -39
53 -1 17 -16 43 -39 68 -21 22 -40 52 -44 67 -3 15 -11 29 -19 32 -11 4 -13
-7 -9 -56 3 -33 10 -68 15 -78 14 -27 13 -30 -12 -27 -18 1 -24 -4 -26 -25 -4
-37 110 -151 198 -197 71 -37 114 -70 208 -160 35 -34 68 -61 72 -61 10 0 39
-28 121 -118 58 -63 99 -129 92 -148 -2 -6 6 -14 19 -18 19 -5 20 -8 8 -16
-12 -8 -11 -10 7 -10 12 0 35 -11 51 -25 17 -14 35 -25 41 -25 6 0 11 -4 11
-10 0 -5 7 -10 16 -10 13 0 14 -3 4 -15 -10 -12 -15 -12 -33 0 -29 19 -103 30
-111 17 -9 -16 13 -58 38 -71 11 -7 29 -30 38 -51 9 -23 23 -40 32 -40 9 0 16
-4 16 -8 0 -5 25 -35 55 -68 30 -32 55 -64 55 -70 0 -13 39 -49 63 -57 9 -4
22 -18 29 -32 6 -14 15 -25 20 -25 13 0 128 -117 128 -130 0 -5 4 -10 9 -10
13 0 121 -110 121 -124 1 -15 36 -56 48 -56 5 0 25 -13 43 -30 19 -16 39 -30
46 -30 6 0 20 -11 31 -25 11 -14 23 -25 28 -25 17 0 44 -35 44 -57 0 -39 17
-61 70 -87 28 -14 61 -37 74 -51 13 -14 29 -25 36 -25 14 0 74 -42 148 -104
26 -21 60 -45 77 -53 31 -14 66 -34 75 -43 3 -3 16 -10 30 -16 14 -6 51 -23
82 -38 31 -14 66 -26 77 -26 11 0 26 -6 33 -12 19 -18 56 -38 69 -38 6 0 54
-25 107 -56 53 -32 122 -71 152 -87 30 -17 62 -36 70 -44 24 -22 83 -62 108
-73 12 -5 29 -15 38 -22 8 -7 20 -18 27 -23 7 -6 29 -19 50 -30 20 -11 37 -24
37 -30 0 -6 13 -19 30 -28 18 -11 27 -23 23 -32 -7 -19 -17 -19 -33 0 -7 8
-17 12 -22 9 -6 -4 -13 -2 -17 3 -3 5 -35 24 -71 42 -36 19 -76 41 -90 51 -14
9 -38 20 -55 24 -16 4 -37 13 -45 20 -8 7 -34 22 -57 32 -23 10 -43 25 -43 32
0 6 -6 12 -14 12 -8 0 -59 18 -114 40 -54 22 -102 40 -106 40 -3 0 -24 11 -45
25 -22 13 -52 27 -68 31 -15 4 -40 15 -54 25 -14 10 -50 28 -80 39 -30 12 -58
25 -64 30 -5 4 -29 13 -52 19 -23 6 -48 17 -55 24 -7 6 -29 20 -48 30 -86 43
-145 78 -148 87 -2 6 -15 10 -28 10 -13 0 -24 5 -24 10 0 6 -9 10 -19 10 -27
0 -123 49 -116 60 3 4 -2 10 -10 14 -8 3 -15 1 -15 -4 0 -6 -18 -10 -40 -10
-27 0 -40 4 -40 14 0 7 -24 25 -53 40 -29 14 -63 39 -75 56 -22 29 -51 38 -86
24 -12 -5 -13 -10 -5 -25 5 -11 7 -24 4 -28 -3 -5 3 -26 12 -45 15 -31 22 -35
43 -31 19 4 21 3 10 -4 -11 -8 -5 -12 28 -17 31 -5 42 -11 42 -24 0 -10 13
-23 30 -30 17 -7 30 -16 30 -21 0 -13 -4 -12 -67 22 -49 27 -65 30 -105 26
-28 -4 -48 -2 -48 3 0 6 -8 10 -18 10 -10 0 -27 7 -38 15 -24 18 -77 20 -72 3
3 -7 23 -25 46 -41 46 -31 60 -60 40 -84 -10 -13 -11 -17 0 -21 10 -3 10 -7 1
-18 -9 -11 -7 -14 12 -14 24 0 95 -49 72 -50 -7 0 -10 -7 -7 -15 4 -8 1 -15
-5 -15 -6 0 -11 4 -11 9 0 24 -33 41 -78 40 -26 -1 -68 6 -94 15 -39 14 -51
14 -68 4 -11 -7 -20 -16 -20 -19 0 -3 -17 -5 -37 -4 -48 2 -68 -11 -48 -32 9
-8 13 -19 9 -24 -3 -6 0 -16 6 -24 6 -8 10 -24 8 -37 -2 -19 -10 -23 -45 -26
-26 -2 -43 1 -43 7 0 6 11 11 24 11 28 0 43 17 29 31 -6 6 -25 6 -52 0 -36 -8
-43 -7 -52 11 -6 10 -18 18 -27 16 -11 -3 -23 7 -32 26 -8 16 -24 34 -34 40
-20 12 -27 16 -90 66 -21 16 -44 30 -51 30 -6 0 -48 35 -92 78 -118 114 -172
162 -183 162 -5 0 -10 5 -10 11 0 11 -94 112 -177 191 -18 17 -33 36 -33 41 0
5 -10 19 -22 31 -46 44 -97 107 -103 126 -4 11 -19 27 -35 35 -33 17 -82 106
-78 139 2 13 -3 21 -12 22 -53 2 -105 42 -97 73 8 33 -24 22 -36 -11 -3 -10
-11 -18 -16 -18 -12 0 -81 83 -81 98 0 6 12 22 26 36 31 28 28 53 -22 171 -7
17 -23 58 -35 93 -26 75 -72 117 -82 75 -3 -13 -6 -9 -11 12 -4 17 -15 48 -24
70 -14 31 -17 72 -17 195 0 147 2 162 37 290 52 192 69 236 100 258 10 7 18
20 18 28 0 8 7 14 15 14 20 0 19 29 0 37 -13 5 -13 8 5 20 17 12 23 12 41 -1
20 -13 26 -11 88 31 36 25 79 56 94 69 22 18 41 24 77 24 49 0 70 6 145 42 38
17 79 27 203 48 30 5 57 12 60 15 14 14 143 -6 192 -29z m11223 -23 c-7 -2
-21 -2 -30 0 -10 3 -4 5 12 5 17 0 24 -2 18 -5z m-6128 -25 c60 -16 57 -28 -7
-28 -70 0 -98 8 -91 26 6 17 38 18 98 2z m5629 -44 c9 -3 16 -15 16 -25 0 -23
-36 -25 -65 -3 -17 13 -18 16 -5 24 18 11 32 12 54 4z m371 -3 c6 -1 2 -6 -7
-12 -10 -5 -46 -11 -80 -11 -35 -1 -66 -6 -69 -10 -3 -5 -18 -2 -34 6 l-28 15
24 5 c46 10 136 13 194 7z m-225 -21 c0 -5 -4 -10 -10 -10 -5 0 -10 5 -10 10
0 6 5 10 10 10 6 0 10 -4 10 -10z m-9430 -140 c46 -27 84 -50 86 -50 1 0 35
-19 76 -43 40 -23 90 -51 112 -62 21 -11 57 -36 80 -55 22 -20 57 -47 76 -62
19 -14 48 -38 65 -53 16 -16 83 -68 150 -117 127 -94 194 -146 260 -203 22
-20 65 -54 95 -78 46 -36 51 -42 33 -45 -12 -2 -47 12 -78 32 -30 20 -57 36
-58 36 -7 0 -154 87 -212 124 -152 99 -315 212 -408 284 -31 23 -60 42 -66 42
-5 0 -11 3 -13 8 -12 28 -126 92 -165 92 -24 0 -115 46 -200 100 -31 20 -29
54 3 79 40 32 73 26 164 -29z m2147 -6 c-3 -3 -12 -4 -19 -1 -8 3 -5 6 6 6 11
1 17 -2 13 -5z m177 -30 c11 -8 28 -14 38 -14 10 0 23 -9 30 -20 7 -11 19 -20
26 -20 7 0 10 -4 7 -10 -3 -5 1 -10 9 -10 9 0 16 -4 16 -10 0 -12 -25 -13 -48
-1 -9 5 -48 21 -87 36 -131 51 -145 59 -133 66 18 12 119 -1 142 -17z m-1514
6 c0 -5 -2 -10 -4 -10 -3 0 -8 5 -11 10 -3 6 -1 10 4 10 6 0 11 -4 11 -10z
m235 -81 c77 -35 220 -103 318 -151 98 -48 181 -88 184 -88 11 0 235 -111 276
-137 75 -47 108 -63 130 -63 12 0 51 -19 85 -42 35 -24 72 -48 81 -53 10 -6
33 -22 52 -37 19 -15 49 -39 68 -53 19 -14 31 -25 25 -25 -5 0 -1 -5 9 -11 28
-16 20 -30 -15 -25 -47 6 -109 30 -157 60 -22 14 -42 26 -45 26 -6 0 -242 136
-274 159 -80 54 -200 128 -234 143 -21 9 -38 22 -38 27 0 6 -6 8 -13 5 -7 -2
-26 9 -42 26 -16 16 -39 30 -51 30 -13 0 -26 5 -29 10 -3 6 -25 10 -49 10 -40
0 -175 50 -207 77 -8 6 -28 15 -44 19 -17 4 -42 15 -57 25 -14 11 -31 19 -37
19 -10 0 -82 29 -120 49 -8 4 -20 23 -27 43 l-12 35 42 -8 c23 -4 104 -36 181
-70z m1456 32 c51 4 174 -21 294 -59 30 -10 107 -45 135 -62 74 -44 118 -65
135 -66 11 -1 29 -2 40 -3 20 -2 20 -2 0 -10 -18 -7 -17 -10 15 -40 19 -18 47
-39 62 -47 15 -8 38 -24 52 -36 36 -34 124 -78 141 -71 9 3 21 0 29 -6 25 -21
26 2 1 25 -14 13 -25 28 -25 34 0 21 28 9 73 -30 25 -22 50 -40 56 -40 6 0 11
-3 11 -7 0 -5 17 -19 37 -33 99 -66 133 -101 138 -139 3 -19 13 -40 25 -48 21
-15 28 -43 10 -43 -5 0 -10 3 -10 8 0 7 -10 13 -66 42 -16 8 -31 17 -34 20
-19 19 -89 44 -132 46 -37 3 -67 13 -101 34 -26 16 -52 30 -57 30 -5 0 -11 8
-15 19 -8 25 -153 140 -235 185 -19 11 -64 38 -100 61 -36 24 -77 45 -92 49
-17 4 -28 13 -28 24 -1 24 -21 48 -48 56 -16 6 -22 3 -22 -8 0 -9 4 -16 9 -16
6 0 18 -13 28 -30 9 -16 25 -30 35 -30 10 0 18 -4 18 -10 0 -23 -71 0 -145 48
-27 17 -56 32 -62 32 -7 0 -13 4 -13 10 0 5 -11 12 -25 16 -14 3 -25 12 -25
19 0 7 -11 16 -25 19 -13 3 -33 16 -44 27 -14 16 -28 20 -47 16 -36 -7 -54 1
-47 20 4 10 8 11 13 3 4 -6 23 -11 41 -9z m-3311 -71 c0 -5 -4 -10 -10 -10 -5
0 -10 5 -10 10 0 6 5 10 10 10 6 0 10 -4 10 -10z m4010 -173 c0 -5 -8 -6 -17
-2 -10 4 -23 8 -30 8 -6 0 -11 8 -10 18 1 17 3 17 29 1 15 -9 28 -20 28 -25z
m40 -27 c0 -5 -9 -10 -20 -10 -11 0 -20 5 -20 10 0 6 9 10 20 10 11 0 20 -4
20 -10z m70 -20 c8 -5 11 -12 8 -16 -10 -9 -58 4 -58 16 0 13 30 13 50 0z
m-2327 -1292 c25 -29 56 -66 69 -83 35 -46 33 -45 122 -94 17 -10 48 -20 69
-24 27 -4 76 -34 170 -105 179 -133 366 -262 437 -300 76 -40 79 -64 4 -28
-55 27 -64 25 -64 -10 0 -18 12 -33 47 -57 26 -17 65 -49 87 -69 22 -21 43
-38 47 -38 4 0 35 -19 69 -42 34 -24 69 -47 78 -53 15 -9 71 -56 96 -81 19
-18 54 -34 75 -34 11 0 24 -6 28 -13 4 -7 29 -30 56 -51 26 -21 47 -44 47 -51
0 -20 34 -75 46 -75 5 0 20 -9 32 -20 12 -11 23 -20 26 -20 9 0 101 -64 104
-72 2 -4 9 -8 17 -8 7 0 31 -20 54 -43 24 -24 67 -61 98 -83 30 -21 60 -44 66
-49 7 -6 24 -16 40 -22 15 -7 27 -18 27 -24 0 -16 -46 -3 -97 29 -24 15 -64
38 -88 52 -60 33 -239 143 -245 150 -8 9 -146 87 -250 143 -52 27 -104 58
-115 69 -60 55 -89 77 -127 93 -84 35 -128 57 -133 65 -2 4 -15 5 -28 3 -14
-3 -29 2 -36 11 -8 9 -19 16 -26 16 -8 0 -23 12 -34 26 -11 15 -26 24 -33 21
-16 -5 -42 20 -29 28 5 3 6 17 2 33 -6 23 -14 28 -52 32 -24 3 -64 18 -89 32
-25 15 -65 34 -90 43 -82 30 -120 48 -120 55 0 11 27 20 56 20 13 0 24 5 24
10 0 16 33 11 60 -10 32 -24 56 -10 38 23 -9 18 -7 23 11 35 24 17 28 34 5 25
-10 -4 -17 1 -21 16 -3 11 -9 19 -13 16 -5 -3 -52 18 -106 45 -101 52 -164
102 -164 130 0 9 -19 35 -42 57 -24 23 -47 47 -53 55 -5 7 -30 37 -55 67 -25
30 -45 59 -45 65 0 6 -12 17 -27 24 -15 7 -36 24 -46 37 -11 14 -25 25 -31 25
-6 0 -11 14 -11 30 0 17 4 30 8 30 5 0 29 -24 55 -52z m-1953 -819 c0 -5 -7
-9 -15 -9 -8 0 -15 7 -15 15 0 9 6 12 15 9 8 -4 15 -10 15 -15z m9728 -357 c2
-7 -5 -16 -17 -19 -13 -3 -21 -14 -22 -27 -1 -13 -4 -7 -9 14 -6 24 -5 37 3
42 17 11 39 6 45 -10z m-7493 -28 l30 -25 -44 6 c-52 7 -61 11 -61 31 0 23 42
16 75 -12z m87 -38 c6 -8 8 -8 8 0 0 6 11 12 25 12 18 0 27 -7 31 -25 4 -14
18 -29 32 -34 19 -7 22 -13 14 -21 -9 -9 -16 -7 -30 5 -10 9 -27 18 -38 20
-10 2 -28 7 -39 11 -11 5 -25 9 -31 11 -6 2 -14 13 -17 25 -5 18 -2 20 16 14
12 -4 25 -12 29 -18z m753 -67 c6 -4 35 -17 65 -29 57 -22 77 -31 170 -73 85
-38 98 -40 125 -23 13 9 43 16 66 16 35 0 54 -9 125 -62 46 -35 83 -68 84 -73
0 -11 -38 -30 -83 -41 -48 -11 -47 -23 8 -124 8 -14 26 -35 42 -48 82 -68 295
-188 313 -177 5 3 24 -2 41 -10 17 -9 43 -19 57 -21 37 -7 38 -11 14 -37 -17
-18 -22 -37 -24 -92 -3 -81 0 -80 -123 -51 -38 9 -88 21 -110 26 -22 5 -56 13
-75 19 -19 5 -51 14 -70 20 -89 25 -116 38 -145 67 -18 18 -49 37 -71 44 -21
7 -49 16 -62 21 -13 5 -32 9 -43 9 -11 0 -17 5 -14 10 8 13 82 13 87 1 2 -5
19 -11 38 -13 19 -1 40 -8 46 -14 15 -14 90 -6 76 8 -6 6 -22 11 -36 11 -14 0
-26 3 -26 7 0 8 -64 27 -127 37 -19 3 -33 11 -33 19 0 8 -9 14 -20 14 -11 0
-20 4 -20 9 0 4 -18 11 -41 14 -22 3 -48 12 -58 21 -10 9 -27 16 -38 16 -11 0
-53 17 -94 39 -41 21 -92 44 -114 51 -22 7 -57 24 -77 37 -21 12 -44 23 -53
23 -20 0 -76 35 -68 43 10 10 73 8 73 -2 0 -5 9 -11 20 -14 11 -3 20 -2 20 3
0 14 33 21 40 9 4 -6 17 -8 28 -5 13 4 22 1 26 -9 6 -16 76 -22 76 -7 0 12
-43 48 -80 67 -39 20 -76 17 -72 -7 4 -27 -36 -34 -59 -9 -10 11 -19 24 -19
29 0 4 -24 16 -52 27 -29 10 -55 19 -56 21 -2 1 11 16 29 32 l33 30 -19 37
c-11 20 -27 40 -35 43 -8 3 -22 11 -32 19 -11 10 -18 11 -23 4 -3 -6 -11 -11
-17 -11 -6 0 -8 3 -5 7 4 3 3 11 -2 17 -7 8 15 9 77 4 226 -19 252 -16 252 27
0 23 2 24 28 13 15 -7 32 -15 37 -19z m-417 -6 c6 -19 -25 -16 -32 3 -4 11 -1
14 11 12 9 -2 18 -9 21 -15z m7425 -115 c-12 -23 -24 -50 -27 -58 -4 -8 -18
-33 -31 -55 l-25 -40 0 32 c0 17 5 35 10 38 6 3 10 19 10 35 0 16 5 32 10 35
6 3 10 15 10 25 0 11 8 29 17 40 15 17 19 18 31 6 13 -12 12 -20 -5 -58z
m-7395 39 c6 -5 12 -15 12 -23 0 -18 -17 -18 -54 1 -15 8 -36 15 -45 16 -9 1
-5 4 9 9 29 9 60 8 78 -3z m22 -187 c0 -5 -2 -10 -4 -10 -3 0 -8 5 -11 10 -3
6 -1 10 4 10 6 0 11 -4 11 -10z m75 -20 c3 -5 -3 -10 -14 -10 -12 0 -21 5 -21
10 0 6 6 10 14 10 8 0 18 -4 21 -10z m6708 -56 c-7 -3 -10 -11 -7 -18 3 -7 -2
-19 -11 -26 -16 -13 -18 -8 -9 28 4 12 14 22 23 21 9 0 11 -3 4 -5z m-6144
-260 c2 -2 2 -7 -2 -10 -9 -9 -57 5 -57 16 0 9 47 4 59 -6z m4661 -156 c0 -17
-43 -78 -56 -78 -24 0 -22 15 7 51 31 39 49 49 49 27z m-170 -25 c0 -26 -35
-80 -60 -93 -26 -14 -70 -5 -70 14 0 18 52 84 70 89 36 11 60 7 60 -10z m1773
-169 c-7 -3 -10 -11 -7 -19 7 -16 -34 -75 -52 -75 -15 0 -26 28 -19 50 5 17
60 50 80 49 6 0 5 -3 -2 -5z m-3750 -723 c121 -62 153 -86 280 -216 77 -78 79
-81 74 -120 -7 -51 -49 -89 -106 -99 -43 -7 -69 2 -105 35 -24 23 -51 25 -42
4 3 -8 -8 -28 -27 -48 -27 -28 -39 -33 -78 -32 -25 0 -52 5 -60 11 -19 15 -69
27 -69 16 0 -4 16 -23 35 -42 36 -35 44 -52 23 -48 -6 2 -12 -12 -14 -35 -3
-36 -22 -67 -42 -67 -5 0 -21 -18 -35 -39 -15 -22 -40 -47 -57 -57 -16 -10
-30 -22 -30 -27 0 -5 -7 -4 -15 3 -8 7 -15 18 -15 25 0 17 -81 135 -92 135 -5
0 -15 6 -23 13 -7 6 -38 32 -69 57 -54 43 -56 47 -51 82 6 33 -6 74 -25 88
-11 9 -50 77 -50 88 0 5 21 22 48 38 26 15 51 33 55 41 9 15 53 18 62 3 13
-20 86 -49 106 -41 19 6 18 9 -10 39 -18 18 -37 29 -45 26 -15 -6 -32 44 -27
79 1 10 -3 25 -9 32 -20 24 -4 45 33 45 19 0 40 7 47 15 7 8 27 15 44 15 24 0
28 3 16 10 -27 18 9 30 86 30 67 0 78 -3 187 -59z m1772 2 c9 -9 21 -27 26
-40 4 -12 15 -23 24 -23 29 0 84 -62 121 -135 41 -84 42 -115 1 -71 -23 25
-27 26 -27 10 0 -31 29 -67 45 -54 14 12 34 -13 53 -68 14 -42 27 -202 18
-236 -5 -22 -12 -26 -45 -26 -44 0 -43 -1 -56 107 -4 29 -11 55 -15 58 -8 5
-48 86 -70 140 -5 11 -36 79 -70 150 -35 72 -67 141 -74 154 -9 19 -7 25 9 37
25 18 40 18 60 -3z m-465 -33 c0 -5 7 -7 15 -4 9 4 23 -3 34 -15 10 -11 30
-21 45 -21 16 0 26 -5 26 -15 0 -8 5 -15 11 -15 6 0 8 -9 4 -21 -5 -13 -3 -19
3 -15 5 3 15 -1 22 -9 10 -12 9 -15 -4 -15 -23 0 -56 -36 -56 -62 0 -12 -10
-32 -22 -45 -12 -13 -16 -23 -9 -23 7 0 9 -5 6 -10 -10 -16 -88 69 -113 123
-18 37 -27 47 -46 47 -14 0 -28 -4 -31 -10 -10 -17 -28 -11 -64 19 -29 25 -31
30 -15 34 10 2 -2 3 -28 1 -26 -1 -50 1 -53 7 -4 5 5 10 19 10 46 2 80 6 129
14 40 7 50 5 60 -10 17 -23 103 -31 111 -10 7 19 1 21 -62 30 -28 4 -49 11
-46 16 7 12 64 12 64 -1z m-526 -726 c10 -27 7 -72 -6 -76 -21 -7 -63 8 -60
21 1 7 -2 19 -9 27 -6 8 -9 21 -5 29 8 21 72 20 80 -1z m314 -120 c30 -9 28
-22 -5 -26 -21 -2 -33 -15 -55 -58 -15 -30 -28 -60 -28 -67 0 -11 -40 -46 -47
-40 -5 6 38 110 56 136 10 14 21 34 24 44 7 18 18 20 55 11z m1464 -718 c9 9
20 -51 20 -114 0 -77 -13 -181 -23 -188 -5 -3 -9 -17 -9 -31 0 -13 -7 -39 -16
-56 -31 -58 -34 -67 -34 -82 0 -8 -5 -15 -12 -15 -6 0 -9 -3 -5 -6 3 -3 -3
-21 -13 -39 -27 -48 -36 -67 -50 -100 -7 -16 -16 -38 -21 -47 -5 -10 -9 -25
-9 -33 0 -8 -4 -23 -9 -33 -5 -9 -13 -26 -17 -37 -6 -18 -8 -17 -15 10 l-8 30
1 -35 c0 -19 -1 -37 -2 -40 -2 -3 -4 -15 -5 -28 -1 -13 -7 -33 -13 -45 -6 -12
-21 -51 -33 -87 -12 -36 -26 -68 -31 -71 -6 -4 -14 -22 -18 -40 l-8 -34 -2 40
-3 40 -7 -35 c-5 -22 -7 7 -5 75 4 125 13 193 26 201 5 3 9 19 9 35 0 17 7 37
15 45 8 9 15 27 15 42 0 26 16 83 31 114 5 10 9 25 9 33 0 9 5 13 10 10 6 -3
11 0 12 7 3 27 4 34 18 71 8 20 18 37 22 37 4 0 8 14 8 30 0 17 5 30 10 30 6
0 10 9 10 20 0 11 5 20 10 20 6 0 10 10 10 23 0 12 7 31 15 41 8 11 15 28 15
39 0 10 5 15 10 12 6 -4 10 9 10 32 0 38 15 89 38 131 7 12 10 22 7 22 -4 0
-3 5 0 10 5 8 11 8 19 1 7 -6 15 -8 18 -5z m8715 -171 c3 -10 -16 -52 -47
-103 -107 -178 -163 -268 -191 -309 -16 -23 -29 -44 -29 -46 0 -10 -279 -423
-294 -436 -14 -12 -16 -7 -16 55 l0 68 116 176 c63 96 155 240 204 320 194
316 175 290 215 290 23 0 38 -6 42 -15z m-20089 -46 c29 -30 42 -70 42 -136 0
-50 -21 -40 -54 25 -17 31 -38 69 -48 84 -10 14 -18 33 -18 42 0 27 45 19 78
-15z m156 -290 c10 -24 21 -48 25 -54 4 -5 13 -30 20 -55 7 -25 17 -54 21 -65
29 -72 39 -105 32 -105 -7 0 -19 19 -70 110 -14 25 -33 56 -42 70 -25 37 -40
88 -40 136 0 43 1 43 18 26 10 -10 26 -38 36 -63z m10651 -537 c6 -4 21 -20
33 -36 31 -40 31 -164 1 -250 -27 -76 -44 -96 -83 -96 -19 0 -35 7 -42 18 -6
9 -11 86 -13 175 -1 134 1 158 14 163 8 3 15 12 15 20 0 15 57 20 75 6z m8525
-294 c0 -9 -79 -121 -154 -216 -42 -55 -51 -61 -59 -47 -5 10 -7 41 -4 69 4
45 15 65 72 141 37 50 76 100 87 112 l21 22 18 -37 c11 -20 19 -40 19 -44z
m-18447 -281 c43 -60 77 -110 75 -112 -7 -8 -64 -9 -75 -2 -9 6 -141 183 -166
224 -4 7 -1 29 8 49 l15 37 32 -44 c17 -24 67 -93 111 -152z m179 -239 c34
-46 70 -92 79 -103 10 -11 46 -56 81 -100 112 -143 245 -298 462 -540 91 -102
572 -586 680 -685 125 -114 240 -217 276 -246 19 -16 37 -31 40 -34 11 -13
192 -162 285 -236 55 -43 102 -81 105 -85 3 -3 30 -24 60 -46 30 -23 78 -59
105 -80 337 -261 970 -669 1370 -883 44 -24 103 -55 130 -70 112 -62 490 -247
625 -307 19 -8 58 -26 85 -39 77 -35 464 -194 515 -210 25 -8 54 -19 65 -24
11 -4 54 -20 95 -35 41 -15 98 -35 125 -45 28 -11 88 -31 135 -46 47 -15 94
-30 105 -34 11 -5 61 -20 110 -35 50 -15 101 -30 115 -35 14 -4 45 -13 70 -20
25 -7 56 -16 70 -21 25 -8 156 -44 220 -60 19 -4 53 -13 75 -18 131 -33 231
-57 295 -70 25 -5 108 -23 185 -39 77 -16 174 -34 215 -41 41 -7 93 -16 115
-21 63 -14 303 -50 470 -70 50 -6 122 -15 160 -21 90 -12 245 -26 465 -41 234
-17 1295 -17 1525 -1 331 24 732 71 1015 119 52 9 109 18 125 20 17 3 53 9 80
14 28 6 111 21 185 35 74 14 151 29 170 34 19 5 58 14 85 19 52 11 242 56 308
72 152 40 227 60 255 71 13 5 32 9 43 9 10 0 27 4 37 9 9 5 44 16 77 26 175
49 605 189 690 225 11 4 65 25 120 45 55 20 109 41 120 45 11 5 88 36 170 69
83 32 180 73 218 90 37 17 69 31 71 31 2 0 52 23 110 50 58 28 108 50 111 50
7 0 460 225 570 283 113 59 199 107 265 147 25 15 79 46 120 70 495 287 1062
676 1479 1014 68 56 138 112 155 126 29 23 229 193 252 215 6 5 44 39 85 75
323 283 796 760 1090 1100 105 121 194 226 239 282 25 31 54 60 65 66 24 11
95 4 95 -10 0 -15 -295 -365 -473 -561 -236 -259 -545 -572 -768 -776 -68 -63
-146 -135 -174 -160 -88 -82 -326 -284 -455 -386 -69 -55 -127 -102 -130 -105
-20 -21 -392 -297 -540 -402 -316 -223 -670 -446 -1000 -630 -233 -129 -269
-148 -515 -272 -239 -121 -294 -147 -475 -227 -52 -23 -122 -54 -155 -69 -75
-34 -486 -197 -619 -245 -102 -38 -540 -181 -656 -215 -36 -11 -87 -26 -115
-34 -56 -17 -109 -32 -305 -83 -134 -35 -163 -42 -250 -61 -25 -5 -99 -22
-165 -37 -124 -28 -171 -37 -265 -54 -30 -5 -93 -17 -140 -26 -156 -30 -258
-46 -405 -64 -44 -6 -91 -13 -105 -16 -54 -11 -343 -42 -510 -55 -871 -66
-1671 -43 -2465 72 -38 5 -97 13 -130 18 -110 15 -197 30 -450 80 -27 5 -61
11 -75 14 -14 2 -79 17 -145 31 -66 15 -131 29 -145 32 -14 3 -77 19 -140 35
-63 17 -131 34 -150 38 -19 5 -51 13 -70 18 -19 6 -71 20 -115 31 -44 12 -91
25 -105 30 -14 5 -45 14 -70 21 -25 7 -54 16 -65 20 -11 5 -60 20 -110 35 -49
15 -99 31 -110 35 -11 5 -83 29 -160 55 -130 43 -471 170 -540 200 -16 7 -70
30 -120 50 -49 20 -118 50 -153 66 -35 16 -65 29 -67 29 -3 0 -30 12 -62 26
-892 405 -1641 868 -2418 1493 -257 207 -458 385 -788 701 -124 118 -440 451
-571 600 -60 69 -121 139 -135 155 -167 190 -483 594 -475 607 3 5 20 8 39 8
31 0 40 -8 97 -82z"/>
<path d="M22265 31870 c-3 -5 1 -10 9 -10 9 0 16 5 16 10 0 6 -4 10 -9 10 -6
0 -13 -4 -16 -10z"/>
<path d="M22467 31745 c-16 -14 -25 -30 -22 -35 3 -6 -1 -10 -9 -10 -9 0 -16
6 -16 14 0 8 -7 17 -16 20 -23 9 -72 7 -78 -3 -8 -12 42 -64 54 -56 5 3 19 1
30 -5 11 -6 20 -7 20 -2 0 4 17 9 38 9 20 1 46 3 57 4 11 2 32 0 46 -4 44 -11
44 18 1 58 -44 41 -67 43 -105 10z"/>
<path d="M22182 31719 c-58 -5 -98 -14 -107 -23 -13 -12 -12 -15 2 -20 8 -4
21 -3 27 2 6 5 40 9 76 10 35 1 69 7 74 12 6 6 18 10 27 10 10 0 21 5 24 10 3
6 -2 9 -12 9 -10 -1 -60 -5 -111 -10z"/>
<path d="M21995 31680 c-8 -13 5 -13 25 0 13 8 13 10 -2 10 -9 0 -20 -4 -23
-10z"/>
<path d="M23506 32583 c-7 -7 13 -33 25 -33 5 0 9 6 9 14 0 15 -24 28 -34 19z"/>
<path d="M23310 32420 c0 -5 5 -10 10 -10 6 0 10 5 10 10 0 6 -4 10 -10 10 -5
0 -10 -4 -10 -10z"/>
<path d="M23590 32393 c0 -26 1 -26 15 -7 19 25 19 34 0 34 -10 0 -15 -10 -15
-27z"/>
<path d="M23632 32372 c-34 -31 -41 -59 -17 -68 8 -4 15 -14 15 -24 0 -9 9
-25 19 -34 15 -14 18 -23 11 -40 -6 -17 -4 -27 11 -39 42 -37 60 0 22 45 -10
11 -11 18 -4 23 15 8 14 88 -1 103 -8 8 -8 15 2 27 12 14 11 18 -1 26 -20 13
-22 12 -57 -19z"/>
<path d="M23540 32011 c0 -11 -6 -21 -12 -24 -15 -5 35 -27 61 -27 10 0 24 7
31 15 11 13 9 15 -13 15 -16 0 -26 7 -30 20 -7 26 -37 26 -37 1z"/>
<path d="M23200 31934 c0 -15 26 -19 34 -5 3 5 -3 11 -14 14 -13 3 -20 0 -20
-9z"/>
<path d="M23520 31560 c0 -5 5 -10 10 -10 6 0 10 5 10 10 0 6 -4 10 -10 10 -5
0 -10 -4 -10 -10z"/>
<path d="M19875 29430 c3 -5 12 -7 20 -3 21 7 19 13 -6 13 -11 0 -18 -4 -14
-10z"/>
<path d="M19563 29373 c-19 -7 -16 -23 5 -23 16 -1 16 -1 -1 -11 -10 -6 -25
-8 -33 -5 -8 3 -14 1 -14 -4 0 -6 5 -10 11 -10 7 0 8 -14 4 -40 -6 -36 -5 -40
14 -40 12 0 21 6 21 15 0 8 5 15 11 15 8 0 8 5 -1 15 -10 12 -8 16 13 24 25
10 37 30 37 59 -1 15 -3 14 -15 -2 -14 -18 -16 -18 -27 -4 -7 9 -19 14 -25 11z"/>
<path d="M18773 29196 c-13 -6 -23 -18 -23 -27 0 -21 26 -44 34 -30 4 6 17 5
35 -2 33 -12 55 -1 64 33 4 16 0 19 -29 18 -18 -1 -39 3 -46 8 -8 7 -21 6 -35
0z"/>
<path d="M18975 29200 c-3 -5 -1 -10 4 -10 6 0 11 5 11 10 0 6 -2 10 -4 10 -3
0 -8 -4 -11 -10z"/>
<path d="M19090 29200 c0 -5 7 -10 15 -10 8 0 15 5 15 10 0 6 -7 10 -15 10 -8
0 -15 -4 -15 -10z"/>
<path d="M19635 29120 c-3 -5 1 -10 9 -10 9 0 16 5 16 10 0 6 -4 10 -9 10 -6
0 -13 -4 -16 -10z"/>
<path d="M19792 29050 c-13 -16 -26 -29 -30 -29 -26 4 -41 -5 -47 -28 -5 -16
-10 -35 -12 -43 -11 -37 -8 -55 9 -54 20 2 31 -33 12 -40 -7 -3 -12 -11 -10
-18 3 -7 7 -25 10 -40 8 -35 29 -36 44 -2 13 28 5 137 -9 128 -5 -3 -9 1 -9 9
0 8 9 17 20 20 11 3 20 13 20 23 0 9 6 25 14 33 18 20 31 71 19 71 -5 0 -19
-13 -31 -30z"/>
<path d="M20337 29073 c-19 -18 -5 -49 33 -70 49 -29 50 -29 50 2 0 40 -62 90
-83 68z"/>
<path d="M20213 29008 c-15 -15 -31 -28 -36 -28 -18 0 -36 -27 -25 -38 11 -11
18 -6 85 48 7 6 16 10 21 10 4 0 17 6 27 14 17 12 16 14 -13 18 -25 4 -37 -1
-59 -24z"/>
<path d="M20067 28978 c-13 -10 -17 -27 -16 -68 1 -75 -1 -90 -17 -127 -16
-35 -10 -65 12 -56 8 3 20 0 28 -6 11 -9 12 -6 8 15 -4 20 -2 25 7 19 8 -4 11
-18 8 -33 -6 -32 9 -76 23 -67 12 8 13 108 1 155 -5 19 -12 48 -15 63 -4 15
-11 25 -16 22 -14 -9 -12 1 5 34 11 23 12 32 2 45 -10 14 -15 15 -30 4z"/>
<path d="M20272 28930 c0 -14 2 -19 5 -12 2 6 2 18 0 25 -3 6 -5 1 -5 -13z"/>
<path d="M18625 28890 c-7 -23 14 -90 30 -90 5 0 3 -5 -5 -10 -9 -6 -10 -10
-3 -10 20 0 53 42 53 67 0 13 -4 23 -9 23 -5 0 -11 9 -14 20 -7 26 -44 26 -52
0z"/>
<path d="M18662 28758 c6 -18 28 -21 28 -4 0 9 -7 16 -16 16 -9 0 -14 -5 -12
-12z"/>
<path d="M19992 28659 c-15 -47 -6 -71 14 -37 24 42 26 48 20 63 -9 25 -21 17
-34 -26z"/>
<path d="M20156 28642 c-7 -11 4 -52 14 -52 4 0 10 9 13 20 5 20 -17 48 -27
32z"/>
<path d="M19960 28550 c0 -11 5 -20 10 -20 6 0 10 9 10 20 0 11 -4 20 -10 20
-5 0 -10 -9 -10 -20z"/>
<path d="M19536 28504 c-3 -9 -6 -24 -6 -35 0 -11 -5 -27 -11 -37 -8 -13 -7
-29 4 -62 8 -24 19 -46 25 -48 16 -5 39 79 34 131 -3 32 -10 50 -22 57 -13 7
-20 6 -24 -6z"/>
<path d="M19958 28483 c-3 -10 -2 -27 2 -38 6 -17 8 -15 13 10 6 33 -7 58 -15
28z"/>
<path d="M19963 28344 c0 -33 5 -49 19 -57 10 -7 18 -23 18 -39 0 -18 8 -31
21 -39 33 -17 45 2 32 48 -6 21 -15 56 -20 78 -7 33 -12 40 -31 38 -12 -2 -22
2 -22 7 0 6 -4 10 -9 10 -5 0 -9 -21 -8 -46z"/>
<path d="M19380 28160 c0 -5 7 -10 16 -10 8 0 12 5 9 10 -3 6 -10 10 -16 10
-5 0 -9 -4 -9 -10z"/>
<path d="M19587 28144 c-11 -11 -8 -42 4 -50 15 -9 38 14 23 24 -6 4 -13 13
-15 20 -3 7 -8 10 -12 6z"/>
<path d="M19457 28056 c-7 -16 1 -26 20 -26 7 0 13 9 13 20 0 23 -25 27 -33 6z"/>
<path d="M19598 28049 c-10 -6 -18 -21 -18 -34 0 -35 36 -34 44 1 9 33 -3 46
-26 33z"/>
<path d="M20071 27964 c0 -11 3 -14 6 -6 3 7 2 16 -1 19 -3 4 -6 -2 -5 -13z"/>
<path d="M19657 27826 c3 -16 12 -41 19 -55 14 -25 14 -25 14 17 0 30 -4 42
-14 42 -8 0 -17 6 -20 13 -3 6 -2 -1 1 -17z"/>
<path d="M20161 27574 c0 -11 3 -14 6 -6 3 7 2 16 -1 19 -3 4 -6 -2 -5 -13z"/>
<path d="M24915 29270 c-3 -5 -2 -10 4 -10 5 0 13 5 16 10 3 6 2 10 -4 10 -5
0 -13 -4 -16 -10z"/>
<path d="M24013 28753 c9 -2 23 -2 30 0 6 3 -1 5 -18 5 -16 0 -22 -2 -12 -5z"/>
<path d="M25827 28504 c-9 -15 22 -56 35 -48 7 5 6 11 -4 18 -8 6 -17 18 -20
26 -3 8 -7 10 -11 4z"/>
<path d="M25865 28430 c3 -5 11 -10 16 -10 6 0 7 5 4 10 -3 6 -11 10 -16 10
-6 0 -7 -4 -4 -10z"/>
<path d="M24450 28360 c0 -5 7 -10 15 -10 8 0 15 5 15 10 0 6 -7 10 -15 10 -8
0 -15 -4 -15 -10z"/>
<path d="M22922 27299 c2 -6 8 -10 13 -10 5 0 11 4 13 10 2 6 -4 11 -13 11 -9
0 -15 -5 -13 -11z"/>
<path d="M26392 27220 c0 -14 2 -19 5 -12 2 6 2 18 0 25 -3 6 -5 1 -5 -13z"/>
<path d="M24329 27174 c-9 -11 -13 -37 -11 -74 2 -33 -1 -61 -7 -65 -6 -3 -11
-15 -11 -26 0 -21 -83 -218 -119 -282 -11 -21 -21 -44 -21 -52 0 -8 -4 -15 -9
-15 -15 0 -23 19 -14 33 4 6 8 17 9 22 1 6 7 30 14 55 6 25 14 56 17 70 3 14
11 28 16 32 6 3 12 32 15 63 5 65 -10 73 -38 20 -8 -16 -21 -35 -27 -43 -7 -7
-13 -20 -13 -28 0 -8 -4 -14 -10 -14 -5 0 -10 -7 -10 -16 0 -8 -11 -30 -25
-48 -14 -18 -25 -37 -25 -42 0 -5 -11 -21 -25 -36 -14 -15 -25 -35 -26 -45 -1
-12 -3 -10 -8 7 -6 22 -8 20 -15 -20 -7 -45 -7 -45 -21 -20 -13 24 -14 24 -21
5 -4 -11 -10 -22 -14 -25 -17 -14 -52 -73 -65 -111 -8 -23 -28 -54 -43 -69
-26 -25 -72 -107 -72 -130 0 -5 -4 -10 -9 -10 -8 0 -26 -66 -23 -83 1 -4 -7
-18 -19 -30 l-21 -22 7 34 c9 41 -4 35 -30 -16 -11 -21 -28 -47 -38 -58 -10
-11 -25 -32 -33 -46 -12 -23 -11 -29 1 -39 8 -7 14 -24 13 -39 -1 -15 1 -32 5
-38 5 -7 1 -26 -8 -44 -21 -39 -13 -48 16 -20 27 25 38 26 45 7 7 -19 -11 -53
-57 -101 -79 -85 -98 -109 -92 -119 4 -6 8 -6 11 2 2 7 13 10 26 6 14 -3 27 1
36 11 7 9 16 12 19 6 3 -5 15 -11 26 -13 14 -2 21 3 23 20 2 13 -2 22 -10 22
-7 0 12 22 42 50 41 37 65 51 97 56 23 3 47 12 53 19 5 7 21 10 34 8 16 -3 34
4 57 24 56 47 148 103 179 110 24 4 32 13 42 45 10 35 10 41 -5 50 -21 11 -22
25 -2 44 8 9 18 27 22 42 3 15 12 32 19 39 11 12 21 42 54 163 15 59 21 117 9
100 -7 -11 -8 -2 -4 30 4 25 13 52 20 60 7 8 22 47 33 85 11 39 33 108 50 155
31 88 37 135 34 278 -2 85 -13 102 -43 66z"/>
<path d="M26392 26810 c-7 -12 -8 -21 -2 -25 13 -8 30 3 30 20 0 23 -15 25
-28 5z"/>
<path d="M22785 26390 c-3 -5 -1 -10 4 -10 6 0 11 5 11 10 0 6 -2 10 -4 10 -3
0 -8 -4 -11 -10z"/>
<path d="M18071 28544 c0 -11 3 -14 6 -6 3 7 2 16 -1 19 -3 4 -6 -2 -5 -13z"/>
<path d="M18270 27625 c0 -8 5 -15 10 -15 6 0 10 7 10 15 0 8 -4 15 -10 15 -5
0 -10 -7 -10 -15z"/>
<path d="M17610 26710 c8 -5 24 -10 34 -10 26 0 18 6 -19 14 -22 5 -26 4 -15
-4z"/>
<path d="M17653 26673 c-13 -8 -23 -19 -23 -24 0 -15 30 -10 36 6 4 8 10 12
15 9 5 -3 9 2 9 10 0 20 -9 19 -37 -1z"/>
<path d="M17750 26640 c0 -6 7 -10 15 -10 8 0 15 2 15 4 0 2 -7 6 -15 10 -8 3
-15 1 -15 -4z"/>
<path d="M17265 25921 c-3 -5 -1 -12 5 -16 5 -3 10 1 10 9 0 18 -6 21 -15 7z"/>
<path d="M17335 25870 c-3 -5 -4 -10 -1 -10 2 0 12 -3 20 -6 12 -5 15 -2 10
10 -7 18 -20 21 -29 6z"/>
<path d="M16075 24860 c3 -5 11 -10 16 -10 6 0 7 5 4 10 -3 6 -11 10 -16 10
-6 0 -7 -4 -4 -10z"/>
<path d="M25223 24673 c3 -5 0 -19 -5 -33 -6 -17 -11 -21 -17 -12 -6 10 -11
10 -21 -3 -11 -13 -8 -15 18 -15 17 0 34 5 37 10 3 6 16 10 28 10 22 1 57 21
57 34 0 4 -18 5 -40 1 -26 -4 -40 -3 -40 4 0 6 -5 11 -11 11 -5 0 -8 -3 -6 -7z"/>
<path d="M27360 24575 c0 -9 9 -15 25 -15 28 0 34 15 9 24 -25 10 -34 7 -34
-9z"/>
<path d="M24877 24521 c-4 -17 -2 -18 19 -9 18 8 21 14 12 20 -20 12 -25 10
-31 -11z"/>
<path d="M24800 24500 c0 -5 4 -10 9 -10 6 0 13 5 16 10 3 6 -1 10 -9 10 -9 0
-16 -4 -16 -10z"/>
<path d="M27470 24500 c0 -5 4 -10 9 -10 6 0 13 5 16 10 3 6 -1 10 -9 10 -9 0
-16 -4 -16 -10z"/>
<path d="M15810 22985 c0 -8 5 -15 10 -15 6 0 10 7 10 15 0 8 -4 15 -10 15 -5
0 -10 -7 -10 -15z"/>
<path d="M14855 22650 c3 -5 10 -10 16 -10 5 0 9 5 9 10 0 6 -7 10 -16 10 -8
0 -12 -4 -9 -10z"/>
<path d="M15075 22580 c3 -5 13 -10 21 -10 8 0 12 5 9 10 -3 6 -13 10 -21 10
-8 0 -12 -4 -9 -10z"/>
<path d="M14697 22293 c-9 -9 12 -33 29 -33 17 0 18 12 2 28 -14 14 -22 15
-31 5z"/>
<path d="M15637 22286 c-3 -8 -2 -18 3 -21 13 -8 20 9 11 24 -6 10 -10 9 -14
-3z"/>
<path d="M15670 22275 c0 -9 6 -12 15 -9 8 4 15 7 15 9 0 2 -7 5 -15 9 -9 3
-15 0 -15 -9z"/>
<path d="M14564 21325 c-7 -28 38 -135 56 -135 6 0 10 -6 8 -12 -4 -20 21 -58
39 -58 12 0 14 6 8 33 -4 17 -10 50 -14 73 -8 44 -58 123 -78 124 -7 0 -15
-11 -19 -25z"/>
<path d="M14660 21101 c0 -5 7 -11 15 -15 9 -3 15 0 15 9 0 8 -7 15 -15 15 -8
0 -15 -4 -15 -9z"/>
<path d="M15816 20829 c20 -23 24 -23 24 -5 0 7 -9 16 -21 19 -20 5 -20 5 -3
-14z"/>
<path d="M16275 20730 c3 -5 11 -10 16 -10 6 0 7 5 4 10 -3 6 -11 10 -16 10
-6 0 -7 -4 -4 -10z"/>
<path d="M16156 20645 c-4 -10 1 -15 16 -15 17 0 18 2 8 15 -7 8 -14 15 -15
15 -2 0 -5 -7 -9 -15z"/>
<path d="M15596 20235 c4 -8 10 -15 15 -15 5 0 9 7 9 15 0 8 -7 15 -15 15 -9
0 -12 -6 -9 -15z"/>
<path d="M18782 19878 c2 -18 8 -22 30 -20 15 2 36 -2 47 -8 27 -14 26 -7 -3
24 -31 34 -79 36 -74 4z"/>
<path d="M21360 17914 c0 -8 5 -12 10 -9 6 4 8 11 5 16 -9 14 -15 11 -15 -7z"/>
<path d="M21390 17905 c0 -11 50 -36 61 -29 8 4 4 11 -12 20 -24 13 -49 18
-49 9z"/>
<path d="M21362 17660 c0 -14 2 -19 5 -12 2 6 2 18 0 25 -3 6 -5 1 -5 -13z"/>
<path d="M22954 17668 c-4 -6 -3 -8 4 -4 5 3 13 0 15 -6 3 -8 6 -6 6 5 1 19
-14 23 -25 5z"/>
<path d="M24132 16255 c0 -16 2 -22 5 -12 2 9 2 23 0 30 -3 6 -5 -1 -5 -18z"/>
</g>
</svg>
